<svg width="7" height="4" viewBox="0 0 7 4" fill="none" xmlns="http://www.w3.org/2000/svg">
<path d="M6.60513 0.273943C6.5627 0.235325 6.51221 0.204673 6.45659 0.183756C6.40096 0.162838 6.3413 0.152069 6.28104 0.152069C6.22078 0.152069 6.16112 0.162838 6.1055 0.183756C6.04987 0.204673 5.99939 0.235325 5.95696 0.273943L3.86636 2.16098C3.82393 2.1996 3.77344 2.23025 3.71782 2.25117C3.66219 2.27208 3.60253 2.28285 3.54227 2.28285C3.48201 2.28285 3.42235 2.27208 3.36673 2.25117C3.3111 2.23025 3.26062 2.1996 3.21819 2.16098L1.12759 0.273943C1.08516 0.235325 1.03467 0.204673 0.979048 0.183756C0.923424 0.162838 0.863761 0.152069 0.803503 0.152069C0.743245 0.152069 0.683583 0.162838 0.627959 0.183756C0.572334 0.204673 0.521849 0.235325 0.479415 0.273943C0.394399 0.351139 0.34668 0.455566 0.34668 0.564415C0.34668 0.673264 0.394399 0.77769 0.479415 0.854887L2.57457 2.74604C2.83133 2.97752 3.17938 3.10753 3.54227 3.10753C3.90516 3.10753 4.25321 2.97752 4.50997 2.74604L6.60513 0.854887C6.69015 0.77769 6.73787 0.673264 6.73787 0.564415C6.73787 0.455566 6.69015 0.351139 6.60513 0.273943Z" fill="#B6BDC3"/>
</svg>
