<svg width="393" height="890" viewBox="0 0 393 890" fill="none" xmlns="http://www.w3.org/2000/svg">
<path d="M0 44C0 19.6995 19.6995 0 44 0H393V890H44C19.6995 890 0 870.301 0 846V44Z" fill="#00A991"/>
<path d="M69.056 336.736C69.056 334.517 69.536 332.544 70.496 330.816C71.456 329.067 72.7893 327.712 74.496 326.752C76.224 325.771 78.176 325.28 80.352 325.28C83.0187 325.28 85.3013 325.984 87.2 327.392C89.0987 328.8 90.368 330.72 91.008 333.152H84.992C84.544 332.213 83.904 331.499 83.072 331.008C82.2613 330.517 81.3333 330.272 80.288 330.272C78.6027 330.272 77.2373 330.859 76.192 332.032C75.1467 333.205 74.624 334.773 74.624 336.736C74.624 338.699 75.1467 340.267 76.192 341.44C77.2373 342.613 78.6027 343.2 80.288 343.2C81.3333 343.2 82.2613 342.955 83.072 342.464C83.904 341.973 84.544 341.259 84.992 340.32H91.008C90.368 342.752 89.0987 344.672 87.2 346.08C85.3013 347.467 83.0187 348.16 80.352 348.16C78.176 348.16 76.224 347.68 74.496 346.72C72.7893 345.739 71.456 344.384 70.496 342.656C69.536 340.928 69.056 338.955 69.056 336.736ZM92.311 339.04C92.311 337.205 92.6523 335.595 93.335 334.208C94.039 332.821 94.9883 331.755 96.183 331.008C97.3777 330.261 98.711 329.888 100.183 329.888C101.442 329.888 102.54 330.144 103.479 330.656C104.439 331.168 105.175 331.84 105.687 332.672V330.144H111.159V348H105.687V345.472C105.154 346.304 104.407 346.976 103.447 347.488C102.508 348 101.41 348.256 100.151 348.256C98.7003 348.256 97.3777 347.883 96.183 347.136C94.9883 346.368 94.039 345.291 93.335 343.904C92.6523 342.496 92.311 340.875 92.311 339.04ZM105.687 339.072C105.687 337.707 105.303 336.629 104.535 335.84C103.788 335.051 102.871 334.656 101.783 334.656C100.695 334.656 99.767 335.051 98.999 335.84C98.2523 336.608 97.879 337.675 97.879 339.04C97.879 340.405 98.2523 341.493 98.999 342.304C99.767 343.093 100.695 343.488 101.783 343.488C102.871 343.488 103.788 343.093 104.535 342.304C105.303 341.515 105.687 340.437 105.687 339.072ZM113.07 339.04C113.07 337.205 113.411 335.595 114.094 334.208C114.798 332.821 115.747 331.755 116.942 331.008C118.136 330.261 119.47 329.888 120.942 329.888C122.115 329.888 123.182 330.133 124.142 330.624C125.123 331.115 125.891 331.776 126.446 332.608V324.32H131.918V348H126.446V345.44C125.934 346.293 125.198 346.976 124.238 347.488C123.299 348 122.2 348.256 120.942 348.256C119.47 348.256 118.136 347.883 116.942 347.136C115.747 346.368 114.798 345.291 114.094 343.904C113.411 342.496 113.07 340.875 113.07 339.04ZM126.446 339.072C126.446 337.707 126.062 336.629 125.294 335.84C124.547 335.051 123.63 334.656 122.542 334.656C121.454 334.656 120.526 335.051 119.758 335.84C119.011 336.608 118.638 337.675 118.638 339.04C118.638 340.405 119.011 341.493 119.758 342.304C120.526 343.093 121.454 343.488 122.542 343.488C123.63 343.488 124.547 343.093 125.294 342.304C126.062 341.515 126.446 340.437 126.446 339.072ZM133.829 339.04C133.829 337.205 134.17 335.595 134.853 334.208C135.557 332.821 136.506 331.755 137.701 331.008C138.895 330.261 140.229 329.888 141.701 329.888C142.959 329.888 144.058 330.144 144.997 330.656C145.957 331.168 146.693 331.84 147.205 332.672V330.144H152.677V348H147.205V345.472C146.671 346.304 145.925 346.976 144.965 347.488C144.026 348 142.927 348.256 141.669 348.256C140.218 348.256 138.895 347.883 137.701 347.136C136.506 346.368 135.557 345.291 134.853 343.904C134.17 342.496 133.829 340.875 133.829 339.04ZM147.205 339.072C147.205 337.707 146.821 336.629 146.053 335.84C145.306 335.051 144.389 334.656 143.301 334.656C142.213 334.656 141.285 335.051 140.517 335.84C139.77 336.608 139.397 337.675 139.397 339.04C139.397 340.405 139.77 341.493 140.517 342.304C141.285 343.093 142.213 343.488 143.301 343.488C144.389 343.488 145.306 343.093 146.053 342.304C146.821 341.515 147.205 340.437 147.205 339.072ZM162.939 348.256C161.382 348.256 159.995 347.989 158.779 347.456C157.563 346.923 156.603 346.197 155.899 345.28C155.195 344.341 154.801 343.296 154.715 342.144H160.123C160.187 342.763 160.475 343.264 160.987 343.648C161.499 344.032 162.129 344.224 162.875 344.224C163.558 344.224 164.081 344.096 164.443 343.84C164.827 343.563 165.019 343.211 165.019 342.784C165.019 342.272 164.753 341.899 164.219 341.664C163.686 341.408 162.822 341.131 161.627 340.832C160.347 340.533 159.281 340.224 158.427 339.904C157.574 339.563 156.838 339.04 156.219 338.336C155.601 337.611 155.291 336.64 155.291 335.424C155.291 334.4 155.569 333.472 156.123 332.64C156.699 331.787 157.531 331.115 158.619 330.624C159.729 330.133 161.041 329.888 162.555 329.888C164.795 329.888 166.555 330.443 167.835 331.552C169.137 332.661 169.883 334.133 170.075 335.968H165.019C164.934 335.349 164.657 334.859 164.187 334.496C163.739 334.133 163.142 333.952 162.395 333.952C161.755 333.952 161.265 334.08 160.923 334.336C160.582 334.571 160.411 334.901 160.411 335.328C160.411 335.84 160.678 336.224 161.211 336.48C161.766 336.736 162.619 336.992 163.771 337.248C165.094 337.589 166.171 337.931 167.003 338.272C167.835 338.592 168.561 339.125 169.179 339.872C169.819 340.597 170.15 341.579 170.171 342.816C170.171 343.861 169.873 344.8 169.275 345.632C168.699 346.443 167.857 347.083 166.747 347.552C165.659 348.021 164.39 348.256 162.939 348.256ZM182.511 343.36V348H179.727C177.743 348 176.196 347.52 175.087 346.56C173.978 345.579 173.423 343.989 173.423 341.792V334.688H171.247V330.144H173.423V325.792H178.895V330.144H182.479V334.688H178.895V341.856C178.895 342.389 179.023 342.773 179.279 343.008C179.535 343.243 179.962 343.36 180.559 343.36H182.511ZM190.071 333.12C190.711 332.139 191.511 331.371 192.471 330.816C193.431 330.24 194.498 329.952 195.671 329.952V335.744H194.167C192.802 335.744 191.778 336.043 191.095 336.64C190.412 337.216 190.071 338.24 190.071 339.712V348H184.599V330.144H190.071V333.12ZM214.158 338.784C214.158 339.296 214.126 339.829 214.062 340.384H201.678C201.764 341.493 202.116 342.347 202.734 342.944C203.374 343.52 204.153 343.808 205.07 343.808C206.436 343.808 207.385 343.232 207.918 342.08H213.743C213.444 343.253 212.9 344.309 212.111 345.248C211.343 346.187 210.372 346.923 209.198 347.456C208.025 347.989 206.713 348.256 205.262 348.256C203.513 348.256 201.956 347.883 200.59 347.136C199.225 346.389 198.158 345.323 197.39 343.936C196.622 342.549 196.238 340.928 196.238 339.072C196.238 337.216 196.612 335.595 197.358 334.208C198.126 332.821 199.193 331.755 200.558 331.008C201.924 330.261 203.492 329.888 205.262 329.888C206.99 329.888 208.526 330.251 209.87 330.976C211.214 331.701 212.26 332.736 213.007 334.08C213.774 335.424 214.158 336.992 214.158 338.784ZM208.558 337.344C208.558 336.405 208.238 335.659 207.598 335.104C206.958 334.549 206.158 334.272 205.198 334.272C204.281 334.272 203.502 334.539 202.862 335.072C202.244 335.605 201.86 336.363 201.71 337.344H208.558ZM229.171 348.256C227.613 348.256 226.227 347.989 225.011 347.456C223.795 346.923 222.835 346.197 222.131 345.28C221.427 344.341 221.032 343.296 220.947 342.144H226.355C226.419 342.763 226.707 343.264 227.219 343.648C227.731 344.032 228.36 344.224 229.107 344.224C229.789 344.224 230.312 344.096 230.675 343.84C231.059 343.563 231.251 343.211 231.251 342.784C231.251 342.272 230.984 341.899 230.451 341.664C229.917 341.408 229.053 341.131 227.859 340.832C226.579 340.533 225.512 340.224 224.659 339.904C223.805 339.563 223.069 339.04 222.451 338.336C221.832 337.611 221.523 336.64 221.523 335.424C221.523 334.4 221.8 333.472 222.355 332.64C222.931 331.787 223.763 331.115 224.851 330.624C225.96 330.133 227.272 329.888 228.787 329.888C231.027 329.888 232.787 330.443 234.067 331.552C235.368 332.661 236.115 334.133 236.307 335.968H231.251C231.165 335.349 230.888 334.859 230.419 334.496C229.971 334.133 229.373 333.952 228.627 333.952C227.987 333.952 227.496 334.08 227.155 334.336C226.813 334.571 226.643 334.901 226.643 335.328C226.643 335.84 226.909 336.224 227.443 336.48C227.997 336.736 228.851 336.992 230.003 337.248C231.325 337.589 232.403 337.931 233.235 338.272C234.067 338.592 234.792 339.125 235.411 339.872C236.051 340.597 236.381 341.579 236.403 342.816C236.403 343.861 236.104 344.8 235.507 345.632C234.931 346.443 234.088 347.083 232.979 347.552C231.891 348.021 230.621 348.256 229.171 348.256ZM255.622 338.784C255.622 339.296 255.59 339.829 255.526 340.384H243.142C243.228 341.493 243.58 342.347 244.198 342.944C244.838 343.52 245.617 343.808 246.534 343.808C247.9 343.808 248.849 343.232 249.382 342.08H255.206C254.908 343.253 254.364 344.309 253.574 345.248C252.806 346.187 251.836 346.923 250.662 347.456C249.489 347.989 248.177 348.256 246.726 348.256C244.977 348.256 243.42 347.883 242.054 347.136C240.689 346.389 239.622 345.323 238.854 343.936C238.086 342.549 237.702 340.928 237.702 339.072C237.702 337.216 238.076 335.595 238.822 334.208C239.59 332.821 240.657 331.755 242.022 331.008C243.388 330.261 244.956 329.888 246.726 329.888C248.454 329.888 249.99 330.251 251.334 330.976C252.678 331.701 253.724 332.736 254.47 334.08C255.238 335.424 255.622 336.992 255.622 338.784ZM250.022 337.344C250.022 336.405 249.702 335.659 249.062 335.104C248.422 334.549 247.622 334.272 246.662 334.272C245.745 334.272 244.966 334.539 244.326 335.072C243.708 335.605 243.324 336.363 243.174 337.344H250.022ZM275.181 330.144V348H269.709V345.568C269.154 346.357 268.397 346.997 267.437 347.488C266.498 347.957 265.453 348.192 264.301 348.192C262.936 348.192 261.73 347.893 260.685 347.296C259.64 346.677 258.829 345.792 258.253 344.64C257.677 343.488 257.389 342.133 257.389 340.576V330.144H262.829V339.84C262.829 341.035 263.138 341.963 263.757 342.624C264.376 343.285 265.208 343.616 266.253 343.616C267.32 343.616 268.162 343.285 268.781 342.624C269.4 341.963 269.709 341.035 269.709 339.84V330.144H275.181ZM78.944 377.688H76V391H70.528V377.688H68.544V373.144H70.528V372.632C70.528 370.435 71.1573 368.771 72.416 367.64C73.6747 366.488 75.52 365.912 77.952 365.912C78.3573 365.912 78.656 365.923 78.848 365.944V370.584C77.8027 370.52 77.0667 370.669 76.64 371.032C76.2133 371.395 76 372.045 76 372.984V373.144H78.944V377.688ZM88.6833 391.256C86.9339 391.256 85.3553 390.883 83.9473 390.136C82.5606 389.389 81.4619 388.323 80.6513 386.936C79.8619 385.549 79.4672 383.928 79.4672 382.072C79.4672 380.237 79.8726 378.627 80.6832 377.24C81.4939 375.832 82.6033 374.755 84.0113 374.008C85.4193 373.261 86.9979 372.888 88.7473 372.888C90.4966 372.888 92.0753 373.261 93.4833 374.008C94.8913 374.755 96.0006 375.832 96.8113 377.24C97.6219 378.627 98.0273 380.237 98.0273 382.072C98.0273 383.907 97.6113 385.528 96.7793 386.936C95.9686 388.323 94.8486 389.389 93.4193 390.136C92.0113 390.883 90.4326 391.256 88.6833 391.256ZM88.6833 386.52C89.7286 386.52 90.6139 386.136 91.3393 385.368C92.0859 384.6 92.4593 383.501 92.4593 382.072C92.4593 380.643 92.0966 379.544 91.3713 378.776C90.6673 378.008 89.7926 377.624 88.7473 377.624C87.6806 377.624 86.7953 378.008 86.0913 378.776C85.3873 379.523 85.0353 380.621 85.0353 382.072C85.0353 383.501 85.3766 384.6 86.0593 385.368C86.7633 386.136 87.6379 386.52 88.6833 386.52ZM105.442 376.12C106.082 375.139 106.882 374.371 107.842 373.816C108.802 373.24 109.869 372.952 111.042 372.952V378.744H109.538C108.173 378.744 107.149 379.043 106.466 379.64C105.784 380.216 105.442 381.24 105.442 382.712V391H99.9703V373.144H105.442V376.12ZM123.578 372.952C125.668 372.952 127.332 373.635 128.57 375C129.828 376.344 130.458 378.2 130.458 380.568V391H125.018V381.304C125.018 380.109 124.708 379.181 124.09 378.52C123.471 377.859 122.639 377.528 121.594 377.528C120.548 377.528 119.716 377.859 119.098 378.52C118.479 379.181 118.17 380.109 118.17 381.304V391H112.698V373.144H118.17V375.512C118.724 374.723 119.471 374.104 120.41 373.656C121.348 373.187 122.404 372.952 123.578 372.952ZM150.132 381.784C150.132 382.296 150.1 382.829 150.036 383.384H137.652C137.738 384.493 138.09 385.347 138.708 385.944C139.348 386.52 140.127 386.808 141.044 386.808C142.41 386.808 143.359 386.232 143.892 385.08H149.716C149.418 386.253 148.874 387.309 148.084 388.248C147.316 389.187 146.346 389.923 145.172 390.456C143.999 390.989 142.687 391.256 141.236 391.256C139.487 391.256 137.93 390.883 136.564 390.136C135.199 389.389 134.132 388.323 133.364 386.936C132.596 385.549 132.212 383.928 132.212 382.072C132.212 380.216 132.586 378.595 133.332 377.208C134.1 375.821 135.167 374.755 136.532 374.008C137.898 373.261 139.466 372.888 141.236 372.888C142.964 372.888 144.5 373.251 145.844 373.976C147.188 374.701 148.234 375.736 148.98 377.08C149.748 378.424 150.132 379.992 150.132 381.784ZM144.532 380.344C144.532 379.405 144.212 378.659 143.572 378.104C142.932 377.549 142.132 377.272 141.172 377.272C140.255 377.272 139.476 377.539 138.836 378.072C138.218 378.605 137.834 379.363 137.684 380.344H144.532ZM150.971 382.072C150.971 380.216 151.344 378.595 152.091 377.208C152.859 375.821 153.915 374.755 155.259 374.008C156.624 373.261 158.182 372.888 159.931 372.888C162.171 372.888 164.038 373.475 165.531 374.648C167.046 375.821 168.038 377.475 168.507 379.608H162.683C162.192 378.243 161.243 377.56 159.835 377.56C158.832 377.56 158.032 377.955 157.435 378.744C156.838 379.512 156.539 380.621 156.539 382.072C156.539 383.523 156.838 384.643 157.435 385.432C158.032 386.2 158.832 386.584 159.835 386.584C161.243 386.584 162.192 385.901 162.683 384.536H168.507C168.038 386.627 167.046 388.269 165.531 389.464C164.016 390.659 162.15 391.256 159.931 391.256C158.182 391.256 156.624 390.883 155.259 390.136C153.915 389.389 152.859 388.323 152.091 386.936C151.344 385.549 150.971 383.928 150.971 382.072ZM187.306 381.784C187.306 382.296 187.274 382.829 187.21 383.384H174.826C174.911 384.493 175.263 385.347 175.882 385.944C176.522 386.52 177.301 386.808 178.218 386.808C179.583 386.808 180.533 386.232 181.066 385.08H186.89C186.591 386.253 186.047 387.309 185.258 388.248C184.49 389.187 183.519 389.923 182.346 390.456C181.173 390.989 179.861 391.256 178.41 391.256C176.661 391.256 175.103 390.883 173.738 390.136C172.373 389.389 171.306 388.323 170.538 386.936C169.77 385.549 169.386 383.928 169.386 382.072C169.386 380.216 169.759 378.595 170.506 377.208C171.274 375.821 172.341 374.755 173.706 374.008C175.071 373.261 176.639 372.888 178.41 372.888C180.138 372.888 181.674 373.251 183.018 373.976C184.362 374.701 185.407 375.736 186.154 377.08C186.922 378.424 187.306 379.992 187.306 381.784ZM181.706 380.344C181.706 379.405 181.386 378.659 180.746 378.104C180.106 377.549 179.306 377.272 178.346 377.272C177.429 377.272 176.65 377.539 176.01 378.072C175.391 378.605 175.007 379.363 174.858 380.344H181.706ZM188.145 382.04C188.145 380.205 188.486 378.595 189.169 377.208C189.873 375.821 190.822 374.755 192.017 374.008C193.211 373.261 194.545 372.888 196.017 372.888C197.19 372.888 198.257 373.133 199.217 373.624C200.198 374.115 200.966 374.776 201.521 375.608V367.32H206.993V391H201.521V388.44C201.009 389.293 200.273 389.976 199.313 390.488C198.374 391 197.275 391.256 196.017 391.256C194.545 391.256 193.211 390.883 192.017 390.136C190.822 389.368 189.873 388.291 189.169 386.904C188.486 385.496 188.145 383.875 188.145 382.04ZM201.521 382.072C201.521 380.707 201.137 379.629 200.369 378.84C199.622 378.051 198.705 377.656 197.617 377.656C196.529 377.656 195.601 378.051 194.833 378.84C194.086 379.608 193.713 380.675 193.713 382.04C193.713 383.405 194.086 384.493 194.833 385.304C195.601 386.093 196.529 386.488 197.617 386.488C198.705 386.488 199.622 386.093 200.369 385.304C201.137 384.515 201.521 383.437 201.521 382.072ZM218.12 391.256C216.37 391.256 214.792 390.883 213.384 390.136C211.997 389.389 210.898 388.323 210.088 386.936C209.298 385.549 208.904 383.928 208.904 382.072C208.904 380.237 209.309 378.627 210.12 377.24C210.93 375.832 212.04 374.755 213.448 374.008C214.856 373.261 216.434 372.888 218.184 372.888C219.933 372.888 221.512 373.261 222.92 374.008C224.328 374.755 225.437 375.832 226.248 377.24C227.058 378.627 227.464 380.237 227.464 382.072C227.464 383.907 227.048 385.528 226.216 386.936C225.405 388.323 224.285 389.389 222.856 390.136C221.448 390.883 219.869 391.256 218.12 391.256ZM218.12 386.52C219.165 386.52 220.05 386.136 220.776 385.368C221.522 384.6 221.896 383.501 221.896 382.072C221.896 380.643 221.533 379.544 220.808 378.776C220.104 378.008 219.229 377.624 218.184 377.624C217.117 377.624 216.232 378.008 215.528 378.776C214.824 379.523 214.472 380.621 214.472 382.072C214.472 383.501 214.813 384.6 215.496 385.368C216.2 386.136 217.074 386.52 218.12 386.52ZM234.879 376.12C235.519 375.139 236.319 374.371 237.279 373.816C238.239 373.24 239.305 372.952 240.479 372.952V378.744H238.975C237.609 378.744 236.585 379.043 235.903 379.64C235.22 380.216 234.879 381.24 234.879 382.712V391H229.407V373.144H234.879V376.12ZM248.022 385.944L244.47 395.128H240.982L242.838 385.944H248.022Z" fill="white"/>
<path d="M75.456 430.92V435.464H82.784V439.688H75.456V444.616H83.744V449H69.984V426.536H83.744V430.92H75.456ZM80.448 422.024L72.736 425.256V421.48L80.448 417.768V422.024ZM97.6298 434.12C98.2698 433.139 99.0698 432.371 100.03 431.816C100.99 431.24 102.056 430.952 103.23 430.952V436.744H101.726C100.36 436.744 99.3364 437.043 98.6538 437.64C97.9711 438.216 97.6298 439.24 97.6298 440.712V449H92.1578V431.144H97.6298V434.12ZM103.797 440.04C103.797 438.205 104.139 436.595 104.821 435.208C105.525 433.821 106.475 432.755 107.669 432.008C108.864 431.261 110.197 430.888 111.669 430.888C112.928 430.888 114.027 431.144 114.965 431.656C115.925 432.168 116.661 432.84 117.173 433.672V431.144H122.645V449H117.173V446.472C116.64 447.304 115.893 447.976 114.933 448.488C113.995 449 112.896 449.256 111.637 449.256C110.187 449.256 108.864 448.883 107.669 448.136C106.475 447.368 105.525 446.291 104.821 444.904C104.139 443.496 103.797 441.875 103.797 440.04ZM117.173 440.072C117.173 438.707 116.789 437.629 116.021 436.84C115.275 436.051 114.357 435.656 113.269 435.656C112.181 435.656 111.253 436.051 110.485 436.84C109.739 437.608 109.365 438.675 109.365 440.04C109.365 441.405 109.739 442.493 110.485 443.304C111.253 444.093 112.181 444.488 113.269 444.488C114.357 444.488 115.275 444.093 116.021 443.304C116.789 442.515 117.173 441.437 117.173 440.072ZM117.589 426.696L109.877 429.928V426.152L117.589 422.44V426.696ZM131.116 433.672C131.649 432.84 132.385 432.168 133.324 431.656C134.263 431.144 135.361 430.888 136.62 430.888C138.092 430.888 139.425 431.261 140.62 432.008C141.815 432.755 142.753 433.821 143.436 435.208C144.14 436.595 144.492 438.205 144.492 440.04C144.492 441.875 144.14 443.496 143.436 444.904C142.753 446.291 141.815 447.368 140.62 448.136C139.425 448.883 138.092 449.256 136.62 449.256C135.383 449.256 134.284 449 133.324 448.488C132.385 447.976 131.649 447.315 131.116 446.504V457.512H125.644V431.144H131.116V433.672ZM138.924 440.04C138.924 438.675 138.54 437.608 137.772 436.84C137.025 436.051 136.097 435.656 134.988 435.656C133.9 435.656 132.972 436.051 132.204 436.84C131.457 437.629 131.084 438.707 131.084 440.072C131.084 441.437 131.457 442.515 132.204 443.304C132.972 444.093 133.9 444.488 134.988 444.488C136.076 444.488 137.004 444.093 137.772 443.304C138.54 442.493 138.924 441.405 138.924 440.04ZM149.155 429.288C148.195 429.288 147.405 429.011 146.787 428.456C146.189 427.88 145.891 427.176 145.891 426.344C145.891 425.491 146.189 424.787 146.787 424.232C147.405 423.656 148.195 423.368 149.155 423.368C150.093 423.368 150.861 423.656 151.459 424.232C152.077 424.787 152.387 425.491 152.387 426.344C152.387 427.176 152.077 427.88 151.459 428.456C150.861 429.011 150.093 429.288 149.155 429.288ZM151.875 431.144V449H146.403V431.144H151.875ZM153.792 440.04C153.792 438.205 154.134 436.595 154.816 435.208C155.52 433.821 156.47 432.755 157.664 432.008C158.859 431.261 160.192 430.888 161.664 430.888C162.838 430.888 163.904 431.133 164.864 431.624C165.846 432.115 166.614 432.776 167.168 433.608V425.32H172.64V449H167.168V446.44C166.656 447.293 165.92 447.976 164.96 448.488C164.022 449 162.923 449.256 161.664 449.256C160.192 449.256 158.859 448.883 157.664 448.136C156.47 447.368 155.52 446.291 154.816 444.904C154.134 443.496 153.792 441.875 153.792 440.04ZM167.168 440.072C167.168 438.707 166.784 437.629 166.016 436.84C165.27 436.051 164.352 435.656 163.264 435.656C162.176 435.656 161.248 436.051 160.48 436.84C159.734 437.608 159.36 438.675 159.36 440.04C159.36 441.405 159.734 442.493 160.48 443.304C161.248 444.093 162.176 444.488 163.264 444.488C164.352 444.488 165.27 444.093 166.016 443.304C166.784 442.515 167.168 441.437 167.168 440.072ZM183.767 449.256C182.018 449.256 180.439 448.883 179.031 448.136C177.644 447.389 176.546 446.323 175.735 444.936C174.946 443.549 174.551 441.928 174.551 440.072C174.551 438.237 174.956 436.627 175.767 435.24C176.578 433.832 177.687 432.755 179.095 432.008C180.503 431.261 182.082 430.888 183.831 430.888C185.58 430.888 187.159 431.261 188.567 432.008C189.975 432.755 191.084 433.832 191.895 435.24C192.706 436.627 193.111 438.237 193.111 440.072C193.111 441.907 192.695 443.528 191.863 444.936C191.052 446.323 189.932 447.389 188.503 448.136C187.095 448.883 185.516 449.256 183.767 449.256ZM183.767 444.52C184.812 444.52 185.698 444.136 186.423 443.368C187.17 442.6 187.543 441.501 187.543 440.072C187.543 438.643 187.18 437.544 186.455 436.776C185.751 436.008 184.876 435.624 183.831 435.624C182.764 435.624 181.879 436.008 181.175 436.776C180.471 437.523 180.119 438.621 180.119 440.072C180.119 441.501 180.46 442.6 181.143 443.368C181.847 444.136 182.722 444.52 183.767 444.52ZM200.942 443.944L197.39 453.128H193.902L195.758 443.944H200.942ZM214.575 433.672C215.108 432.84 215.844 432.168 216.783 431.656C217.721 431.144 218.82 430.888 220.079 430.888C221.551 430.888 222.884 431.261 224.079 432.008C225.273 432.755 226.212 433.821 226.895 435.208C227.599 436.595 227.951 438.205 227.951 440.04C227.951 441.875 227.599 443.496 226.895 444.904C226.212 446.291 225.273 447.368 224.079 448.136C222.884 448.883 221.551 449.256 220.079 449.256C218.841 449.256 217.743 449 216.783 448.488C215.844 447.976 215.108 447.315 214.575 446.504V457.512H209.103V431.144H214.575V433.672ZM222.383 440.04C222.383 438.675 221.999 437.608 221.231 436.84C220.484 436.051 219.556 435.656 218.447 435.656C217.359 435.656 216.431 436.051 215.663 436.84C214.916 437.629 214.543 438.707 214.543 440.072C214.543 441.437 214.916 442.515 215.663 443.304C216.431 444.093 217.359 444.488 218.447 444.488C219.535 444.488 220.463 444.093 221.231 443.304C221.999 442.493 222.383 441.405 222.383 440.04ZM235.334 434.12C235.974 433.139 236.774 432.371 237.734 431.816C238.694 431.24 239.76 430.952 240.934 430.952V436.744H239.43C238.064 436.744 237.04 437.043 236.358 437.64C235.675 438.216 235.334 439.24 235.334 440.712V449H229.862V431.144H235.334V434.12ZM241.501 440.04C241.501 438.205 241.842 436.595 242.525 435.208C243.229 433.821 244.178 432.755 245.373 432.008C246.568 431.261 247.901 430.888 249.373 430.888C250.632 430.888 251.73 431.144 252.669 431.656C253.629 432.168 254.365 432.84 254.877 433.672V431.144H260.349V449H254.877V446.472C254.344 447.304 253.597 447.976 252.637 448.488C251.698 449 250.6 449.256 249.341 449.256C247.89 449.256 246.568 448.883 245.373 448.136C244.178 447.368 243.229 446.291 242.525 444.904C241.842 443.496 241.501 441.875 241.501 440.04ZM254.877 440.072C254.877 438.707 254.493 437.629 253.725 436.84C252.978 436.051 252.061 435.656 250.973 435.656C249.885 435.656 248.957 436.051 248.189 436.84C247.442 437.608 247.069 438.675 247.069 440.04C247.069 441.405 247.442 442.493 248.189 443.304C248.957 444.093 249.885 444.488 250.973 444.488C252.061 444.488 252.978 444.093 253.725 443.304C254.493 442.515 254.877 441.437 254.877 440.072ZM255.293 426.696L247.581 429.928V426.152L255.293 422.44V426.696ZM273.3 444.36V449H270.516C268.532 449 266.985 448.52 265.876 447.56C264.766 446.579 264.212 444.989 264.212 442.792V435.688H262.036V431.144H264.212V426.792H269.684V431.144H273.268V435.688H269.684V442.856C269.684 443.389 269.812 443.773 270.068 444.008C270.324 444.243 270.75 444.36 271.348 444.36H273.3ZM278.14 429.288C277.18 429.288 276.39 429.011 275.772 428.456C275.174 427.88 274.876 427.176 274.876 426.344C274.876 425.491 275.174 424.787 275.772 424.232C276.39 423.656 277.18 423.368 278.14 423.368C279.078 423.368 279.846 423.656 280.444 424.232C281.062 424.787 281.372 425.491 281.372 426.344C281.372 427.176 281.062 427.88 280.444 428.456C279.846 429.011 279.078 429.288 278.14 429.288ZM280.86 431.144V449H275.388V431.144H280.86ZM282.777 440.072C282.777 438.216 283.151 436.595 283.897 435.208C284.665 433.821 285.721 432.755 287.065 432.008C288.431 431.261 289.988 430.888 291.737 430.888C293.977 430.888 295.844 431.475 297.337 432.648C298.852 433.821 299.844 435.475 300.313 437.608H294.489C293.999 436.243 293.049 435.56 291.641 435.56C290.639 435.56 289.839 435.955 289.241 436.744C288.644 437.512 288.345 438.621 288.345 440.072C288.345 441.523 288.644 442.643 289.241 443.432C289.839 444.2 290.639 444.584 291.641 444.584C293.049 444.584 293.999 443.901 294.489 442.536H300.313C299.844 444.627 298.852 446.269 297.337 447.464C295.823 448.659 293.956 449.256 291.737 449.256C289.988 449.256 288.431 448.883 287.065 448.136C285.721 447.389 284.665 446.323 283.897 444.936C283.151 443.549 282.777 441.928 282.777 440.072ZM310.408 449.256C308.659 449.256 307.08 448.883 305.672 448.136C304.286 447.389 303.187 446.323 302.376 444.936C301.587 443.549 301.192 441.928 301.192 440.072C301.192 438.237 301.598 436.627 302.408 435.24C303.219 433.832 304.328 432.755 305.736 432.008C307.144 431.261 308.723 430.888 310.472 430.888C312.222 430.888 313.8 431.261 315.208 432.008C316.616 432.755 317.726 433.832 318.536 435.24C319.347 436.627 319.752 438.237 319.752 440.072C319.752 441.907 319.336 443.528 318.504 444.936C317.694 446.323 316.574 447.389 315.144 448.136C313.736 448.883 312.158 449.256 310.408 449.256ZM310.408 444.52C311.454 444.52 312.339 444.136 313.064 443.368C313.811 442.6 314.184 441.501 314.184 440.072C314.184 438.643 313.822 437.544 313.096 436.776C312.392 436.008 311.518 435.624 310.472 435.624C309.406 435.624 308.52 436.008 307.816 436.776C307.112 437.523 306.76 438.621 306.76 440.072C306.76 441.501 307.102 442.6 307.784 443.368C308.488 444.136 309.363 444.52 310.408 444.52ZM86.816 482.784C86.816 483.296 86.784 483.829 86.72 484.384H74.336C74.4213 485.493 74.7733 486.347 75.392 486.944C76.032 487.52 76.8107 487.808 77.728 487.808C79.0933 487.808 80.0427 487.232 80.576 486.08H86.4C86.1013 487.253 85.5573 488.309 84.768 489.248C84 490.187 83.0293 490.923 81.856 491.456C80.6827 491.989 79.3707 492.256 77.92 492.256C76.1707 492.256 74.6133 491.883 73.248 491.136C71.8827 490.389 70.816 489.323 70.048 487.936C69.28 486.549 68.896 484.928 68.896 483.072C68.896 481.216 69.2693 479.595 70.016 478.208C70.784 476.821 71.8507 475.755 73.216 475.008C74.5813 474.261 76.1493 473.888 77.92 473.888C79.648 473.888 81.184 474.251 82.528 474.976C83.872 475.701 84.9173 476.736 85.664 478.08C86.432 479.424 86.816 480.992 86.816 482.784ZM81.216 481.344C81.216 480.405 80.896 479.659 80.256 479.104C79.616 478.549 78.816 478.272 77.856 478.272C76.9387 478.272 76.16 478.539 75.52 479.072C74.9013 479.605 74.5173 480.363 74.368 481.344H81.216ZM101.828 492.256C100.271 492.256 98.884 491.989 97.668 491.456C96.452 490.923 95.492 490.197 94.788 489.28C94.084 488.341 93.6893 487.296 93.604 486.144H99.012C99.076 486.763 99.364 487.264 99.876 487.648C100.388 488.032 101.017 488.224 101.764 488.224C102.447 488.224 102.969 488.096 103.332 487.84C103.716 487.563 103.908 487.211 103.908 486.784C103.908 486.272 103.641 485.899 103.108 485.664C102.575 485.408 101.711 485.131 100.516 484.832C99.236 484.533 98.1693 484.224 97.316 483.904C96.4627 483.563 95.7267 483.04 95.108 482.336C94.4893 481.611 94.18 480.64 94.18 479.424C94.18 478.4 94.4573 477.472 95.012 476.64C95.588 475.787 96.42 475.115 97.508 474.624C98.6173 474.133 99.9293 473.888 101.444 473.888C103.684 473.888 105.444 474.443 106.724 475.552C108.025 476.661 108.772 478.133 108.964 479.968H103.908C103.823 479.349 103.545 478.859 103.076 478.496C102.628 478.133 102.031 477.952 101.284 477.952C100.644 477.952 100.153 478.08 99.812 478.336C99.4707 478.571 99.3 478.901 99.3 479.328C99.3 479.84 99.5667 480.224 100.1 480.48C100.655 480.736 101.508 480.992 102.66 481.248C103.983 481.589 105.06 481.931 105.892 482.272C106.724 482.592 107.449 483.125 108.068 483.872C108.708 484.597 109.039 485.579 109.06 486.816C109.06 487.861 108.761 488.8 108.164 489.632C107.588 490.443 106.745 491.083 105.636 491.552C104.548 492.021 103.279 492.256 101.828 492.256ZM128.28 482.784C128.28 483.296 128.248 483.829 128.184 484.384H115.8C115.885 485.493 116.237 486.347 116.856 486.944C117.496 487.52 118.274 487.808 119.192 487.808C120.557 487.808 121.506 487.232 122.04 486.08H127.864C127.565 487.253 127.021 488.309 126.232 489.248C125.464 490.187 124.493 490.923 123.32 491.456C122.146 491.989 120.834 492.256 119.384 492.256C117.634 492.256 116.077 491.883 114.712 491.136C113.346 490.389 112.28 489.323 111.512 487.936C110.744 486.549 110.36 484.928 110.36 483.072C110.36 481.216 110.733 479.595 111.48 478.208C112.248 476.821 113.314 475.755 114.68 475.008C116.045 474.261 117.613 473.888 119.384 473.888C121.112 473.888 122.648 474.251 123.992 474.976C125.336 475.701 126.381 476.736 127.128 478.08C127.896 479.424 128.28 480.992 128.28 482.784ZM122.68 481.344C122.68 480.405 122.36 479.659 121.72 479.104C121.08 478.549 120.28 478.272 119.32 478.272C118.402 478.272 117.624 478.539 116.984 479.072C116.365 479.605 115.981 480.363 115.832 481.344H122.68ZM136.991 473.888C138.249 473.888 139.348 474.144 140.286 474.656C141.247 475.168 141.983 475.84 142.495 476.672V474.144H147.967V491.968C147.967 493.611 147.636 495.093 146.975 496.416C146.335 497.76 145.343 498.827 143.999 499.616C142.676 500.405 141.023 500.8 139.039 500.8C136.393 500.8 134.249 500.171 132.607 498.912C130.964 497.675 130.025 495.989 129.79 493.856H135.199C135.369 494.539 135.775 495.072 136.415 495.456C137.055 495.861 137.844 496.064 138.783 496.064C139.913 496.064 140.809 495.733 141.471 495.072C142.153 494.432 142.495 493.397 142.495 491.968V489.44C141.961 490.272 141.225 490.955 140.286 491.488C139.348 492 138.249 492.256 136.991 492.256C135.519 492.256 134.185 491.883 132.99 491.136C131.796 490.368 130.846 489.291 130.142 487.904C129.46 486.496 129.118 484.875 129.118 483.04C129.118 481.205 129.46 479.595 130.142 478.208C130.846 476.821 131.796 475.755 132.99 475.008C134.185 474.261 135.519 473.888 136.991 473.888ZM142.495 483.072C142.495 481.707 142.111 480.629 141.343 479.84C140.596 479.051 139.679 478.656 138.59 478.656C137.502 478.656 136.575 479.051 135.807 479.84C135.06 480.608 134.687 481.675 134.687 483.04C134.687 484.405 135.06 485.493 135.807 486.304C136.575 487.093 137.502 487.488 138.59 487.488C139.679 487.488 140.596 487.093 141.343 486.304C142.111 485.515 142.495 484.437 142.495 483.072ZM168.597 474.144V492H163.125V489.568C162.571 490.357 161.813 490.997 160.853 491.488C159.915 491.957 158.869 492.192 157.717 492.192C156.352 492.192 155.147 491.893 154.101 491.296C153.056 490.677 152.245 489.792 151.669 488.64C151.093 487.488 150.805 486.133 150.805 484.576V474.144H156.245V483.84C156.245 485.035 156.555 485.963 157.173 486.624C157.792 487.285 158.624 487.616 159.669 487.616C160.736 487.616 161.579 487.285 162.197 486.624C162.816 485.963 163.125 485.035 163.125 483.84V474.144H168.597ZM177.04 477.12C177.68 476.139 178.48 475.371 179.44 474.816C180.4 474.24 181.466 473.952 182.64 473.952V479.744H181.136C179.77 479.744 178.746 480.043 178.064 480.64C177.381 481.216 177.04 482.24 177.04 483.712V492H171.568V474.144H177.04V477.12ZM192.423 492.256C190.674 492.256 189.095 491.883 187.687 491.136C186.301 490.389 185.202 489.323 184.391 487.936C183.602 486.549 183.207 484.928 183.207 483.072C183.207 481.237 183.613 479.627 184.423 478.24C185.234 476.832 186.343 475.755 187.751 475.008C189.159 474.261 190.738 473.888 192.487 473.888C194.237 473.888 195.815 474.261 197.223 475.008C198.631 475.755 199.741 476.832 200.551 478.24C201.362 479.627 201.767 481.237 201.767 483.072C201.767 484.907 201.351 486.528 200.519 487.936C199.709 489.323 198.589 490.389 197.159 491.136C195.751 491.883 194.173 492.256 192.423 492.256ZM192.423 487.52C193.469 487.52 194.354 487.136 195.079 486.368C195.826 485.6 196.199 484.501 196.199 483.072C196.199 481.643 195.837 480.544 195.111 479.776C194.407 479.008 193.533 478.624 192.487 478.624C191.421 478.624 190.535 479.008 189.831 479.776C189.127 480.523 188.775 481.621 188.775 483.072C188.775 484.501 189.117 485.6 189.799 486.368C190.503 487.136 191.378 487.52 192.423 487.52ZM210.91 468.736L210.27 484.064H205.63L204.99 468.736H210.91ZM208.03 492.256C207.07 492.256 206.281 491.979 205.662 491.424C205.065 490.848 204.766 490.144 204.766 489.312C204.766 488.459 205.065 487.744 205.662 487.168C206.281 486.592 207.07 486.304 208.03 486.304C208.969 486.304 209.737 486.592 210.334 487.168C210.953 487.744 211.262 488.459 211.262 489.312C211.262 490.144 210.953 490.848 210.334 491.424C209.737 491.979 208.969 492.256 208.03 492.256Z" fill="#13293D"/>
</svg>
