<svg width="393" height="890" viewBox="0 0 393 890" fill="none" xmlns="http://www.w3.org/2000/svg">
<path d="M0 44C0 19.6995 19.6995 0 44 0H393V890H44C19.6995 890 0 870.301 0 846V44Z" fill="#003B33"/>
<path d="M83.968 373.032H75.584L74.24 377H68.512L76.64 354.536H82.976L91.104 377H85.312L83.968 373.032ZM82.56 368.808L79.776 360.584L77.024 368.808H82.56ZM102.57 372.36V377H99.7858C97.8018 377 96.2551 376.52 95.1458 375.56C94.0364 374.579 93.4818 372.989 93.4818 370.792V363.688H91.3058V359.144H93.4818V354.792H98.9538V359.144H102.538V363.688H98.9538V370.856C98.9538 371.389 99.0818 371.773 99.3378 372.008C99.5938 372.243 100.02 372.36 100.618 372.36H102.57ZM122.29 359.144V377H116.818V374.568C116.263 375.357 115.506 375.997 114.546 376.488C113.607 376.957 112.562 377.192 111.41 377.192C110.044 377.192 108.839 376.893 107.794 376.296C106.748 375.677 105.938 374.792 105.362 373.64C104.786 372.488 104.498 371.133 104.498 369.576V359.144H109.938V368.84C109.938 370.035 110.247 370.963 110.866 371.624C111.484 372.285 112.316 372.616 113.362 372.616C114.428 372.616 115.271 372.285 115.89 371.624C116.508 370.963 116.818 370.035 116.818 368.84V359.144H122.29ZM124.172 368.04C124.172 366.205 124.514 364.595 125.196 363.208C125.9 361.821 126.85 360.755 128.044 360.008C129.239 359.261 130.572 358.888 132.044 358.888C133.303 358.888 134.402 359.144 135.34 359.656C136.3 360.168 137.036 360.84 137.548 361.672V359.144H143.02V377H137.548V374.472C137.015 375.304 136.268 375.976 135.308 376.488C134.37 377 133.271 377.256 132.012 377.256C130.562 377.256 129.239 376.883 128.044 376.136C126.85 375.368 125.9 374.291 125.196 372.904C124.514 371.496 124.172 369.875 124.172 368.04ZM137.548 368.072C137.548 366.707 137.164 365.629 136.396 364.84C135.65 364.051 134.732 363.656 133.644 363.656C132.556 363.656 131.628 364.051 130.86 364.84C130.114 365.608 129.74 366.675 129.74 368.04C129.74 369.405 130.114 370.493 130.86 371.304C131.628 372.093 132.556 372.488 133.644 372.488C134.732 372.488 135.65 372.093 136.396 371.304C137.164 370.515 137.548 369.437 137.548 368.072ZM151.491 353.32V377H146.019V353.32H151.491ZM157.248 357.288C156.288 357.288 155.499 357.011 154.88 356.456C154.283 355.88 153.984 355.176 153.984 354.344C153.984 353.491 154.283 352.787 154.88 352.232C155.499 351.656 156.288 351.368 157.248 351.368C158.187 351.368 158.955 351.656 159.552 352.232C160.171 352.787 160.48 353.491 160.48 354.344C160.48 355.176 160.171 355.88 159.552 356.456C158.955 357.011 158.187 357.288 157.248 357.288ZM159.968 359.144V377H154.496V359.144H159.968ZM168.094 372.488H175.838V377H161.982V372.648L169.406 363.656H162.046V359.144H175.678V363.496L168.094 372.488ZM194.721 367.784C194.721 368.296 194.689 368.829 194.625 369.384H182.241C182.326 370.493 182.678 371.347 183.297 371.944C183.937 372.52 184.716 372.808 185.633 372.808C186.998 372.808 187.948 372.232 188.481 371.08H194.305C194.006 372.253 193.462 373.309 192.673 374.248C191.905 375.187 190.934 375.923 189.761 376.456C188.588 376.989 187.276 377.256 185.825 377.256C184.076 377.256 182.518 376.883 181.153 376.136C179.788 375.389 178.721 374.323 177.953 372.936C177.185 371.549 176.801 369.928 176.801 368.072C176.801 366.216 177.174 364.595 177.921 363.208C178.689 361.821 179.756 360.755 181.121 360.008C182.486 359.261 184.054 358.888 185.825 358.888C187.553 358.888 189.089 359.251 190.433 359.976C191.777 360.701 192.822 361.736 193.569 363.08C194.337 364.424 194.721 365.992 194.721 367.784ZM189.121 366.344C189.121 365.405 188.801 364.659 188.161 364.104C187.521 363.549 186.721 363.272 185.761 363.272C184.844 363.272 184.065 363.539 183.425 364.072C182.806 364.605 182.422 365.363 182.273 366.344H189.121ZM209.733 377.256C208.176 377.256 206.789 376.989 205.573 376.456C204.357 375.923 203.397 375.197 202.693 374.28C201.989 373.341 201.594 372.296 201.509 371.144H206.917C206.981 371.763 207.269 372.264 207.781 372.648C208.293 373.032 208.922 373.224 209.669 373.224C210.352 373.224 210.874 373.096 211.237 372.84C211.621 372.563 211.813 372.211 211.813 371.784C211.813 371.272 211.546 370.899 211.013 370.664C210.48 370.408 209.616 370.131 208.421 369.832C207.141 369.533 206.074 369.224 205.221 368.904C204.368 368.563 203.632 368.04 203.013 367.336C202.394 366.611 202.085 365.64 202.085 364.424C202.085 363.4 202.362 362.472 202.917 361.64C203.493 360.787 204.325 360.115 205.413 359.624C206.522 359.133 207.834 358.888 209.349 358.888C211.589 358.888 213.349 359.443 214.629 360.552C215.93 361.661 216.677 363.133 216.869 364.968H211.813C211.728 364.349 211.45 363.859 210.981 363.496C210.533 363.133 209.936 362.952 209.189 362.952C208.549 362.952 208.058 363.08 207.717 363.336C207.376 363.571 207.205 363.901 207.205 364.328C207.205 364.84 207.472 365.224 208.005 365.48C208.56 365.736 209.413 365.992 210.565 366.248C211.888 366.589 212.965 366.931 213.797 367.272C214.629 367.592 215.354 368.125 215.973 368.872C216.613 369.597 216.944 370.579 216.965 371.816C216.965 372.861 216.666 373.8 216.069 374.632C215.493 375.443 214.65 376.083 213.541 376.552C212.453 377.021 211.184 377.256 209.733 377.256ZM236.185 367.784C236.185 368.296 236.153 368.829 236.089 369.384H223.705C223.79 370.493 224.142 371.347 224.761 371.944C225.401 372.52 226.179 372.808 227.097 372.808C228.462 372.808 229.411 372.232 229.945 371.08H235.769C235.47 372.253 234.926 373.309 234.137 374.248C233.369 375.187 232.398 375.923 231.225 376.456C230.051 376.989 228.739 377.256 227.289 377.256C225.539 377.256 223.982 376.883 222.617 376.136C221.251 375.389 220.185 374.323 219.417 372.936C218.649 371.549 218.265 369.928 218.265 368.072C218.265 366.216 218.638 364.595 219.385 363.208C220.153 361.821 221.219 360.755 222.585 360.008C223.95 359.261 225.518 358.888 227.289 358.888C229.017 358.888 230.553 359.251 231.897 359.976C233.241 360.701 234.286 361.736 235.033 363.08C235.801 364.424 236.185 365.992 236.185 367.784ZM230.585 366.344C230.585 365.405 230.265 364.659 229.625 364.104C228.985 363.549 228.185 363.272 227.225 363.272C226.307 363.272 225.529 363.539 224.889 364.072C224.27 364.605 223.886 365.363 223.737 366.344H230.585ZM255.744 359.144V377H250.272V374.568C249.717 375.357 248.96 375.997 248 376.488C247.061 376.957 246.016 377.192 244.864 377.192C243.498 377.192 242.293 376.893 241.248 376.296C240.202 375.677 239.392 374.792 238.816 373.64C238.24 372.488 237.952 371.133 237.952 369.576V359.144H243.392V368.84C243.392 370.035 243.701 370.963 244.32 371.624C244.938 372.285 245.77 372.616 246.816 372.616C247.882 372.616 248.725 372.285 249.344 371.624C249.962 370.963 250.272 370.035 250.272 368.84V359.144H255.744ZM265.978 377.256C264.421 377.256 263.034 376.989 261.818 376.456C260.602 375.923 259.642 375.197 258.938 374.28C258.234 373.341 257.839 372.296 257.754 371.144H263.162C263.226 371.763 263.514 372.264 264.026 372.648C264.538 373.032 265.167 373.224 265.914 373.224C266.597 373.224 267.119 373.096 267.482 372.84C267.866 372.563 268.058 372.211 268.058 371.784C268.058 371.272 267.791 370.899 267.258 370.664C266.725 370.408 265.861 370.131 264.666 369.832C263.386 369.533 262.319 369.224 261.466 368.904C260.613 368.563 259.877 368.04 259.258 367.336C258.639 366.611 258.33 365.64 258.33 364.424C258.33 363.4 258.607 362.472 259.162 361.64C259.738 360.787 260.57 360.115 261.658 359.624C262.767 359.133 264.079 358.888 265.594 358.888C267.834 358.888 269.594 359.443 270.874 360.552C272.175 361.661 272.922 363.133 273.114 364.968H268.058C267.973 364.349 267.695 363.859 267.226 363.496C266.778 363.133 266.181 362.952 265.434 362.952C264.794 362.952 264.303 363.08 263.962 363.336C263.621 363.571 263.45 363.901 263.45 364.328C263.45 364.84 263.717 365.224 264.25 365.48C264.805 365.736 265.658 365.992 266.81 366.248C268.133 366.589 269.21 366.931 270.042 367.272C270.874 367.592 271.599 368.125 272.218 368.872C272.858 369.597 273.189 370.579 273.21 371.816C273.21 372.861 272.911 373.8 272.314 374.632C271.738 375.443 270.895 376.083 269.786 376.552C268.698 377.021 267.429 377.256 265.978 377.256ZM68.896 411.04C68.896 409.205 69.2373 407.595 69.92 406.208C70.624 404.821 71.5733 403.755 72.768 403.008C73.9627 402.261 75.296 401.888 76.768 401.888C77.9413 401.888 79.008 402.133 79.968 402.624C80.9493 403.115 81.7173 403.776 82.272 404.608V396.32H87.744V420H82.272V417.44C81.76 418.293 81.024 418.976 80.064 419.488C79.1253 420 78.0267 420.256 76.768 420.256C75.296 420.256 73.9627 419.883 72.768 419.136C71.5733 418.368 70.624 417.291 69.92 415.904C69.2373 414.496 68.896 412.875 68.896 411.04ZM82.272 411.072C82.272 409.707 81.888 408.629 81.12 407.84C80.3733 407.051 79.456 406.656 78.368 406.656C77.28 406.656 76.352 407.051 75.584 407.84C74.8373 408.608 74.464 409.675 74.464 411.04C74.464 412.405 74.8373 413.493 75.584 414.304C76.352 415.093 77.28 415.488 78.368 415.488C79.456 415.488 80.3733 415.093 81.12 414.304C81.888 413.515 82.272 412.437 82.272 411.072ZM89.6548 411.04C89.6548 409.205 89.9961 407.595 90.6788 406.208C91.3828 404.821 92.3321 403.755 93.5268 403.008C94.7214 402.261 96.0548 401.888 97.5268 401.888C98.7854 401.888 99.8841 402.144 100.823 402.656C101.783 403.168 102.519 403.84 103.031 404.672V402.144H108.503V420H103.031V417.472C102.497 418.304 101.751 418.976 100.791 419.488C99.8521 420 98.7534 420.256 97.4948 420.256C96.0441 420.256 94.7214 419.883 93.5268 419.136C92.3321 418.368 91.3828 417.291 90.6788 415.904C89.9961 414.496 89.6548 412.875 89.6548 411.04ZM103.031 411.072C103.031 409.707 102.647 408.629 101.879 407.84C101.132 407.051 100.215 406.656 99.1268 406.656C98.0388 406.656 97.1108 407.051 96.3428 407.84C95.5961 408.608 95.2228 409.675 95.2228 411.04C95.2228 412.405 95.5961 413.493 96.3428 414.304C97.1108 415.093 98.0388 415.488 99.1268 415.488C100.215 415.488 101.132 415.093 101.879 414.304C102.647 413.515 103.031 412.437 103.031 411.072ZM110.414 411.04C110.414 409.205 110.755 407.595 111.438 406.208C112.142 404.821 113.091 403.755 114.286 403.008C115.48 402.261 116.814 401.888 118.286 401.888C119.459 401.888 120.526 402.133 121.486 402.624C122.467 403.115 123.235 403.776 123.79 404.608V396.32H129.262V420H123.79V417.44C123.278 418.293 122.542 418.976 121.582 419.488C120.643 420 119.544 420.256 118.286 420.256C116.814 420.256 115.48 419.883 114.286 419.136C113.091 418.368 112.142 417.291 111.438 415.904C110.755 414.496 110.414 412.875 110.414 411.04ZM123.79 411.072C123.79 409.707 123.406 408.629 122.638 407.84C121.891 407.051 120.974 406.656 119.886 406.656C118.798 406.656 117.87 407.051 117.102 407.84C116.355 408.608 115.982 409.675 115.982 411.04C115.982 412.405 116.355 413.493 117.102 414.304C117.87 415.093 118.798 415.488 119.886 415.488C120.974 415.488 121.891 415.093 122.638 414.304C123.406 413.515 123.79 412.437 123.79 411.072ZM140.388 420.256C138.639 420.256 137.06 419.883 135.652 419.136C134.266 418.389 133.167 417.323 132.356 415.936C131.567 414.549 131.172 412.928 131.172 411.072C131.172 409.237 131.578 407.627 132.388 406.24C133.199 404.832 134.308 403.755 135.716 403.008C137.124 402.261 138.703 401.888 140.452 401.888C142.202 401.888 143.78 402.261 145.188 403.008C146.596 403.755 147.706 404.832 148.516 406.24C149.327 407.627 149.732 409.237 149.732 411.072C149.732 412.907 149.316 414.528 148.484 415.936C147.674 417.323 146.554 418.389 145.124 419.136C143.716 419.883 142.138 420.256 140.388 420.256ZM140.388 415.52C141.434 415.52 142.319 415.136 143.044 414.368C143.791 413.6 144.164 412.501 144.164 411.072C144.164 409.643 143.802 408.544 143.076 407.776C142.372 407.008 141.498 406.624 140.452 406.624C139.386 406.624 138.5 407.008 137.796 407.776C137.092 408.523 136.74 409.621 136.74 411.072C136.74 412.501 137.082 413.6 137.764 414.368C138.468 415.136 139.343 415.52 140.388 415.52ZM158.939 420.256C157.382 420.256 155.995 419.989 154.779 419.456C153.563 418.923 152.603 418.197 151.899 417.28C151.195 416.341 150.801 415.296 150.715 414.144H156.123C156.187 414.763 156.475 415.264 156.987 415.648C157.499 416.032 158.129 416.224 158.875 416.224C159.558 416.224 160.081 416.096 160.443 415.84C160.827 415.563 161.019 415.211 161.019 414.784C161.019 414.272 160.753 413.899 160.219 413.664C159.686 413.408 158.822 413.131 157.627 412.832C156.347 412.533 155.281 412.224 154.427 411.904C153.574 411.563 152.838 411.04 152.219 410.336C151.601 409.611 151.291 408.64 151.291 407.424C151.291 406.4 151.569 405.472 152.123 404.64C152.699 403.787 153.531 403.115 154.619 402.624C155.729 402.133 157.041 401.888 158.555 401.888C160.795 401.888 162.555 402.443 163.835 403.552C165.137 404.661 165.883 406.133 166.075 407.968H161.019C160.934 407.349 160.657 406.859 160.187 406.496C159.739 406.133 159.142 405.952 158.395 405.952C157.755 405.952 157.265 406.08 156.923 406.336C156.582 406.571 156.411 406.901 156.411 407.328C156.411 407.84 156.678 408.224 157.211 408.48C157.766 408.736 158.619 408.992 159.771 409.248C161.094 409.589 162.171 409.931 163.003 410.272C163.835 410.592 164.561 411.125 165.179 411.872C165.819 412.597 166.15 413.579 166.171 414.816C166.171 415.861 165.873 416.8 165.275 417.632C164.699 418.443 163.857 419.083 162.747 419.552C161.659 420.021 160.39 420.256 158.939 420.256ZM181.644 420.256C180.087 420.256 178.7 419.989 177.484 419.456C176.268 418.923 175.308 418.197 174.604 417.28C173.9 416.341 173.506 415.296 173.42 414.144H178.828C178.892 414.763 179.18 415.264 179.692 415.648C180.204 416.032 180.834 416.224 181.58 416.224C182.263 416.224 182.786 416.096 183.148 415.84C183.532 415.563 183.724 415.211 183.724 414.784C183.724 414.272 183.458 413.899 182.924 413.664C182.391 413.408 181.527 413.131 180.332 412.832C179.052 412.533 177.986 412.224 177.132 411.904C176.279 411.563 175.543 411.04 174.924 410.336C174.306 409.611 173.996 408.64 173.996 407.424C173.996 406.4 174.274 405.472 174.828 404.64C175.404 403.787 176.236 403.115 177.324 402.624C178.434 402.133 179.746 401.888 181.26 401.888C183.5 401.888 185.26 402.443 186.54 403.552C187.842 404.661 188.588 406.133 188.78 407.968H183.724C183.639 407.349 183.362 406.859 182.892 406.496C182.444 406.133 181.847 405.952 181.1 405.952C180.46 405.952 179.97 406.08 179.628 406.336C179.287 406.571 179.116 406.901 179.116 407.328C179.116 407.84 179.383 408.224 179.916 408.48C180.471 408.736 181.324 408.992 182.476 409.248C183.799 409.589 184.876 409.931 185.708 410.272C186.54 410.592 187.266 411.125 187.884 411.872C188.524 412.597 188.855 413.579 188.876 414.816C188.876 415.861 188.578 416.8 187.98 417.632C187.404 418.443 186.562 419.083 185.452 419.552C184.364 420.021 183.095 420.256 181.644 420.256ZM208.096 410.784C208.096 411.296 208.064 411.829 208 412.384H195.616C195.701 413.493 196.053 414.347 196.672 414.944C197.312 415.52 198.091 415.808 199.008 415.808C200.373 415.808 201.323 415.232 201.856 414.08H207.68C207.381 415.253 206.837 416.309 206.048 417.248C205.28 418.187 204.309 418.923 203.136 419.456C201.963 419.989 200.651 420.256 199.2 420.256C197.451 420.256 195.893 419.883 194.528 419.136C193.163 418.389 192.096 417.323 191.328 415.936C190.56 414.549 190.176 412.928 190.176 411.072C190.176 409.216 190.549 407.595 191.296 406.208C192.064 404.821 193.131 403.755 194.496 403.008C195.861 402.261 197.429 401.888 199.2 401.888C200.928 401.888 202.464 402.251 203.808 402.976C205.152 403.701 206.197 404.736 206.944 406.08C207.712 407.424 208.096 408.992 208.096 410.784ZM202.496 409.344C202.496 408.405 202.176 407.659 201.536 407.104C200.896 406.549 200.096 406.272 199.136 406.272C198.219 406.272 197.44 406.539 196.8 407.072C196.181 407.605 195.797 408.363 195.648 409.344H202.496ZM232.807 401.952C235.025 401.952 236.785 402.624 238.087 403.968C239.409 405.312 240.071 407.179 240.071 409.568V420H234.631V410.304C234.631 409.152 234.321 408.267 233.703 407.648C233.105 407.008 232.273 406.688 231.207 406.688C230.14 406.688 229.297 407.008 228.679 407.648C228.081 408.267 227.783 409.152 227.783 410.304V420H222.343V410.304C222.343 409.152 222.033 408.267 221.415 407.648C220.817 407.008 219.985 406.688 218.919 406.688C217.852 406.688 217.009 407.008 216.391 407.648C215.793 408.267 215.495 409.152 215.495 410.304V420H210.023V402.144H215.495V404.384C216.049 403.637 216.775 403.051 217.671 402.624C218.567 402.176 219.58 401.952 220.711 401.952C222.055 401.952 223.249 402.24 224.295 402.816C225.361 403.392 226.193 404.213 226.791 405.28C227.409 404.299 228.252 403.499 229.319 402.88C230.385 402.261 231.548 401.952 232.807 401.952Z" fill="white"/>
<path d="M68.896 454.04C68.896 452.205 69.2373 450.595 69.92 449.208C70.624 447.821 71.5733 446.755 72.768 446.008C73.9627 445.261 75.296 444.888 76.768 444.888C77.9413 444.888 79.008 445.133 79.968 445.624C80.9493 446.115 81.7173 446.776 82.272 447.608V439.32H87.744V463H82.272V460.44C81.76 461.293 81.024 461.976 80.064 462.488C79.1253 463 78.0267 463.256 76.768 463.256C75.296 463.256 73.9627 462.883 72.768 462.136C71.5733 461.368 70.624 460.291 69.92 458.904C69.2373 457.496 68.896 455.875 68.896 454.04ZM82.272 454.072C82.272 452.707 81.888 451.629 81.12 450.84C80.3733 450.051 79.456 449.656 78.368 449.656C77.28 449.656 76.352 450.051 75.584 450.84C74.8373 451.608 74.464 452.675 74.464 454.04C74.464 455.405 74.8373 456.493 75.584 457.304C76.352 458.093 77.28 458.488 78.368 458.488C79.456 458.488 80.3733 458.093 81.12 457.304C81.888 456.515 82.272 455.437 82.272 454.072ZM93.4948 443.288C92.5348 443.288 91.7454 443.011 91.1268 442.456C90.5294 441.88 90.2308 441.176 90.2308 440.344C90.2308 439.491 90.5294 438.787 91.1268 438.232C91.7454 437.656 92.5348 437.368 93.4948 437.368C94.4334 437.368 95.2014 437.656 95.7988 438.232C96.4174 438.787 96.7268 439.491 96.7268 440.344C96.7268 441.176 96.4174 441.88 95.7988 442.456C95.2014 443.011 94.4334 443.288 93.4948 443.288ZM96.2148 445.144V463H90.7428V445.144H96.2148ZM108.18 449.688H105.236V463H99.7643V449.688H97.7802V445.144H99.7643V444.632C99.7643 442.435 100.394 440.771 101.652 439.64C102.911 438.488 104.756 437.912 107.188 437.912C107.594 437.912 107.892 437.923 108.084 437.944V442.584C107.039 442.52 106.303 442.669 105.876 443.032C105.45 443.395 105.236 444.045 105.236 444.984V445.144H108.18V449.688ZM112.543 443.288C111.583 443.288 110.794 443.011 110.175 442.456C109.578 441.88 109.279 441.176 109.279 440.344C109.279 439.491 109.578 438.787 110.175 438.232C110.794 437.656 111.583 437.368 112.543 437.368C113.482 437.368 114.25 437.656 114.847 438.232C115.466 438.787 115.775 439.491 115.775 440.344C115.775 441.176 115.466 441.88 114.847 442.456C114.25 443.011 113.482 443.288 112.543 443.288ZM115.263 445.144V463H109.791V445.144H115.263ZM117.181 454.072C117.181 452.216 117.554 450.595 118.301 449.208C119.069 447.821 120.125 446.755 121.469 446.008C122.834 445.261 124.392 444.888 126.141 444.888C128.381 444.888 130.248 445.475 131.741 446.648C133.256 447.821 134.248 449.475 134.717 451.608H128.893C128.402 450.243 127.453 449.56 126.045 449.56C125.042 449.56 124.242 449.955 123.645 450.744C123.048 451.512 122.749 452.621 122.749 454.072C122.749 455.523 123.048 456.643 123.645 457.432C124.242 458.2 125.042 458.584 126.045 458.584C127.453 458.584 128.402 457.901 128.893 456.536H134.717C134.248 458.627 133.256 460.269 131.741 461.464C130.226 462.659 128.36 463.256 126.141 463.256C124.392 463.256 122.834 462.883 121.469 462.136C120.125 461.389 119.069 460.323 118.301 458.936C117.554 457.549 117.181 455.928 117.181 454.072ZM154.316 445.144V463H148.844V460.568C148.289 461.357 147.532 461.997 146.572 462.488C145.633 462.957 144.588 463.192 143.436 463.192C142.071 463.192 140.865 462.893 139.82 462.296C138.775 461.677 137.964 460.792 137.388 459.64C136.812 458.488 136.524 457.133 136.524 455.576V445.144H141.964V454.84C141.964 456.035 142.273 456.963 142.892 457.624C143.511 458.285 144.343 458.616 145.388 458.616C146.455 458.616 147.297 458.285 147.916 457.624C148.535 456.963 148.844 456.035 148.844 454.84V445.144H154.316ZM162.758 439.32V463H157.286V439.32H162.758ZM164.676 454.04C164.676 452.205 165.017 450.595 165.7 449.208C166.404 447.821 167.353 446.755 168.548 446.008C169.743 445.261 171.076 444.888 172.548 444.888C173.721 444.888 174.788 445.133 175.748 445.624C176.729 446.115 177.497 446.776 178.052 447.608V439.32H183.524V463H178.052V460.44C177.54 461.293 176.804 461.976 175.844 462.488C174.905 463 173.807 463.256 172.548 463.256C171.076 463.256 169.743 462.883 168.548 462.136C167.353 461.368 166.404 460.291 165.7 458.904C165.017 457.496 164.676 455.875 164.676 454.04ZM178.052 454.072C178.052 452.707 177.668 451.629 176.9 450.84C176.153 450.051 175.236 449.656 174.148 449.656C173.06 449.656 172.132 450.051 171.364 450.84C170.617 451.608 170.244 452.675 170.244 454.04C170.244 455.405 170.617 456.493 171.364 457.304C172.132 458.093 173.06 458.488 174.148 458.488C175.236 458.488 176.153 458.093 176.9 457.304C177.668 456.515 178.052 455.437 178.052 454.072ZM185.435 454.04C185.435 452.205 185.776 450.595 186.459 449.208C187.163 447.821 188.112 446.755 189.307 446.008C190.501 445.261 191.835 444.888 193.307 444.888C194.565 444.888 195.664 445.144 196.603 445.656C197.563 446.168 198.299 446.84 198.811 447.672V445.144H204.283V463H198.811V460.472C198.277 461.304 197.531 461.976 196.571 462.488C195.632 463 194.533 463.256 193.275 463.256C191.824 463.256 190.501 462.883 189.307 462.136C188.112 461.368 187.163 460.291 186.459 458.904C185.776 457.496 185.435 455.875 185.435 454.04ZM198.811 454.072C198.811 452.707 198.427 451.629 197.659 450.84C196.912 450.051 195.995 449.656 194.907 449.656C193.819 449.656 192.891 450.051 192.123 450.84C191.376 451.608 191.003 452.675 191.003 454.04C191.003 455.405 191.376 456.493 192.123 457.304C192.891 458.093 193.819 458.488 194.907 458.488C195.995 458.488 196.912 458.093 197.659 457.304C198.427 456.515 198.811 455.437 198.811 454.072ZM206.194 454.04C206.194 452.205 206.535 450.595 207.218 449.208C207.922 447.821 208.871 446.755 210.066 446.008C211.26 445.261 212.594 444.888 214.066 444.888C215.239 444.888 216.306 445.133 217.266 445.624C218.247 446.115 219.015 446.776 219.57 447.608V439.32H225.042V463H219.57V460.44C219.058 461.293 218.322 461.976 217.362 462.488C216.423 463 215.324 463.256 214.066 463.256C212.594 463.256 211.26 462.883 210.066 462.136C208.871 461.368 207.922 460.291 207.218 458.904C206.535 457.496 206.194 455.875 206.194 454.04ZM219.57 454.072C219.57 452.707 219.186 451.629 218.418 450.84C217.671 450.051 216.754 449.656 215.666 449.656C214.578 449.656 213.65 450.051 212.882 450.84C212.135 451.608 211.762 452.675 211.762 454.04C211.762 455.405 212.135 456.493 212.882 457.304C213.65 458.093 214.578 458.488 215.666 458.488C216.754 458.488 217.671 458.093 218.418 457.304C219.186 456.515 219.57 455.437 219.57 454.072ZM244.872 453.784C244.872 454.296 244.84 454.829 244.776 455.384H232.392C232.478 456.493 232.83 457.347 233.448 457.944C234.088 458.52 234.867 458.808 235.784 458.808C237.15 458.808 238.099 458.232 238.632 457.08H244.456C244.158 458.253 243.614 459.309 242.824 460.248C242.056 461.187 241.086 461.923 239.912 462.456C238.739 462.989 237.427 463.256 235.976 463.256C234.227 463.256 232.67 462.883 231.304 462.136C229.939 461.389 228.872 460.323 228.104 458.936C227.336 457.549 226.952 455.928 226.952 454.072C226.952 452.216 227.326 450.595 228.072 449.208C228.84 447.821 229.907 446.755 231.272 446.008C232.638 445.261 234.206 444.888 235.976 444.888C237.704 444.888 239.24 445.251 240.584 445.976C241.928 446.701 242.974 447.736 243.72 449.08C244.488 450.424 244.872 451.992 244.872 453.784ZM239.272 452.344C239.272 451.405 238.952 450.659 238.312 450.104C237.672 449.549 236.872 449.272 235.912 449.272C234.995 449.272 234.216 449.539 233.576 450.072C232.958 450.605 232.574 451.363 232.424 452.344H239.272ZM249.359 463.256C248.399 463.256 247.61 462.979 246.991 462.424C246.394 461.848 246.095 461.144 246.095 460.312C246.095 459.459 246.394 458.744 246.991 458.168C247.61 457.592 248.399 457.304 249.359 457.304C250.298 457.304 251.066 457.592 251.663 458.168C252.282 458.744 252.591 459.459 252.591 460.312C252.591 461.144 252.282 461.848 251.663 462.424C251.066 462.979 250.298 463.256 249.359 463.256Z" fill="#00A991"/>
</svg>
