<svg width="393" height="890" viewBox="0 0 393 890" fill="none" xmlns="http://www.w3.org/2000/svg">
<path d="M0 44C0 19.6995 19.6995 0 44 0H393V890H44C19.6995 890 0 870.301 0 846V44Z" fill="#13293D"/>
<path d="M78.112 356.224C76.4693 356.224 74.9973 355.957 73.696 355.424C72.3947 354.891 71.3493 354.101 70.56 353.056C69.792 352.011 69.3867 350.752 69.344 349.28H75.168C75.2533 350.112 75.5413 350.752 76.032 351.2C76.5227 351.627 77.1627 351.84 77.952 351.84C78.7627 351.84 79.4027 351.659 79.872 351.296C80.3413 350.912 80.576 350.389 80.576 349.728C80.576 349.173 80.384 348.715 80 348.352C79.6373 347.989 79.1787 347.691 78.624 347.456C78.0907 347.221 77.3227 346.955 76.32 346.656C74.8693 346.208 73.6853 345.76 72.768 345.312C71.8507 344.864 71.0613 344.203 70.4 343.328C69.7387 342.453 69.408 341.312 69.408 339.904C69.408 337.813 70.1653 336.181 71.68 335.008C73.1947 333.813 75.168 333.216 77.6 333.216C80.0747 333.216 82.0693 333.813 83.584 335.008C85.0987 336.181 85.9093 337.824 86.016 339.936H80.096C80.0533 339.211 79.7867 338.645 79.296 338.24C78.8053 337.813 78.176 337.6 77.408 337.6C76.7467 337.6 76.2133 337.781 75.808 338.144C75.4027 338.485 75.2 338.987 75.2 339.648C75.2 340.373 75.5413 340.939 76.224 341.344C76.9067 341.749 77.9733 342.187 79.424 342.656C80.8747 343.147 82.048 343.616 82.944 344.064C83.8613 344.512 84.6507 345.163 85.312 346.016C85.9733 346.869 86.304 347.968 86.304 349.312C86.304 350.592 85.9733 351.755 85.312 352.8C84.672 353.845 83.7333 354.677 82.496 355.296C81.2587 355.915 79.7973 356.224 78.112 356.224ZM96.8395 356.256C95.0902 356.256 93.5115 355.883 92.1035 355.136C90.7168 354.389 89.6182 353.323 88.8075 351.936C88.0182 350.549 87.6235 348.928 87.6235 347.072C87.6235 345.237 88.0288 343.627 88.8395 342.24C89.6502 340.832 90.7595 339.755 92.1675 339.008C93.5755 338.261 95.1542 337.888 96.9035 337.888C98.6528 337.888 100.232 338.261 101.64 339.008C103.048 339.755 104.157 340.832 104.968 342.24C105.778 343.627 106.184 345.237 106.184 347.072C106.184 348.907 105.768 350.528 104.936 351.936C104.125 353.323 103.005 354.389 101.576 355.136C100.168 355.883 98.5888 356.256 96.8395 356.256ZM96.8395 351.52C97.8848 351.52 98.7702 351.136 99.4955 350.368C100.242 349.6 100.616 348.501 100.616 347.072C100.616 345.643 100.253 344.544 99.5275 343.776C98.8235 343.008 97.9488 342.624 96.9035 342.624C95.8368 342.624 94.9515 343.008 94.2475 343.776C93.5435 344.523 93.1915 345.621 93.1915 347.072C93.1915 348.501 93.5328 349.6 94.2155 350.368C94.9195 351.136 95.7942 351.52 96.8395 351.52ZM130.911 337.952C133.129 337.952 134.889 338.624 136.191 339.968C137.513 341.312 138.175 343.179 138.175 345.568V356H132.735V346.304C132.735 345.152 132.425 344.267 131.807 343.648C131.209 343.008 130.377 342.688 129.311 342.688C128.244 342.688 127.401 343.008 126.783 343.648C126.185 344.267 125.887 345.152 125.887 346.304V356H120.447V346.304C120.447 345.152 120.137 344.267 119.519 343.648C118.921 343.008 118.089 342.688 117.023 342.688C115.956 342.688 115.113 343.008 114.495 343.648C113.897 344.267 113.599 345.152 113.599 346.304V356H108.127V338.144H113.599V340.384C114.153 339.637 114.879 339.051 115.775 338.624C116.671 338.176 117.684 337.952 118.815 337.952C120.159 337.952 121.353 338.24 122.399 338.816C123.465 339.392 124.297 340.213 124.895 341.28C125.513 340.299 126.356 339.499 127.423 338.88C128.489 338.261 129.652 337.952 130.911 337.952ZM149.17 356.256C147.42 356.256 145.842 355.883 144.434 355.136C143.047 354.389 141.948 353.323 141.138 351.936C140.348 350.549 139.954 348.928 139.954 347.072C139.954 345.237 140.359 343.627 141.17 342.24C141.98 340.832 143.09 339.755 144.498 339.008C145.906 338.261 147.484 337.888 149.234 337.888C150.983 337.888 152.562 338.261 153.97 339.008C155.378 339.755 156.487 340.832 157.298 342.24C158.108 343.627 158.514 345.237 158.514 347.072C158.514 348.907 158.098 350.528 157.266 351.936C156.455 353.323 155.335 354.389 153.906 355.136C152.498 355.883 150.919 356.256 149.17 356.256ZM149.17 351.52C150.215 351.52 151.1 351.136 151.826 350.368C152.572 349.6 152.946 348.501 152.946 347.072C152.946 345.643 152.583 344.544 151.858 343.776C151.154 343.008 150.279 342.624 149.234 342.624C148.167 342.624 147.282 343.008 146.578 343.776C145.874 344.523 145.522 345.621 145.522 347.072C145.522 348.501 145.863 349.6 146.546 350.368C147.25 351.136 148.124 351.52 149.17 351.52ZM167.721 356.256C166.163 356.256 164.777 355.989 163.561 355.456C162.345 354.923 161.385 354.197 160.681 353.28C159.977 352.341 159.582 351.296 159.497 350.144H164.905C164.969 350.763 165.257 351.264 165.769 351.648C166.281 352.032 166.91 352.224 167.657 352.224C168.339 352.224 168.862 352.096 169.225 351.84C169.609 351.563 169.801 351.211 169.801 350.784C169.801 350.272 169.534 349.899 169.001 349.664C168.467 349.408 167.603 349.131 166.409 348.832C165.129 348.533 164.062 348.224 163.209 347.904C162.355 347.563 161.619 347.04 161.001 346.336C160.382 345.611 160.073 344.64 160.073 343.424C160.073 342.4 160.35 341.472 160.905 340.64C161.481 339.787 162.313 339.115 163.401 338.624C164.51 338.133 165.822 337.888 167.337 337.888C169.577 337.888 171.337 338.443 172.617 339.552C173.918 340.661 174.665 342.133 174.857 343.968H169.801C169.715 343.349 169.438 342.859 168.969 342.496C168.521 342.133 167.923 341.952 167.177 341.952C166.537 341.952 166.046 342.08 165.705 342.336C165.363 342.571 165.193 342.901 165.193 343.328C165.193 343.84 165.459 344.224 165.993 344.48C166.547 344.736 167.401 344.992 168.553 345.248C169.875 345.589 170.953 345.931 171.785 346.272C172.617 346.592 173.342 347.125 173.961 347.872C174.601 348.597 174.931 349.579 174.953 350.816C174.953 351.861 174.654 352.8 174.057 353.632C173.481 354.443 172.638 355.083 171.529 355.552C170.441 356.021 169.171 356.256 167.721 356.256ZM191.289 356.256C189.54 356.256 187.961 355.883 186.553 355.136C185.167 354.389 184.068 353.323 183.257 351.936C182.468 350.549 182.073 348.928 182.073 347.072C182.073 345.237 182.479 343.627 183.289 342.24C184.1 340.832 185.209 339.755 186.617 339.008C188.025 338.261 189.604 337.888 191.353 337.888C193.103 337.888 194.681 338.261 196.089 339.008C197.497 339.755 198.607 340.832 199.417 342.24C200.228 343.627 200.633 345.237 200.633 347.072C200.633 348.907 200.217 350.528 199.385 351.936C198.575 353.323 197.455 354.389 196.025 355.136C194.617 355.883 193.039 356.256 191.289 356.256ZM191.289 351.52C192.335 351.52 193.22 351.136 193.945 350.368C194.692 349.6 195.065 348.501 195.065 347.072C195.065 345.643 194.703 344.544 193.977 343.776C193.273 343.008 192.399 342.624 191.353 342.624C190.287 342.624 189.401 343.008 188.697 343.776C187.993 344.523 187.641 345.621 187.641 347.072C187.641 348.501 187.983 349.6 188.665 350.368C189.369 351.136 190.244 351.52 191.289 351.52ZM231.182 337.952C233.4 337.952 235.16 338.624 236.462 339.968C237.784 341.312 238.446 343.179 238.446 345.568V356H233.006V346.304C233.006 345.152 232.696 344.267 232.078 343.648C231.48 343.008 230.648 342.688 229.582 342.688C228.515 342.688 227.672 343.008 227.054 343.648C226.456 344.267 226.158 345.152 226.158 346.304V356H220.718V346.304C220.718 345.152 220.408 344.267 219.79 343.648C219.192 343.008 218.36 342.688 217.294 342.688C216.227 342.688 215.384 343.008 214.766 343.648C214.168 344.267 213.87 345.152 213.87 346.304V356H208.398V338.144H213.87V340.384C214.424 339.637 215.15 339.051 216.046 338.624C216.942 338.176 217.955 337.952 219.086 337.952C220.43 337.952 221.624 338.24 222.67 338.816C223.736 339.392 224.568 340.213 225.166 341.28C225.784 340.299 226.627 339.499 227.694 338.88C228.76 338.261 229.923 337.952 231.182 337.952ZM258.145 346.784C258.145 347.296 258.113 347.829 258.049 348.384H245.665C245.75 349.493 246.102 350.347 246.721 350.944C247.361 351.52 248.139 351.808 249.057 351.808C250.422 351.808 251.371 351.232 251.905 350.08H257.729C257.43 351.253 256.886 352.309 256.097 353.248C255.329 354.187 254.358 354.923 253.185 355.456C252.011 355.989 250.699 356.256 249.249 356.256C247.499 356.256 245.942 355.883 244.577 355.136C243.211 354.389 242.145 353.323 241.377 351.936C240.609 350.549 240.225 348.928 240.225 347.072C240.225 345.216 240.598 343.595 241.345 342.208C242.113 340.821 243.179 339.755 244.545 339.008C245.91 338.261 247.478 337.888 249.249 337.888C250.977 337.888 252.513 338.251 253.857 338.976C255.201 339.701 256.246 340.736 256.993 342.08C257.761 343.424 258.145 344.992 258.145 346.784ZM252.545 345.344C252.545 344.405 252.225 343.659 251.585 343.104C250.945 342.549 250.145 342.272 249.185 342.272C248.267 342.272 247.489 342.539 246.849 343.072C246.23 343.605 245.846 344.363 245.697 345.344H252.545ZM265.543 332.32V356H260.071V332.32H265.543ZM279.525 337.952C281.573 337.952 283.216 338.635 284.453 340C285.69 341.344 286.309 343.2 286.309 345.568V356H280.869V346.304C280.869 345.109 280.56 344.181 279.941 343.52C279.322 342.859 278.49 342.528 277.445 342.528C276.4 342.528 275.568 342.859 274.949 343.52C274.33 344.181 274.021 345.109 274.021 346.304V356H268.549V332.32H274.021V340.544C274.576 339.755 275.333 339.125 276.293 338.656C277.253 338.187 278.33 337.952 279.525 337.952ZM297.279 356.256C295.53 356.256 293.951 355.883 292.543 355.136C291.157 354.389 290.058 353.323 289.247 351.936C288.458 350.549 288.063 348.928 288.063 347.072C288.063 345.237 288.469 343.627 289.279 342.24C290.09 340.832 291.199 339.755 292.607 339.008C294.015 338.261 295.594 337.888 297.343 337.888C299.093 337.888 300.671 338.261 302.079 339.008C303.487 339.755 304.597 340.832 305.407 342.24C306.218 343.627 306.623 345.237 306.623 347.072C306.623 348.907 306.207 350.528 305.375 351.936C304.565 353.323 303.445 354.389 302.015 355.136C300.607 355.883 299.029 356.256 297.279 356.256ZM297.279 351.52C298.325 351.52 299.21 351.136 299.935 350.368C300.682 349.6 301.055 348.501 301.055 347.072C301.055 345.643 300.693 344.544 299.967 343.776C299.263 343.008 298.389 342.624 297.343 342.624C296.277 342.624 295.391 343.008 294.687 343.776C293.983 344.523 293.631 345.621 293.631 347.072C293.631 348.501 293.973 349.6 294.655 350.368C295.359 351.136 296.234 351.52 297.279 351.52ZM314.039 341.12C314.679 340.139 315.479 339.371 316.439 338.816C317.399 338.24 318.465 337.952 319.639 337.952V343.744H318.135C316.769 343.744 315.745 344.043 315.063 344.64C314.38 345.216 314.039 346.24 314.039 347.712V356H308.567V338.144H314.039V341.12ZM77.248 399.256C75.6907 399.256 74.304 398.989 73.088 398.456C71.872 397.923 70.912 397.197 70.208 396.28C69.504 395.341 69.1093 394.296 69.024 393.144H74.432C74.496 393.763 74.784 394.264 75.296 394.648C75.808 395.032 76.4373 395.224 77.184 395.224C77.8667 395.224 78.3893 395.096 78.752 394.84C79.136 394.563 79.328 394.211 79.328 393.784C79.328 393.272 79.0613 392.899 78.528 392.664C77.9947 392.408 77.1307 392.131 75.936 391.832C74.656 391.533 73.5893 391.224 72.736 390.904C71.8827 390.563 71.1467 390.04 70.528 389.336C69.9093 388.611 69.6 387.64 69.6 386.424C69.6 385.4 69.8773 384.472 70.432 383.64C71.008 382.787 71.84 382.115 72.928 381.624C74.0373 381.133 75.3493 380.888 76.864 380.888C79.104 380.888 80.864 381.443 82.144 382.552C83.4453 383.661 84.192 385.133 84.384 386.968H79.328C79.2427 386.349 78.9653 385.859 78.496 385.496C78.048 385.133 77.4507 384.952 76.704 384.952C76.064 384.952 75.5733 385.08 75.232 385.336C74.8907 385.571 74.72 385.901 74.72 386.328C74.72 386.84 74.9867 387.224 75.52 387.48C76.0747 387.736 76.928 387.992 78.08 388.248C79.4027 388.589 80.48 388.931 81.312 389.272C82.144 389.592 82.8693 390.125 83.488 390.872C84.128 391.597 84.4587 392.579 84.48 393.816C84.48 394.861 84.1813 395.8 83.584 396.632C83.008 397.443 82.1653 398.083 81.056 398.552C79.968 399.021 78.6987 399.256 77.248 399.256ZM89.6198 379.288C88.6598 379.288 87.8704 379.011 87.2518 378.456C86.6544 377.88 86.3558 377.176 86.3558 376.344C86.3558 375.491 86.6544 374.787 87.2518 374.232C87.8704 373.656 88.6598 373.368 89.6198 373.368C90.5584 373.368 91.3264 373.656 91.9238 374.232C92.5424 374.787 92.8518 375.491 92.8518 376.344C92.8518 377.176 92.5424 377.88 91.9238 378.456C91.3264 379.011 90.5584 379.288 89.6198 379.288ZM92.3398 381.144V399H86.8678V381.144H92.3398ZM105.297 394.36V399H102.513C100.529 399 98.9826 398.52 97.8733 397.56C96.7639 396.579 96.2092 394.989 96.2092 392.792V385.688H94.0332V381.144H96.2092V376.792H101.681V381.144H105.265V385.688H101.681V392.856C101.681 393.389 101.809 393.773 102.065 394.008C102.321 394.243 102.748 394.36 103.345 394.36H105.297ZM124.217 389.784C124.217 390.296 124.185 390.829 124.121 391.384H111.737C111.823 392.493 112.175 393.347 112.793 393.944C113.433 394.52 114.212 394.808 115.129 394.808C116.495 394.808 117.444 394.232 117.977 393.08H123.801C123.503 394.253 122.959 395.309 122.169 396.248C121.401 397.187 120.431 397.923 119.257 398.456C118.084 398.989 116.772 399.256 115.321 399.256C113.572 399.256 112.015 398.883 110.649 398.136C109.284 397.389 108.217 396.323 107.449 394.936C106.681 393.549 106.297 391.928 106.297 390.072C106.297 388.216 106.671 386.595 107.417 385.208C108.185 383.821 109.252 382.755 110.617 382.008C111.983 381.261 113.551 380.888 115.321 380.888C117.049 380.888 118.585 381.251 119.929 381.976C121.273 382.701 122.319 383.736 123.065 385.08C123.833 386.424 124.217 387.992 124.217 389.784ZM118.617 388.344C118.617 387.405 118.297 386.659 117.657 386.104C117.017 385.549 116.217 385.272 115.257 385.272C114.34 385.272 113.561 385.539 112.921 386.072C112.303 386.605 111.919 387.363 111.769 388.344H118.617ZM137.437 383.672C137.971 382.84 138.707 382.168 139.645 381.656C140.584 381.144 141.683 380.888 142.941 380.888C144.413 380.888 145.747 381.261 146.941 382.008C148.136 382.755 149.075 383.821 149.757 385.208C150.461 386.595 150.813 388.205 150.813 390.04C150.813 391.875 150.461 393.496 149.757 394.904C149.075 396.291 148.136 397.368 146.941 398.136C145.747 398.883 144.413 399.256 142.941 399.256C141.704 399.256 140.605 399 139.645 398.488C138.707 397.976 137.971 397.315 137.437 396.504V407.512H131.965V381.144H137.437V383.672ZM145.245 390.04C145.245 388.675 144.861 387.608 144.093 386.84C143.347 386.051 142.419 385.656 141.309 385.656C140.221 385.656 139.293 386.051 138.525 386.84C137.779 387.629 137.405 388.707 137.405 390.072C137.405 391.437 137.779 392.515 138.525 393.304C139.293 394.093 140.221 394.488 141.309 394.488C142.397 394.488 143.325 394.093 144.093 393.304C144.861 392.493 145.245 391.405 145.245 390.04ZM151.636 390.04C151.636 388.205 151.977 386.595 152.66 385.208C153.364 383.821 154.313 382.755 155.508 382.008C156.703 381.261 158.036 380.888 159.508 380.888C160.767 380.888 161.865 381.144 162.804 381.656C163.764 382.168 164.5 382.84 165.012 383.672V381.144H170.484V399H165.012V396.472C164.479 397.304 163.732 397.976 162.772 398.488C161.833 399 160.735 399.256 159.476 399.256C158.025 399.256 156.703 398.883 155.508 398.136C154.313 397.368 153.364 396.291 152.66 394.904C151.977 393.496 151.636 391.875 151.636 390.04ZM165.012 390.072C165.012 388.707 164.628 387.629 163.86 386.84C163.113 386.051 162.196 385.656 161.108 385.656C160.02 385.656 159.092 386.051 158.324 386.84C157.577 387.608 157.204 388.675 157.204 390.04C157.204 391.405 157.577 392.493 158.324 393.304C159.092 394.093 160.02 394.488 161.108 394.488C162.196 394.488 163.113 394.093 163.86 393.304C164.628 392.515 165.012 391.437 165.012 390.072ZM178.955 384.12C179.595 383.139 180.395 382.371 181.355 381.816C182.315 381.24 183.381 380.952 184.555 380.952V386.744H183.051C181.685 386.744 180.661 387.043 179.979 387.64C179.296 388.216 178.955 389.24 178.955 390.712V399H173.483V381.144H178.955V384.12ZM185.122 390.04C185.122 388.205 185.464 386.595 186.146 385.208C186.85 383.821 187.8 382.755 188.994 382.008C190.189 381.261 191.522 380.888 192.994 380.888C194.253 380.888 195.352 381.144 196.29 381.656C197.25 382.168 197.986 382.84 198.498 383.672V381.144H203.97V399H198.498V396.472C197.965 397.304 197.218 397.976 196.258 398.488C195.32 399 194.221 399.256 192.962 399.256C191.512 399.256 190.189 398.883 188.994 398.136C187.8 397.368 186.85 396.291 186.146 394.904C185.464 393.496 185.122 391.875 185.122 390.04ZM198.498 390.072C198.498 388.707 198.114 387.629 197.346 386.84C196.6 386.051 195.682 385.656 194.594 385.656C193.506 385.656 192.578 386.051 191.81 386.84C191.064 387.608 190.69 388.675 190.69 390.04C190.69 391.405 191.064 392.493 191.81 393.304C192.578 394.093 193.506 394.488 194.594 394.488C195.682 394.488 196.6 394.093 197.346 393.304C198.114 392.515 198.498 391.437 198.498 390.072ZM78.112 442.256C76.3627 442.256 74.784 441.883 73.376 441.136C71.9893 440.389 70.8907 439.323 70.08 437.936C69.2907 436.549 68.896 434.928 68.896 433.072C68.896 431.237 69.3013 429.627 70.112 428.24C70.9227 426.832 72.032 425.755 73.44 425.008C74.848 424.261 76.4267 423.888 78.176 423.888C79.9253 423.888 81.504 424.261 82.912 425.008C84.32 425.755 85.4293 426.832 86.24 428.24C87.0507 429.627 87.456 431.237 87.456 433.072C87.456 434.907 87.04 436.528 86.208 437.936C85.3973 439.323 84.2773 440.389 82.848 441.136C81.44 441.883 79.8613 442.256 78.112 442.256ZM78.112 437.52C79.1573 437.52 80.0427 437.136 80.768 436.368C81.5147 435.6 81.888 434.501 81.888 433.072C81.888 431.643 81.5253 430.544 80.8 429.776C80.096 429.008 79.2213 428.624 78.176 428.624C77.1093 428.624 76.224 429.008 75.52 429.776C74.816 430.523 74.464 431.621 74.464 433.072C74.464 434.501 74.8053 435.6 75.488 436.368C76.192 437.136 77.0667 437.52 78.112 437.52ZM94.871 427.12C95.511 426.139 96.311 425.371 97.271 424.816C98.231 424.24 99.2977 423.952 100.471 423.952V429.744H98.967C97.6017 429.744 96.5777 430.043 95.895 430.64C95.2123 431.216 94.871 432.24 94.871 433.712V442H89.399V424.144H94.871V427.12ZM108.911 423.888C110.169 423.888 111.268 424.144 112.207 424.656C113.167 425.168 113.903 425.84 114.415 426.672V424.144H119.887V441.968C119.887 443.611 119.556 445.093 118.895 446.416C118.255 447.76 117.263 448.827 115.919 449.616C114.596 450.405 112.943 450.8 110.959 450.8C108.313 450.8 106.169 450.171 104.527 448.912C102.884 447.675 101.945 445.989 101.711 443.856H107.119C107.289 444.539 107.695 445.072 108.335 445.456C108.975 445.861 109.764 446.064 110.703 446.064C111.833 446.064 112.729 445.733 113.391 445.072C114.073 444.432 114.415 443.397 114.415 441.968V439.44C113.881 440.272 113.145 440.955 112.207 441.488C111.268 442 110.169 442.256 108.911 442.256C107.439 442.256 106.105 441.883 104.911 441.136C103.716 440.368 102.767 439.291 102.063 437.904C101.38 436.496 101.039 434.875 101.039 433.04C101.039 431.205 101.38 429.595 102.063 428.208C102.767 426.821 103.716 425.755 104.911 425.008C106.105 424.261 107.439 423.888 108.911 423.888ZM114.415 433.072C114.415 431.707 114.031 430.629 113.263 429.84C112.516 429.051 111.599 428.656 110.511 428.656C109.423 428.656 108.495 429.051 107.727 429.84C106.98 430.608 106.607 431.675 106.607 433.04C106.607 434.405 106.98 435.493 107.727 436.304C108.495 437.093 109.423 437.488 110.511 437.488C111.599 437.488 112.516 437.093 113.263 436.304C114.031 435.515 114.415 434.437 114.415 433.072ZM121.797 433.04C121.797 431.205 122.139 429.595 122.821 428.208C123.525 426.821 124.475 425.755 125.669 425.008C126.864 424.261 128.197 423.888 129.669 423.888C130.928 423.888 132.027 424.144 132.965 424.656C133.925 425.168 134.661 425.84 135.173 426.672V424.144H140.645V442H135.173V439.472C134.64 440.304 133.893 440.976 132.933 441.488C131.995 442 130.896 442.256 129.637 442.256C128.187 442.256 126.864 441.883 125.669 441.136C124.475 440.368 123.525 439.291 122.821 437.904C122.139 436.496 121.797 434.875 121.797 433.04ZM135.173 433.072C135.173 431.707 134.789 430.629 134.021 429.84C133.275 429.051 132.357 428.656 131.269 428.656C130.181 428.656 129.253 429.051 128.485 429.84C127.739 430.608 127.365 431.675 127.365 433.04C127.365 434.405 127.739 435.493 128.485 436.304C129.253 437.093 130.181 437.488 131.269 437.488C132.357 437.488 133.275 437.093 134.021 436.304C134.789 435.515 135.173 434.437 135.173 433.072ZM154.524 423.952C156.615 423.952 158.279 424.635 159.516 426C160.775 427.344 161.404 429.2 161.404 431.568V442H155.964V432.304C155.964 431.109 155.655 430.181 155.036 429.52C154.417 428.859 153.585 428.528 152.54 428.528C151.495 428.528 150.663 428.859 150.044 429.52C149.425 430.181 149.116 431.109 149.116 432.304V442H143.644V424.144H149.116V426.512C149.671 425.723 150.417 425.104 151.356 424.656C152.295 424.187 153.351 423.952 154.524 423.952ZM166.998 422.288C166.038 422.288 165.249 422.011 164.63 421.456C164.033 420.88 163.734 420.176 163.734 419.344C163.734 418.491 164.033 417.787 164.63 417.232C165.249 416.656 166.038 416.368 166.998 416.368C167.937 416.368 168.705 416.656 169.302 417.232C169.921 417.787 170.23 418.491 170.23 419.344C170.23 420.176 169.921 420.88 169.302 421.456C168.705 422.011 167.937 422.288 166.998 422.288ZM169.718 424.144V442H164.246V424.144H169.718ZM177.844 437.488H185.588V442H171.732V437.648L179.156 428.656H171.796V424.144H185.428V428.496L177.844 437.488ZM186.551 433.04C186.551 431.205 186.892 429.595 187.575 428.208C188.279 426.821 189.228 425.755 190.423 425.008C191.618 424.261 192.951 423.888 194.423 423.888C195.682 423.888 196.78 424.144 197.719 424.656C198.679 425.168 199.415 425.84 199.927 426.672V424.144H205.399V442H199.927V439.472C199.394 440.304 198.647 440.976 197.687 441.488C196.748 442 195.65 442.256 194.391 442.256C192.94 442.256 191.618 441.883 190.423 441.136C189.228 440.368 188.279 439.291 187.575 437.904C186.892 436.496 186.551 434.875 186.551 433.04ZM199.927 433.072C199.927 431.707 199.543 430.629 198.775 429.84C198.028 429.051 197.111 428.656 196.023 428.656C194.935 428.656 194.007 429.051 193.239 429.84C192.492 430.608 192.119 431.675 192.119 433.04C192.119 434.405 192.492 435.493 193.239 436.304C194.007 437.093 194.935 437.488 196.023 437.488C197.111 437.488 198.028 437.093 198.775 436.304C199.543 435.515 199.927 434.437 199.927 433.072ZM216.174 437.584C217.582 437.584 218.531 436.901 219.022 435.536H224.846C224.44 437.349 223.63 438.832 222.414 439.984C221.198 441.136 219.683 441.851 217.87 442.128V443.312C218.979 443.312 219.95 443.611 220.782 444.208C221.614 444.827 222.03 445.744 222.03 446.96C222.03 448.176 221.592 449.093 220.718 449.712C219.843 450.352 218.798 450.672 217.582 450.672H212.654V447.664H216.846C217.272 447.664 217.592 447.6 217.806 447.472C218.019 447.344 218.126 447.131 218.126 446.832C218.126 446.533 218.019 446.32 217.806 446.192C217.592 446.085 217.272 446.032 216.846 446.032H214.574V442.128C212.376 441.787 210.616 440.816 209.294 439.216C207.971 437.595 207.31 435.547 207.31 433.072C207.31 431.216 207.683 429.595 208.43 428.208C209.198 426.821 210.254 425.755 211.598 425.008C212.963 424.261 214.52 423.888 216.27 423.888C218.51 423.888 220.376 424.475 221.87 425.648C223.384 426.821 224.376 428.475 224.846 430.608H219.022C218.531 429.243 217.582 428.56 216.174 428.56C215.171 428.56 214.371 428.955 213.774 429.744C213.176 430.512 212.878 431.621 212.878 433.072C212.878 434.523 213.176 435.643 213.774 436.432C214.371 437.2 215.171 437.584 216.174 437.584ZM225.725 433.04C225.725 431.205 226.066 429.595 226.749 428.208C227.453 426.821 228.402 425.755 229.597 425.008C230.791 424.261 232.125 423.888 233.597 423.888C234.855 423.888 235.954 424.144 236.893 424.656C237.853 425.168 238.589 425.84 239.101 426.672V424.144H244.573V442H239.101V439.472C238.567 440.304 237.821 440.976 236.861 441.488C235.922 442 234.823 442.256 233.565 442.256C232.114 442.256 230.791 441.883 229.597 441.136C228.402 440.368 227.453 439.291 226.749 437.904C226.066 436.496 225.725 434.875 225.725 433.04ZM239.101 433.072C239.101 431.707 238.717 430.629 237.949 429.84C237.202 429.051 236.285 428.656 235.197 428.656C234.109 428.656 233.181 429.051 232.413 429.84C231.666 430.608 231.293 431.675 231.293 433.04C231.293 434.405 231.666 435.493 232.413 436.304C233.181 437.093 234.109 437.488 235.197 437.488C236.285 437.488 237.202 437.093 237.949 436.304C238.717 435.515 239.101 434.437 239.101 433.072ZM229.405 422.64C229.917 419.483 231.389 417.904 233.821 417.904C234.29 417.904 234.695 417.979 235.037 418.128C235.399 418.256 235.837 418.459 236.349 418.736C236.733 418.949 237.042 419.109 237.277 419.216C237.511 419.301 237.757 419.344 238.013 419.344C238.802 419.344 239.261 418.864 239.389 417.904H242.205C241.693 421.061 240.221 422.64 237.789 422.64C237.319 422.64 236.903 422.576 236.541 422.448C236.199 422.299 235.773 422.085 235.261 421.808C234.877 421.595 234.567 421.445 234.333 421.36C234.098 421.253 233.853 421.2 233.597 421.2C232.807 421.2 232.338 421.68 232.189 422.64H229.405ZM255.699 442.256C253.95 442.256 252.371 441.883 250.963 441.136C249.577 440.389 248.478 439.323 247.667 437.936C246.878 436.549 246.483 434.928 246.483 433.072C246.483 431.237 246.889 429.627 247.699 428.24C248.51 426.832 249.619 425.755 251.027 425.008C252.435 424.261 254.014 423.888 255.763 423.888C257.513 423.888 259.091 424.261 260.499 425.008C261.907 425.755 263.017 426.832 263.827 428.24C264.638 429.627 265.043 431.237 265.043 433.072C265.043 434.907 264.627 436.528 263.795 437.936C262.985 439.323 261.865 440.389 260.435 441.136C259.027 441.883 257.449 442.256 255.699 442.256ZM255.699 437.52C256.745 437.52 257.63 437.136 258.355 436.368C259.102 435.6 259.475 434.501 259.475 433.072C259.475 431.643 259.113 430.544 258.387 429.776C257.683 429.008 256.809 428.624 255.763 428.624C254.697 428.624 253.811 429.008 253.107 429.776C252.403 430.523 252.051 431.621 252.051 433.072C252.051 434.501 252.393 435.6 253.075 436.368C253.779 437.136 254.654 437.52 255.699 437.52ZM271.72 433.04C271.72 431.205 272.061 429.595 272.744 428.208C273.448 426.821 274.397 425.755 275.592 425.008C276.786 424.261 278.12 423.888 279.592 423.888C280.765 423.888 281.832 424.133 282.792 424.624C283.773 425.115 284.541 425.776 285.096 426.608V418.32H290.568V442H285.096V439.44C284.584 440.293 283.848 440.976 282.888 441.488C281.949 442 280.85 442.256 279.592 442.256C278.12 442.256 276.786 441.883 275.592 441.136C274.397 440.368 273.448 439.291 272.744 437.904C272.061 436.496 271.72 434.875 271.72 433.04ZM285.096 433.072C285.096 431.707 284.712 430.629 283.944 429.84C283.197 429.051 282.28 428.656 281.192 428.656C280.104 428.656 279.176 429.051 278.408 429.84C277.661 430.608 277.288 431.675 277.288 433.04C277.288 434.405 277.661 435.493 278.408 436.304C279.176 437.093 280.104 437.488 281.192 437.488C282.28 437.488 283.197 437.093 283.944 436.304C284.712 435.515 285.096 434.437 285.096 433.072ZM310.399 432.784C310.399 433.296 310.367 433.829 310.303 434.384H297.919C298.004 435.493 298.356 436.347 298.975 436.944C299.615 437.52 300.393 437.808 301.311 437.808C302.676 437.808 303.625 437.232 304.159 436.08H309.983C309.684 437.253 309.14 438.309 308.351 439.248C307.583 440.187 306.612 440.923 305.439 441.456C304.265 441.989 302.953 442.256 301.503 442.256C299.753 442.256 298.196 441.883 296.831 441.136C295.465 440.389 294.399 439.323 293.631 437.936C292.863 436.549 292.479 434.928 292.479 433.072C292.479 431.216 292.852 429.595 293.599 428.208C294.367 426.821 295.433 425.755 296.799 425.008C298.164 424.261 299.732 423.888 301.503 423.888C303.231 423.888 304.767 424.251 306.111 424.976C307.455 425.701 308.5 426.736 309.247 428.08C310.015 429.424 310.399 430.992 310.399 432.784ZM304.799 431.344C304.799 430.405 304.479 429.659 303.839 429.104C303.199 428.549 302.399 428.272 301.439 428.272C300.521 428.272 299.743 428.539 299.103 429.072C298.484 429.605 298.1 430.363 297.951 431.344H304.799Z" fill="white"/>
<path d="M78.944 471.688H76V485H70.528V471.688H68.544V467.144H70.528V466.632C70.528 464.435 71.1573 462.771 72.416 461.64C73.6747 460.488 75.52 459.912 77.952 459.912C78.3573 459.912 78.656 459.923 78.848 459.944V464.584C77.8027 464.52 77.0667 464.669 76.64 465.032C76.2133 465.395 76 466.045 76 466.984V467.144H78.944V471.688ZM88.6833 485.256C86.9339 485.256 85.3553 484.883 83.9473 484.136C82.5606 483.389 81.4619 482.323 80.6513 480.936C79.8619 479.549 79.4672 477.928 79.4672 476.072C79.4672 474.237 79.8726 472.627 80.6832 471.24C81.4939 469.832 82.6033 468.755 84.0113 468.008C85.4193 467.261 86.9979 466.888 88.7473 466.888C90.4966 466.888 92.0753 467.261 93.4833 468.008C94.8913 468.755 96.0006 469.832 96.8113 471.24C97.6219 472.627 98.0273 474.237 98.0273 476.072C98.0273 477.907 97.6113 479.528 96.7793 480.936C95.9686 482.323 94.8486 483.389 93.4193 484.136C92.0113 484.883 90.4326 485.256 88.6833 485.256ZM88.6833 480.52C89.7286 480.52 90.6139 480.136 91.3393 479.368C92.0859 478.6 92.4593 477.501 92.4593 476.072C92.4593 474.643 92.0966 473.544 91.3713 472.776C90.6673 472.008 89.7926 471.624 88.7473 471.624C87.6806 471.624 86.7953 472.008 86.0913 472.776C85.3873 473.523 85.0353 474.621 85.0353 476.072C85.0353 477.501 85.3766 478.6 86.0593 479.368C86.7633 480.136 87.6379 480.52 88.6833 480.52ZM105.442 470.12C106.082 469.139 106.882 468.371 107.842 467.816C108.802 467.24 109.869 466.952 111.042 466.952V472.744H109.538C108.173 472.744 107.149 473.043 106.466 473.64C105.784 474.216 105.442 475.24 105.442 476.712V485H99.9703V467.144H105.442V470.12ZM123.578 466.952C125.668 466.952 127.332 467.635 128.57 469C129.828 470.344 130.458 472.2 130.458 474.568V485H125.018V475.304C125.018 474.109 124.708 473.181 124.09 472.52C123.471 471.859 122.639 471.528 121.594 471.528C120.548 471.528 119.716 471.859 119.098 472.52C118.479 473.181 118.17 474.109 118.17 475.304V485H112.698V467.144H118.17V469.512C118.724 468.723 119.471 468.104 120.41 467.656C121.348 467.187 122.404 466.952 123.578 466.952ZM150.132 475.784C150.132 476.296 150.1 476.829 150.036 477.384H137.652C137.738 478.493 138.09 479.347 138.708 479.944C139.348 480.52 140.127 480.808 141.044 480.808C142.41 480.808 143.359 480.232 143.892 479.08H149.716C149.418 480.253 148.874 481.309 148.084 482.248C147.316 483.187 146.346 483.923 145.172 484.456C143.999 484.989 142.687 485.256 141.236 485.256C139.487 485.256 137.93 484.883 136.564 484.136C135.199 483.389 134.132 482.323 133.364 480.936C132.596 479.549 132.212 477.928 132.212 476.072C132.212 474.216 132.586 472.595 133.332 471.208C134.1 469.821 135.167 468.755 136.532 468.008C137.898 467.261 139.466 466.888 141.236 466.888C142.964 466.888 144.5 467.251 145.844 467.976C147.188 468.701 148.234 469.736 148.98 471.08C149.748 472.424 150.132 473.992 150.132 475.784ZM144.532 474.344C144.532 473.405 144.212 472.659 143.572 472.104C142.932 471.549 142.132 471.272 141.172 471.272C140.255 471.272 139.476 471.539 138.836 472.072C138.218 472.605 137.834 473.363 137.684 474.344H144.532ZM150.971 476.072C150.971 474.216 151.344 472.595 152.091 471.208C152.859 469.821 153.915 468.755 155.259 468.008C156.624 467.261 158.182 466.888 159.931 466.888C162.171 466.888 164.038 467.475 165.531 468.648C167.046 469.821 168.038 471.475 168.507 473.608H162.683C162.192 472.243 161.243 471.56 159.835 471.56C158.832 471.56 158.032 471.955 157.435 472.744C156.838 473.512 156.539 474.621 156.539 476.072C156.539 477.523 156.838 478.643 157.435 479.432C158.032 480.2 158.832 480.584 159.835 480.584C161.243 480.584 162.192 479.901 162.683 478.536H168.507C168.038 480.627 167.046 482.269 165.531 483.464C164.016 484.659 162.15 485.256 159.931 485.256C158.182 485.256 156.624 484.883 155.259 484.136C153.915 483.389 152.859 482.323 152.091 480.936C151.344 479.549 150.971 477.928 150.971 476.072ZM187.306 475.784C187.306 476.296 187.274 476.829 187.21 477.384H174.826C174.911 478.493 175.263 479.347 175.882 479.944C176.522 480.52 177.301 480.808 178.218 480.808C179.583 480.808 180.533 480.232 181.066 479.08H186.89C186.591 480.253 186.047 481.309 185.258 482.248C184.49 483.187 183.519 483.923 182.346 484.456C181.173 484.989 179.861 485.256 178.41 485.256C176.661 485.256 175.103 484.883 173.738 484.136C172.373 483.389 171.306 482.323 170.538 480.936C169.77 479.549 169.386 477.928 169.386 476.072C169.386 474.216 169.759 472.595 170.506 471.208C171.274 469.821 172.341 468.755 173.706 468.008C175.071 467.261 176.639 466.888 178.41 466.888C180.138 466.888 181.674 467.251 183.018 467.976C184.362 468.701 185.407 469.736 186.154 471.08C186.922 472.424 187.306 473.992 187.306 475.784ZM181.706 474.344C181.706 473.405 181.386 472.659 180.746 472.104C180.106 471.549 179.306 471.272 178.346 471.272C177.429 471.272 176.65 471.539 176.01 472.072C175.391 472.605 175.007 473.363 174.858 474.344H181.706ZM188.145 476.04C188.145 474.205 188.486 472.595 189.169 471.208C189.873 469.821 190.822 468.755 192.017 468.008C193.211 467.261 194.545 466.888 196.017 466.888C197.19 466.888 198.257 467.133 199.217 467.624C200.198 468.115 200.966 468.776 201.521 469.608V461.32H206.993V485H201.521V482.44C201.009 483.293 200.273 483.976 199.313 484.488C198.374 485 197.275 485.256 196.017 485.256C194.545 485.256 193.211 484.883 192.017 484.136C190.822 483.368 189.873 482.291 189.169 480.904C188.486 479.496 188.145 477.875 188.145 476.04ZM201.521 476.072C201.521 474.707 201.137 473.629 200.369 472.84C199.622 472.051 198.705 471.656 197.617 471.656C196.529 471.656 195.601 472.051 194.833 472.84C194.086 473.608 193.713 474.675 193.713 476.04C193.713 477.405 194.086 478.493 194.833 479.304C195.601 480.093 196.529 480.488 197.617 480.488C198.705 480.488 199.622 480.093 200.369 479.304C201.137 478.515 201.521 477.437 201.521 476.072ZM218.12 485.256C216.37 485.256 214.792 484.883 213.384 484.136C211.997 483.389 210.898 482.323 210.088 480.936C209.298 479.549 208.904 477.928 208.904 476.072C208.904 474.237 209.309 472.627 210.12 471.24C210.93 469.832 212.04 468.755 213.448 468.008C214.856 467.261 216.434 466.888 218.184 466.888C219.933 466.888 221.512 467.261 222.92 468.008C224.328 468.755 225.437 469.832 226.248 471.24C227.058 472.627 227.464 474.237 227.464 476.072C227.464 477.907 227.048 479.528 226.216 480.936C225.405 482.323 224.285 483.389 222.856 484.136C221.448 484.883 219.869 485.256 218.12 485.256ZM218.12 480.52C219.165 480.52 220.05 480.136 220.776 479.368C221.522 478.6 221.896 477.501 221.896 476.072C221.896 474.643 221.533 473.544 220.808 472.776C220.104 472.008 219.229 471.624 218.184 471.624C217.117 471.624 216.232 472.008 215.528 472.776C214.824 473.523 214.472 474.621 214.472 476.072C214.472 477.501 214.813 478.6 215.496 479.368C216.2 480.136 217.074 480.52 218.12 480.52ZM234.879 470.12C235.519 469.139 236.319 468.371 237.279 467.816C238.239 467.24 239.305 466.952 240.479 466.952V472.744H238.975C237.609 472.744 236.585 473.043 235.903 473.64C235.22 474.216 234.879 475.24 234.879 476.712V485H229.407V467.144H234.879V470.12ZM258.966 475.784C258.966 476.296 258.934 476.829 258.87 477.384H246.486C246.571 478.493 246.923 479.347 247.542 479.944C248.182 480.52 248.961 480.808 249.878 480.808C251.243 480.808 252.193 480.232 252.726 479.08H258.55C258.251 480.253 257.707 481.309 256.918 482.248C256.15 483.187 255.179 483.923 254.006 484.456C252.833 484.989 251.521 485.256 250.07 485.256C248.321 485.256 246.763 484.883 245.398 484.136C244.033 483.389 242.966 482.323 242.198 480.936C241.43 479.549 241.046 477.928 241.046 476.072C241.046 474.216 241.419 472.595 242.166 471.208C242.934 469.821 244.001 468.755 245.366 468.008C246.731 467.261 248.299 466.888 250.07 466.888C251.798 466.888 253.334 467.251 254.678 467.976C256.022 468.701 257.067 469.736 257.814 471.08C258.582 472.424 258.966 473.992 258.966 475.784ZM253.366 474.344C253.366 473.405 253.046 472.659 252.406 472.104C251.766 471.549 250.966 471.272 250.006 471.272C249.089 471.272 248.31 471.539 247.67 472.072C247.051 472.605 246.667 473.363 246.518 474.344H253.366ZM268.157 485.256C266.599 485.256 265.213 484.989 263.997 484.456C262.781 483.923 261.821 483.197 261.117 482.28C260.413 481.341 260.018 480.296 259.933 479.144H265.341C265.405 479.763 265.693 480.264 266.205 480.648C266.717 481.032 267.346 481.224 268.093 481.224C268.775 481.224 269.298 481.096 269.661 480.84C270.045 480.563 270.237 480.211 270.237 479.784C270.237 479.272 269.97 478.899 269.437 478.664C268.903 478.408 268.039 478.131 266.845 477.832C265.565 477.533 264.498 477.224 263.645 476.904C262.791 476.563 262.055 476.04 261.437 475.336C260.818 474.611 260.509 473.64 260.509 472.424C260.509 471.4 260.786 470.472 261.341 469.64C261.917 468.787 262.749 468.115 263.837 467.624C264.946 467.133 266.258 466.888 267.773 466.888C270.013 466.888 271.773 467.443 273.053 468.552C274.354 469.661 275.101 471.133 275.293 472.968H270.237C270.151 472.349 269.874 471.859 269.405 471.496C268.957 471.133 268.359 470.952 267.613 470.952C266.973 470.952 266.482 471.08 266.141 471.336C265.799 471.571 265.629 471.901 265.629 472.328C265.629 472.84 265.895 473.224 266.429 473.48C266.983 473.736 267.837 473.992 268.989 474.248C270.311 474.589 271.389 474.931 272.221 475.272C273.053 475.592 273.778 476.125 274.397 476.872C275.037 477.597 275.367 478.579 275.389 479.816C275.389 480.861 275.09 481.8 274.493 482.632C273.917 483.443 273.074 484.083 271.965 484.552C270.877 485.021 269.607 485.256 268.157 485.256ZM284.976 461.736L284.336 477.064H279.696L279.056 461.736H284.976ZM282.096 485.256C281.136 485.256 280.347 484.979 279.728 484.424C279.131 483.848 278.832 483.144 278.832 482.312C278.832 481.459 279.131 480.744 279.728 480.168C280.347 479.592 281.136 479.304 282.096 479.304C283.035 479.304 283.803 479.592 284.4 480.168C285.019 480.744 285.328 481.459 285.328 482.312C285.328 483.144 285.019 483.848 284.4 484.424C283.803 484.979 283.035 485.256 282.096 485.256Z" fill="#00A991"/>
</svg>
