<svg width="43" height="43" viewBox="0 0 43 43" fill="none" xmlns="http://www.w3.org/2000/svg">
<g clip-path="url(#clip0_11_228)">
<path d="M12.5417 43H8.95833C4.01871 43 0 38.9813 0 34.0417V30.4583C0 29.4675 0.800875 28.6667 1.79167 28.6667C2.78246 28.6667 3.58333 29.4675 3.58333 30.4583V34.0417C3.58333 37.0051 5.99492 39.4167 8.95833 39.4167H12.5417C13.5325 39.4167 14.3333 40.2175 14.3333 41.2083C14.3333 42.1991 13.5325 43 12.5417 43ZM43 34.0417V30.4583C43 29.4675 42.1991 28.6667 41.2083 28.6667C40.2175 28.6667 39.4167 29.4675 39.4167 30.4583V34.0417C39.4167 37.0051 37.0051 39.4167 34.0417 39.4167H30.4583C29.4675 39.4167 28.6667 40.2175 28.6667 41.2083C28.6667 42.1991 29.4675 43 30.4583 43H34.0417C38.9813 43 43 38.9813 43 34.0417ZM43 12.5417V8.95833C43 4.01871 38.9813 0 34.0417 0H30.4583C29.4675 0 28.6667 0.800875 28.6667 1.79167C28.6667 2.78246 29.4675 3.58333 30.4583 3.58333H34.0417C37.0051 3.58333 39.4167 5.99492 39.4167 8.95833V12.5417C39.4167 13.5325 40.2175 14.3333 41.2083 14.3333C42.1991 14.3333 43 13.5325 43 12.5417ZM3.58333 12.5417V8.95833C3.58333 5.99492 5.99492 3.58333 8.95833 3.58333H12.5417C13.5325 3.58333 14.3333 2.78246 14.3333 1.79167C14.3333 0.800875 13.5325 0 12.5417 0H8.95833C4.01871 0 0 4.01871 0 8.95833V12.5417C0 13.5325 0.800875 14.3333 1.79167 14.3333C2.78246 14.3333 3.58333 13.5325 3.58333 12.5417ZM32.25 17.9167V25.0833C32.25 28.0467 29.8384 30.4583 26.875 30.4583H16.125C13.1616 30.4583 10.75 28.0467 10.75 25.0833V17.9167C10.75 14.9801 13.1168 12.5882 16.0408 12.5435L17.2878 10.6031C17.9471 9.57467 19.0741 8.95833 20.3014 8.95833H22.6986C23.9259 8.95833 25.0511 9.57467 25.714 10.6049L26.9592 12.5435C29.885 12.5882 32.25 14.9801 32.25 17.9167ZM25.0833 21.5C25.0833 19.5202 23.4798 17.9167 21.5 17.9167C19.5202 17.9167 17.9167 19.5202 17.9167 21.5C17.9167 23.4798 19.5202 25.0833 21.5 25.0833C23.4798 25.0833 25.0833 23.4798 25.0833 21.5Z" fill="#B6BDC3"/>
</g>
<defs>
<clipPath id="clip0_11_228">
<rect width="43" height="43" fill="white"/>
</clipPath>
</defs>
</svg>
