<svg width="25" height="25" viewBox="0 0 25 25" fill="none" xmlns="http://www.w3.org/2000/svg">
<path d="M16.4393 12.395L23.8358 19.7992C24.316 20.345 24.5704 21.0532 24.5472 21.7798C24.524 22.5064 24.225 23.1969 23.7109 23.711C23.1969 24.2251 22.5063 24.5241 21.7797 24.5473C21.0531 24.5705 20.3449 24.3161 19.7991 23.8359L12.3949 16.4393L4.9774 23.8588C4.71172 24.1245 4.39631 24.3352 4.04918 24.479C3.70205 24.6228 3.33 24.6968 2.95427 24.6968C2.57854 24.6968 2.20649 24.6228 1.85936 24.479C1.51223 24.3352 1.19682 24.1245 0.931139 23.8588C0.665457 23.5931 0.454707 23.2777 0.310922 22.9305C0.167136 22.5834 0.0931302 22.2114 0.0931302 21.8356C0.0931302 21.4599 0.167136 21.0879 0.310922 20.7407C0.454707 20.3936 0.665457 20.0782 0.931139 19.8125L8.35056 12.395L0.95402 4.99273C0.663942 4.73342 0.429817 4.41766 0.265971 4.06476C0.102126 3.71186 0.0120042 3.32924 0.00111952 2.94031C-0.00976512 2.55138 0.0588162 2.16432 0.202668 1.80281C0.34652 1.44129 0.562618 1.11293 0.83774 0.837807C1.11286 0.562685 1.44122 0.346588 1.80274 0.202736C2.16425 0.0588837 2.55131 -0.00969887 2.94024 0.00118637C3.32917 0.0120697 3.71179 0.102194 4.06469 0.266041C4.41759 0.429886 4.73335 0.664009 4.99266 0.954088L12.3949 8.35063L19.7896 0.954088C20.3261 0.417521 21.0539 0.116081 21.8127 0.116081C22.5715 0.116081 23.2993 0.417521 23.8358 0.954088C24.3724 1.49066 24.6738 2.2184 24.6738 2.97722C24.6738 3.73604 24.3724 4.46379 23.8358 5.00035L16.4393 12.395Z" fill="#B6BDC3"/>
</svg>
