<svg width="412" height="890" viewBox="0 0 412 890" fill="none" xmlns="http://www.w3.org/2000/svg">
<path d="M0 44C0 19.6995 19.6995 0 44 0H412V890H44C19.6995 890 0 870.301 0 846V44Z" fill="#13293D"/>
<path d="M70.112 405.224C68.4693 405.224 66.9973 404.957 65.696 404.424C64.3947 403.891 63.3493 403.101 62.56 402.056C61.792 401.011 61.3867 399.752 61.344 398.28H67.168C67.2533 399.112 67.5413 399.752 68.032 400.2C68.5227 400.627 69.1627 400.84 69.952 400.84C70.7627 400.84 71.4027 400.659 71.872 400.296C72.3413 399.912 72.576 399.389 72.576 398.728C72.576 398.173 72.384 397.715 72 397.352C71.6373 396.989 71.1787 396.691 70.624 396.456C70.0907 396.221 69.3227 395.955 68.32 395.656C66.8693 395.208 65.6853 394.76 64.768 394.312C63.8507 393.864 63.0613 393.203 62.4 392.328C61.7387 391.453 61.408 390.312 61.408 388.904C61.408 386.813 62.1653 385.181 63.68 384.008C65.1947 382.813 67.168 382.216 69.6 382.216C72.0747 382.216 74.0693 382.813 75.584 384.008C77.0987 385.181 77.9093 386.824 78.016 388.936H72.096C72.0533 388.211 71.7867 387.645 71.296 387.24C70.8053 386.813 70.176 386.6 69.408 386.6C68.7467 386.6 68.2133 386.781 67.808 387.144C67.4027 387.485 67.2 387.987 67.2 388.648C67.2 389.373 67.5413 389.939 68.224 390.344C68.9067 390.749 69.9733 391.187 71.424 391.656C72.8747 392.147 74.048 392.616 74.944 393.064C75.8613 393.512 76.6507 394.163 77.312 395.016C77.9733 395.869 78.304 396.968 78.304 398.312C78.304 399.592 77.9733 400.755 77.312 401.8C76.672 402.845 75.7333 403.677 74.496 404.296C73.2587 404.915 71.7973 405.224 70.112 405.224ZM88.8395 405.256C87.0902 405.256 85.5115 404.883 84.1035 404.136C82.7168 403.389 81.6182 402.323 80.8075 400.936C80.0182 399.549 79.6235 397.928 79.6235 396.072C79.6235 394.237 80.0288 392.627 80.8395 391.24C81.6502 389.832 82.7595 388.755 84.1675 388.008C85.5755 387.261 87.1542 386.888 88.9035 386.888C90.6528 386.888 92.2315 387.261 93.6395 388.008C95.0475 388.755 96.1568 389.832 96.9675 391.24C97.7782 392.627 98.1835 394.237 98.1835 396.072C98.1835 397.907 97.7675 399.528 96.9355 400.936C96.1248 402.323 95.0048 403.389 93.5755 404.136C92.1675 404.883 90.5888 405.256 88.8395 405.256ZM88.8395 400.52C89.8848 400.52 90.7702 400.136 91.4955 399.368C92.2422 398.6 92.6155 397.501 92.6155 396.072C92.6155 394.643 92.2528 393.544 91.5275 392.776C90.8235 392.008 89.9488 391.624 88.9035 391.624C87.8368 391.624 86.9515 392.008 86.2475 392.776C85.5435 393.523 85.1915 394.621 85.1915 396.072C85.1915 397.501 85.5328 398.6 86.2155 399.368C86.9195 400.136 87.7942 400.52 88.8395 400.52ZM122.911 386.952C125.129 386.952 126.889 387.624 128.191 388.968C129.513 390.312 130.175 392.179 130.175 394.568V405H124.735V395.304C124.735 394.152 124.425 393.267 123.807 392.648C123.209 392.008 122.377 391.688 121.311 391.688C120.244 391.688 119.401 392.008 118.783 392.648C118.185 393.267 117.887 394.152 117.887 395.304V405H112.447V395.304C112.447 394.152 112.137 393.267 111.519 392.648C110.921 392.008 110.089 391.688 109.023 391.688C107.956 391.688 107.113 392.008 106.495 392.648C105.897 393.267 105.599 394.152 105.599 395.304V405H100.127V387.144H105.599V389.384C106.153 388.637 106.879 388.051 107.775 387.624C108.671 387.176 109.684 386.952 110.815 386.952C112.159 386.952 113.353 387.24 114.399 387.816C115.465 388.392 116.297 389.213 116.895 390.28C117.513 389.299 118.356 388.499 119.423 387.88C120.489 387.261 121.652 386.952 122.911 386.952ZM141.17 405.256C139.42 405.256 137.842 404.883 136.434 404.136C135.047 403.389 133.948 402.323 133.138 400.936C132.348 399.549 131.954 397.928 131.954 396.072C131.954 394.237 132.359 392.627 133.17 391.24C133.98 389.832 135.09 388.755 136.498 388.008C137.906 387.261 139.484 386.888 141.234 386.888C142.983 386.888 144.562 387.261 145.97 388.008C147.378 388.755 148.487 389.832 149.298 391.24C150.108 392.627 150.514 394.237 150.514 396.072C150.514 397.907 150.098 399.528 149.266 400.936C148.455 402.323 147.335 403.389 145.906 404.136C144.498 404.883 142.919 405.256 141.17 405.256ZM141.17 400.52C142.215 400.52 143.1 400.136 143.826 399.368C144.572 398.6 144.946 397.501 144.946 396.072C144.946 394.643 144.583 393.544 143.858 392.776C143.154 392.008 142.279 391.624 141.234 391.624C140.167 391.624 139.282 392.008 138.578 392.776C137.874 393.523 137.522 394.621 137.522 396.072C137.522 397.501 137.863 398.6 138.546 399.368C139.25 400.136 140.124 400.52 141.17 400.52ZM159.721 405.256C158.163 405.256 156.777 404.989 155.561 404.456C154.345 403.923 153.385 403.197 152.681 402.28C151.977 401.341 151.582 400.296 151.497 399.144H156.905C156.969 399.763 157.257 400.264 157.769 400.648C158.281 401.032 158.91 401.224 159.657 401.224C160.339 401.224 160.862 401.096 161.225 400.84C161.609 400.563 161.801 400.211 161.801 399.784C161.801 399.272 161.534 398.899 161.001 398.664C160.467 398.408 159.603 398.131 158.409 397.832C157.129 397.533 156.062 397.224 155.209 396.904C154.355 396.563 153.619 396.04 153.001 395.336C152.382 394.611 152.073 393.64 152.073 392.424C152.073 391.4 152.35 390.472 152.905 389.64C153.481 388.787 154.313 388.115 155.401 387.624C156.51 387.133 157.822 386.888 159.337 386.888C161.577 386.888 163.337 387.443 164.617 388.552C165.918 389.661 166.665 391.133 166.857 392.968H161.801C161.715 392.349 161.438 391.859 160.969 391.496C160.521 391.133 159.923 390.952 159.177 390.952C158.537 390.952 158.046 391.08 157.705 391.336C157.363 391.571 157.193 391.901 157.193 392.328C157.193 392.84 157.459 393.224 157.993 393.48C158.547 393.736 159.401 393.992 160.553 394.248C161.875 394.589 162.953 394.931 163.785 395.272C164.617 395.592 165.342 396.125 165.961 396.872C166.601 397.597 166.931 398.579 166.953 399.816C166.953 400.861 166.654 401.8 166.057 402.632C165.481 403.443 164.638 404.083 163.529 404.552C162.441 405.021 161.171 405.256 159.721 405.256ZM183.289 405.256C181.54 405.256 179.961 404.883 178.553 404.136C177.167 403.389 176.068 402.323 175.257 400.936C174.468 399.549 174.073 397.928 174.073 396.072C174.073 394.237 174.479 392.627 175.289 391.24C176.1 389.832 177.209 388.755 178.617 388.008C180.025 387.261 181.604 386.888 183.353 386.888C185.103 386.888 186.681 387.261 188.089 388.008C189.497 388.755 190.607 389.832 191.417 391.24C192.228 392.627 192.633 394.237 192.633 396.072C192.633 397.907 192.217 399.528 191.385 400.936C190.575 402.323 189.455 403.389 188.025 404.136C186.617 404.883 185.039 405.256 183.289 405.256ZM183.289 400.52C184.335 400.52 185.22 400.136 185.945 399.368C186.692 398.6 187.065 397.501 187.065 396.072C187.065 394.643 186.703 393.544 185.977 392.776C185.273 392.008 184.399 391.624 183.353 391.624C182.287 391.624 181.401 392.008 180.697 392.776C179.993 393.523 179.641 394.621 179.641 396.072C179.641 397.501 179.983 398.6 180.665 399.368C181.369 400.136 182.244 400.52 183.289 400.52ZM223.182 386.952C225.4 386.952 227.16 387.624 228.462 388.968C229.784 390.312 230.446 392.179 230.446 394.568V405H225.006V395.304C225.006 394.152 224.696 393.267 224.078 392.648C223.48 392.008 222.648 391.688 221.582 391.688C220.515 391.688 219.672 392.008 219.054 392.648C218.456 393.267 218.158 394.152 218.158 395.304V405H212.718V395.304C212.718 394.152 212.408 393.267 211.79 392.648C211.192 392.008 210.36 391.688 209.294 391.688C208.227 391.688 207.384 392.008 206.766 392.648C206.168 393.267 205.87 394.152 205.87 395.304V405H200.398V387.144H205.87V389.384C206.424 388.637 207.15 388.051 208.046 387.624C208.942 387.176 209.955 386.952 211.086 386.952C212.43 386.952 213.624 387.24 214.67 387.816C215.736 388.392 216.568 389.213 217.166 390.28C217.784 389.299 218.627 388.499 219.694 387.88C220.76 387.261 221.923 386.952 223.182 386.952ZM250.145 395.784C250.145 396.296 250.113 396.829 250.049 397.384H237.665C237.75 398.493 238.102 399.347 238.721 399.944C239.361 400.52 240.139 400.808 241.057 400.808C242.422 400.808 243.371 400.232 243.905 399.08H249.729C249.43 400.253 248.886 401.309 248.097 402.248C247.329 403.187 246.358 403.923 245.185 404.456C244.011 404.989 242.699 405.256 241.249 405.256C239.499 405.256 237.942 404.883 236.577 404.136C235.211 403.389 234.145 402.323 233.377 400.936C232.609 399.549 232.225 397.928 232.225 396.072C232.225 394.216 232.598 392.595 233.345 391.208C234.113 389.821 235.179 388.755 236.545 388.008C237.91 387.261 239.478 386.888 241.249 386.888C242.977 386.888 244.513 387.251 245.857 387.976C247.201 388.701 248.246 389.736 248.993 391.08C249.761 392.424 250.145 393.992 250.145 395.784ZM244.545 394.344C244.545 393.405 244.225 392.659 243.585 392.104C242.945 391.549 242.145 391.272 241.185 391.272C240.267 391.272 239.489 391.539 238.849 392.072C238.23 392.605 237.846 393.363 237.697 394.344H244.545ZM257.543 381.32V405H252.071V381.32H257.543ZM271.525 386.952C273.573 386.952 275.216 387.635 276.453 389C277.69 390.344 278.309 392.2 278.309 394.568V405H272.869V395.304C272.869 394.109 272.56 393.181 271.941 392.52C271.322 391.859 270.49 391.528 269.445 391.528C268.4 391.528 267.568 391.859 266.949 392.52C266.33 393.181 266.021 394.109 266.021 395.304V405H260.549V381.32H266.021V389.544C266.576 388.755 267.333 388.125 268.293 387.656C269.253 387.187 270.33 386.952 271.525 386.952ZM289.279 405.256C287.53 405.256 285.951 404.883 284.543 404.136C283.157 403.389 282.058 402.323 281.247 400.936C280.458 399.549 280.063 397.928 280.063 396.072C280.063 394.237 280.469 392.627 281.279 391.24C282.09 389.832 283.199 388.755 284.607 388.008C286.015 387.261 287.594 386.888 289.343 386.888C291.093 386.888 292.671 387.261 294.079 388.008C295.487 388.755 296.597 389.832 297.407 391.24C298.218 392.627 298.623 394.237 298.623 396.072C298.623 397.907 298.207 399.528 297.375 400.936C296.565 402.323 295.445 403.389 294.015 404.136C292.607 404.883 291.029 405.256 289.279 405.256ZM289.279 400.52C290.325 400.52 291.21 400.136 291.935 399.368C292.682 398.6 293.055 397.501 293.055 396.072C293.055 394.643 292.693 393.544 291.967 392.776C291.263 392.008 290.389 391.624 289.343 391.624C288.277 391.624 287.391 392.008 286.687 392.776C285.983 393.523 285.631 394.621 285.631 396.072C285.631 397.501 285.973 398.6 286.655 399.368C287.359 400.136 288.234 400.52 289.279 400.52ZM306.039 390.12C306.679 389.139 307.479 388.371 308.439 387.816C309.399 387.24 310.465 386.952 311.639 386.952V392.744H310.135C308.769 392.744 307.745 393.043 307.063 393.64C306.38 394.216 306.039 395.24 306.039 396.712V405H300.567V387.144H306.039V390.12ZM69.248 448.256C67.6907 448.256 66.304 447.989 65.088 447.456C63.872 446.923 62.912 446.197 62.208 445.28C61.504 444.341 61.1093 443.296 61.024 442.144H66.432C66.496 442.763 66.784 443.264 67.296 443.648C67.808 444.032 68.4373 444.224 69.184 444.224C69.8667 444.224 70.3893 444.096 70.752 443.84C71.136 443.563 71.328 443.211 71.328 442.784C71.328 442.272 71.0613 441.899 70.528 441.664C69.9947 441.408 69.1307 441.131 67.936 440.832C66.656 440.533 65.5893 440.224 64.736 439.904C63.8827 439.563 63.1467 439.04 62.528 438.336C61.9093 437.611 61.6 436.64 61.6 435.424C61.6 434.4 61.8773 433.472 62.432 432.64C63.008 431.787 63.84 431.115 64.928 430.624C66.0373 430.133 67.3493 429.888 68.864 429.888C71.104 429.888 72.864 430.443 74.144 431.552C75.4453 432.661 76.192 434.133 76.384 435.968H71.328C71.2427 435.349 70.9653 434.859 70.496 434.496C70.048 434.133 69.4507 433.952 68.704 433.952C68.064 433.952 67.5733 434.08 67.232 434.336C66.8907 434.571 66.72 434.901 66.72 435.328C66.72 435.84 66.9867 436.224 67.52 436.48C68.0747 436.736 68.928 436.992 70.08 437.248C71.4027 437.589 72.48 437.931 73.312 438.272C74.144 438.592 74.8693 439.125 75.488 439.872C76.128 440.597 76.4587 441.579 76.48 442.816C76.48 443.861 76.1813 444.8 75.584 445.632C75.008 446.443 74.1653 447.083 73.056 447.552C71.968 448.021 70.6987 448.256 69.248 448.256ZM81.6198 428.288C80.6598 428.288 79.8704 428.011 79.2518 427.456C78.6544 426.88 78.3558 426.176 78.3558 425.344C78.3558 424.491 78.6544 423.787 79.2518 423.232C79.8704 422.656 80.6598 422.368 81.6198 422.368C82.5584 422.368 83.3264 422.656 83.9238 423.232C84.5424 423.787 84.8518 424.491 84.8518 425.344C84.8518 426.176 84.5424 426.88 83.9238 427.456C83.3264 428.011 82.5584 428.288 81.6198 428.288ZM84.3398 430.144V448H78.8678V430.144H84.3398ZM97.2973 443.36V448H94.5133C92.5293 448 90.9826 447.52 89.8733 446.56C88.7639 445.579 88.2092 443.989 88.2092 441.792V434.688H86.0332V430.144H88.2092V425.792H93.6813V430.144H97.2653V434.688H93.6813V441.856C93.6813 442.389 93.8093 442.773 94.0653 443.008C94.3213 443.243 94.7479 443.36 95.3453 443.36H97.2973ZM116.217 438.784C116.217 439.296 116.185 439.829 116.121 440.384H103.737C103.823 441.493 104.175 442.347 104.793 442.944C105.433 443.52 106.212 443.808 107.129 443.808C108.495 443.808 109.444 443.232 109.977 442.08H115.801C115.503 443.253 114.959 444.309 114.169 445.248C113.401 446.187 112.431 446.923 111.257 447.456C110.084 447.989 108.772 448.256 107.321 448.256C105.572 448.256 104.015 447.883 102.649 447.136C101.284 446.389 100.217 445.323 99.4492 443.936C98.6812 442.549 98.2972 440.928 98.2972 439.072C98.2972 437.216 98.6706 435.595 99.4172 434.208C100.185 432.821 101.252 431.755 102.617 431.008C103.983 430.261 105.551 429.888 107.321 429.888C109.049 429.888 110.585 430.251 111.929 430.976C113.273 431.701 114.319 432.736 115.065 434.08C115.833 435.424 116.217 436.992 116.217 438.784ZM110.617 437.344C110.617 436.405 110.297 435.659 109.657 435.104C109.017 434.549 108.217 434.272 107.257 434.272C106.34 434.272 105.561 434.539 104.921 435.072C104.303 435.605 103.919 436.363 103.769 437.344H110.617ZM129.437 432.672C129.971 431.84 130.707 431.168 131.645 430.656C132.584 430.144 133.683 429.888 134.941 429.888C136.413 429.888 137.747 430.261 138.941 431.008C140.136 431.755 141.075 432.821 141.757 434.208C142.461 435.595 142.813 437.205 142.813 439.04C142.813 440.875 142.461 442.496 141.757 443.904C141.075 445.291 140.136 446.368 138.941 447.136C137.747 447.883 136.413 448.256 134.941 448.256C133.704 448.256 132.605 448 131.645 447.488C130.707 446.976 129.971 446.315 129.437 445.504V456.512H123.965V430.144H129.437V432.672ZM137.245 439.04C137.245 437.675 136.861 436.608 136.093 435.84C135.347 435.051 134.419 434.656 133.309 434.656C132.221 434.656 131.293 435.051 130.525 435.84C129.779 436.629 129.405 437.707 129.405 439.072C129.405 440.437 129.779 441.515 130.525 442.304C131.293 443.093 132.221 443.488 133.309 443.488C134.397 443.488 135.325 443.093 136.093 442.304C136.861 441.493 137.245 440.405 137.245 439.04ZM143.636 439.04C143.636 437.205 143.977 435.595 144.66 434.208C145.364 432.821 146.313 431.755 147.508 431.008C148.703 430.261 150.036 429.888 151.508 429.888C152.767 429.888 153.865 430.144 154.804 430.656C155.764 431.168 156.5 431.84 157.012 432.672V430.144H162.484V448H157.012V445.472C156.479 446.304 155.732 446.976 154.772 447.488C153.833 448 152.735 448.256 151.476 448.256C150.025 448.256 148.703 447.883 147.508 447.136C146.313 446.368 145.364 445.291 144.66 443.904C143.977 442.496 143.636 440.875 143.636 439.04ZM157.012 439.072C157.012 437.707 156.628 436.629 155.86 435.84C155.113 435.051 154.196 434.656 153.108 434.656C152.02 434.656 151.092 435.051 150.324 435.84C149.577 436.608 149.204 437.675 149.204 439.04C149.204 440.405 149.577 441.493 150.324 442.304C151.092 443.093 152.02 443.488 153.108 443.488C154.196 443.488 155.113 443.093 155.86 442.304C156.628 441.515 157.012 440.437 157.012 439.072ZM170.955 433.12C171.595 432.139 172.395 431.371 173.355 430.816C174.315 430.24 175.381 429.952 176.555 429.952V435.744H175.051C173.685 435.744 172.661 436.043 171.979 436.64C171.296 437.216 170.955 438.24 170.955 439.712V448H165.483V430.144H170.955V433.12ZM177.122 439.04C177.122 437.205 177.464 435.595 178.146 434.208C178.85 432.821 179.8 431.755 180.994 431.008C182.189 430.261 183.522 429.888 184.994 429.888C186.253 429.888 187.352 430.144 188.29 430.656C189.25 431.168 189.986 431.84 190.498 432.672V430.144H195.97V448H190.498V445.472C189.965 446.304 189.218 446.976 188.258 447.488C187.32 448 186.221 448.256 184.962 448.256C183.512 448.256 182.189 447.883 180.994 447.136C179.8 446.368 178.85 445.291 178.146 443.904C177.464 442.496 177.122 440.875 177.122 439.04ZM190.498 439.072C190.498 437.707 190.114 436.629 189.346 435.84C188.6 435.051 187.682 434.656 186.594 434.656C185.506 434.656 184.578 435.051 183.81 435.84C183.064 436.608 182.69 437.675 182.69 439.04C182.69 440.405 183.064 441.493 183.81 442.304C184.578 443.093 185.506 443.488 186.594 443.488C187.682 443.488 188.6 443.093 189.346 442.304C190.114 441.515 190.498 440.437 190.498 439.072ZM70.112 491.256C68.3627 491.256 66.784 490.883 65.376 490.136C63.9893 489.389 62.8907 488.323 62.08 486.936C61.2907 485.549 60.896 483.928 60.896 482.072C60.896 480.237 61.3013 478.627 62.112 477.24C62.9227 475.832 64.032 474.755 65.44 474.008C66.848 473.261 68.4267 472.888 70.176 472.888C71.9253 472.888 73.504 473.261 74.912 474.008C76.32 474.755 77.4293 475.832 78.24 477.24C79.0507 478.627 79.456 480.237 79.456 482.072C79.456 483.907 79.04 485.528 78.208 486.936C77.3973 488.323 76.2773 489.389 74.848 490.136C73.44 490.883 71.8613 491.256 70.112 491.256ZM70.112 486.52C71.1573 486.52 72.0427 486.136 72.768 485.368C73.5147 484.6 73.888 483.501 73.888 482.072C73.888 480.643 73.5253 479.544 72.8 478.776C72.096 478.008 71.2213 477.624 70.176 477.624C69.1093 477.624 68.224 478.008 67.52 478.776C66.816 479.523 66.464 480.621 66.464 482.072C66.464 483.501 66.8053 484.6 67.488 485.368C68.192 486.136 69.0667 486.52 70.112 486.52ZM86.871 476.12C87.511 475.139 88.311 474.371 89.271 473.816C90.231 473.24 91.2977 472.952 92.471 472.952V478.744H90.967C89.6017 478.744 88.5777 479.043 87.895 479.64C87.2123 480.216 86.871 481.24 86.871 482.712V491H81.399V473.144H86.871V476.12ZM100.911 472.888C102.169 472.888 103.268 473.144 104.207 473.656C105.167 474.168 105.903 474.84 106.415 475.672V473.144H111.887V490.968C111.887 492.611 111.556 494.093 110.895 495.416C110.255 496.76 109.263 497.827 107.919 498.616C106.596 499.405 104.943 499.8 102.959 499.8C100.313 499.8 98.1692 499.171 96.5265 497.912C94.8838 496.675 93.9452 494.989 93.7105 492.856H99.1185C99.2892 493.539 99.6945 494.072 100.335 494.456C100.975 494.861 101.764 495.064 102.703 495.064C103.833 495.064 104.729 494.733 105.391 494.072C106.073 493.432 106.415 492.397 106.415 490.968V488.44C105.881 489.272 105.145 489.955 104.207 490.488C103.268 491 102.169 491.256 100.911 491.256C99.4385 491.256 98.1052 490.883 96.9105 490.136C95.7158 489.368 94.7665 488.291 94.0625 486.904C93.3798 485.496 93.0385 483.875 93.0385 482.04C93.0385 480.205 93.3798 478.595 94.0625 477.208C94.7665 475.821 95.7158 474.755 96.9105 474.008C98.1052 473.261 99.4385 472.888 100.911 472.888ZM106.415 482.072C106.415 480.707 106.031 479.629 105.263 478.84C104.516 478.051 103.599 477.656 102.511 477.656C101.423 477.656 100.495 478.051 99.7265 478.84C98.9798 479.608 98.6065 480.675 98.6065 482.04C98.6065 483.405 98.9798 484.493 99.7265 485.304C100.495 486.093 101.423 486.488 102.511 486.488C103.599 486.488 104.516 486.093 105.263 485.304C106.031 484.515 106.415 483.437 106.415 482.072ZM113.797 482.04C113.797 480.205 114.139 478.595 114.821 477.208C115.525 475.821 116.475 474.755 117.669 474.008C118.864 473.261 120.197 472.888 121.669 472.888C122.928 472.888 124.027 473.144 124.965 473.656C125.925 474.168 126.661 474.84 127.173 475.672V473.144H132.645V491H127.173V488.472C126.64 489.304 125.893 489.976 124.933 490.488C123.995 491 122.896 491.256 121.637 491.256C120.187 491.256 118.864 490.883 117.669 490.136C116.475 489.368 115.525 488.291 114.821 486.904C114.139 485.496 113.797 483.875 113.797 482.04ZM127.173 482.072C127.173 480.707 126.789 479.629 126.021 478.84C125.275 478.051 124.357 477.656 123.269 477.656C122.181 477.656 121.253 478.051 120.485 478.84C119.739 479.608 119.365 480.675 119.365 482.04C119.365 483.405 119.739 484.493 120.485 485.304C121.253 486.093 122.181 486.488 123.269 486.488C124.357 486.488 125.275 486.093 126.021 485.304C126.789 484.515 127.173 483.437 127.173 482.072ZM146.524 472.952C148.615 472.952 150.279 473.635 151.516 475C152.775 476.344 153.404 478.2 153.404 480.568V491H147.964V481.304C147.964 480.109 147.655 479.181 147.036 478.52C146.417 477.859 145.585 477.528 144.54 477.528C143.495 477.528 142.663 477.859 142.044 478.52C141.425 479.181 141.116 480.109 141.116 481.304V491H135.644V473.144H141.116V475.512C141.671 474.723 142.417 474.104 143.356 473.656C144.295 473.187 145.351 472.952 146.524 472.952ZM158.998 471.288C158.038 471.288 157.249 471.011 156.63 470.456C156.033 469.88 155.734 469.176 155.734 468.344C155.734 467.491 156.033 466.787 156.63 466.232C157.249 465.656 158.038 465.368 158.998 465.368C159.937 465.368 160.705 465.656 161.302 466.232C161.921 466.787 162.23 467.491 162.23 468.344C162.23 469.176 161.921 469.88 161.302 470.456C160.705 471.011 159.937 471.288 158.998 471.288ZM161.718 473.144V491H156.246V473.144H161.718ZM169.844 486.488H177.588V491H163.732V486.648L171.156 477.656H163.796V473.144H177.428V477.496L169.844 486.488ZM178.551 482.04C178.551 480.205 178.892 478.595 179.575 477.208C180.279 475.821 181.228 474.755 182.423 474.008C183.618 473.261 184.951 472.888 186.423 472.888C187.682 472.888 188.78 473.144 189.719 473.656C190.679 474.168 191.415 474.84 191.927 475.672V473.144H197.399V491H191.927V488.472C191.394 489.304 190.647 489.976 189.687 490.488C188.748 491 187.65 491.256 186.391 491.256C184.94 491.256 183.618 490.883 182.423 490.136C181.228 489.368 180.279 488.291 179.575 486.904C178.892 485.496 178.551 483.875 178.551 482.04ZM191.927 482.072C191.927 480.707 191.543 479.629 190.775 478.84C190.028 478.051 189.111 477.656 188.023 477.656C186.935 477.656 186.007 478.051 185.239 478.84C184.492 479.608 184.119 480.675 184.119 482.04C184.119 483.405 184.492 484.493 185.239 485.304C186.007 486.093 186.935 486.488 188.023 486.488C189.111 486.488 190.028 486.093 190.775 485.304C191.543 484.515 191.927 483.437 191.927 482.072ZM208.174 486.584C209.582 486.584 210.531 485.901 211.022 484.536H216.846C216.44 486.349 215.63 487.832 214.414 488.984C213.198 490.136 211.683 490.851 209.87 491.128V492.312C210.979 492.312 211.95 492.611 212.782 493.208C213.614 493.827 214.03 494.744 214.03 495.96C214.03 497.176 213.592 498.093 212.718 498.712C211.843 499.352 210.798 499.672 209.582 499.672H204.654V496.664H208.846C209.272 496.664 209.592 496.6 209.806 496.472C210.019 496.344 210.126 496.131 210.126 495.832C210.126 495.533 210.019 495.32 209.806 495.192C209.592 495.085 209.272 495.032 208.846 495.032H206.574V491.128C204.376 490.787 202.616 489.816 201.294 488.216C199.971 486.595 199.31 484.547 199.31 482.072C199.31 480.216 199.683 478.595 200.43 477.208C201.198 475.821 202.254 474.755 203.598 474.008C204.963 473.261 206.52 472.888 208.27 472.888C210.51 472.888 212.376 473.475 213.87 474.648C215.384 475.821 216.376 477.475 216.846 479.608H211.022C210.531 478.243 209.582 477.56 208.174 477.56C207.171 477.56 206.371 477.955 205.774 478.744C205.176 479.512 204.878 480.621 204.878 482.072C204.878 483.523 205.176 484.643 205.774 485.432C206.371 486.2 207.171 486.584 208.174 486.584ZM217.725 482.04C217.725 480.205 218.066 478.595 218.749 477.208C219.453 475.821 220.402 474.755 221.597 474.008C222.791 473.261 224.125 472.888 225.597 472.888C226.855 472.888 227.954 473.144 228.893 473.656C229.853 474.168 230.589 474.84 231.101 475.672V473.144H236.573V491H231.101V488.472C230.567 489.304 229.821 489.976 228.861 490.488C227.922 491 226.823 491.256 225.565 491.256C224.114 491.256 222.791 490.883 221.597 490.136C220.402 489.368 219.453 488.291 218.749 486.904C218.066 485.496 217.725 483.875 217.725 482.04ZM231.101 482.072C231.101 480.707 230.717 479.629 229.949 478.84C229.202 478.051 228.285 477.656 227.197 477.656C226.109 477.656 225.181 478.051 224.413 478.84C223.666 479.608 223.293 480.675 223.293 482.04C223.293 483.405 223.666 484.493 224.413 485.304C225.181 486.093 226.109 486.488 227.197 486.488C228.285 486.488 229.202 486.093 229.949 485.304C230.717 484.515 231.101 483.437 231.101 482.072ZM221.405 471.64C221.917 468.483 223.389 466.904 225.821 466.904C226.29 466.904 226.695 466.979 227.037 467.128C227.399 467.256 227.837 467.459 228.349 467.736C228.733 467.949 229.042 468.109 229.277 468.216C229.511 468.301 229.757 468.344 230.013 468.344C230.802 468.344 231.261 467.864 231.389 466.904H234.205C233.693 470.061 232.221 471.64 229.789 471.64C229.319 471.64 228.903 471.576 228.541 471.448C228.199 471.299 227.773 471.085 227.261 470.808C226.877 470.595 226.567 470.445 226.333 470.36C226.098 470.253 225.853 470.2 225.597 470.2C224.807 470.2 224.338 470.68 224.189 471.64H221.405ZM247.699 491.256C245.95 491.256 244.371 490.883 242.963 490.136C241.577 489.389 240.478 488.323 239.667 486.936C238.878 485.549 238.483 483.928 238.483 482.072C238.483 480.237 238.889 478.627 239.699 477.24C240.51 475.832 241.619 474.755 243.027 474.008C244.435 473.261 246.014 472.888 247.763 472.888C249.513 472.888 251.091 473.261 252.499 474.008C253.907 474.755 255.017 475.832 255.827 477.24C256.638 478.627 257.043 480.237 257.043 482.072C257.043 483.907 256.627 485.528 255.795 486.936C254.985 488.323 253.865 489.389 252.435 490.136C251.027 490.883 249.449 491.256 247.699 491.256ZM247.699 486.52C248.745 486.52 249.63 486.136 250.355 485.368C251.102 484.6 251.475 483.501 251.475 482.072C251.475 480.643 251.113 479.544 250.387 478.776C249.683 478.008 248.809 477.624 247.763 477.624C246.697 477.624 245.811 478.008 245.107 478.776C244.403 479.523 244.051 480.621 244.051 482.072C244.051 483.501 244.393 484.6 245.075 485.368C245.779 486.136 246.654 486.52 247.699 486.52ZM263.72 482.04C263.72 480.205 264.061 478.595 264.744 477.208C265.448 475.821 266.397 474.755 267.592 474.008C268.786 473.261 270.12 472.888 271.592 472.888C272.765 472.888 273.832 473.133 274.792 473.624C275.773 474.115 276.541 474.776 277.096 475.608V467.32H282.568V491H277.096V488.44C276.584 489.293 275.848 489.976 274.888 490.488C273.949 491 272.85 491.256 271.592 491.256C270.12 491.256 268.786 490.883 267.592 490.136C266.397 489.368 265.448 488.291 264.744 486.904C264.061 485.496 263.72 483.875 263.72 482.04ZM277.096 482.072C277.096 480.707 276.712 479.629 275.944 478.84C275.197 478.051 274.28 477.656 273.192 477.656C272.104 477.656 271.176 478.051 270.408 478.84C269.661 479.608 269.288 480.675 269.288 482.04C269.288 483.405 269.661 484.493 270.408 485.304C271.176 486.093 272.104 486.488 273.192 486.488C274.28 486.488 275.197 486.093 275.944 485.304C276.712 484.515 277.096 483.437 277.096 482.072ZM302.399 481.784C302.399 482.296 302.367 482.829 302.303 483.384H289.919C290.004 484.493 290.356 485.347 290.975 485.944C291.615 486.52 292.393 486.808 293.311 486.808C294.676 486.808 295.625 486.232 296.159 485.08H301.983C301.684 486.253 301.14 487.309 300.351 488.248C299.583 489.187 298.612 489.923 297.439 490.456C296.265 490.989 294.953 491.256 293.503 491.256C291.753 491.256 290.196 490.883 288.831 490.136C287.465 489.389 286.399 488.323 285.631 486.936C284.863 485.549 284.479 483.928 284.479 482.072C284.479 480.216 284.852 478.595 285.599 477.208C286.367 475.821 287.433 474.755 288.799 474.008C290.164 473.261 291.732 472.888 293.503 472.888C295.231 472.888 296.767 473.251 298.111 473.976C299.455 474.701 300.5 475.736 301.247 477.08C302.015 478.424 302.399 479.992 302.399 481.784ZM296.799 480.344C296.799 479.405 296.479 478.659 295.839 478.104C295.199 477.549 294.399 477.272 293.439 477.272C292.521 477.272 291.743 477.539 291.103 478.072C290.484 478.605 290.1 479.363 289.951 480.344H296.799Z" fill="white"/>
<path d="M70.944 520.688H68V534H62.528V520.688H60.544V516.144H62.528V515.632C62.528 513.435 63.1573 511.771 64.416 510.64C65.6747 509.488 67.52 508.912 69.952 508.912C70.3573 508.912 70.656 508.923 70.848 508.944V513.584C69.8027 513.52 69.0667 513.669 68.64 514.032C68.2133 514.395 68 515.045 68 515.984V516.144H70.944V520.688ZM80.6833 534.256C78.9339 534.256 77.3553 533.883 75.9473 533.136C74.5606 532.389 73.4619 531.323 72.6513 529.936C71.8619 528.549 71.4672 526.928 71.4672 525.072C71.4672 523.237 71.8726 521.627 72.6832 520.24C73.4939 518.832 74.6033 517.755 76.0113 517.008C77.4193 516.261 78.9979 515.888 80.7473 515.888C82.4966 515.888 84.0753 516.261 85.4833 517.008C86.8913 517.755 88.0006 518.832 88.8113 520.24C89.6219 521.627 90.0273 523.237 90.0273 525.072C90.0273 526.907 89.6113 528.528 88.7793 529.936C87.9686 531.323 86.8486 532.389 85.4193 533.136C84.0113 533.883 82.4326 534.256 80.6833 534.256ZM80.6833 529.52C81.7286 529.52 82.6139 529.136 83.3393 528.368C84.0859 527.6 84.4593 526.501 84.4593 525.072C84.4593 523.643 84.0966 522.544 83.3713 521.776C82.6673 521.008 81.7926 520.624 80.7473 520.624C79.6806 520.624 78.7953 521.008 78.0913 521.776C77.3873 522.523 77.0353 523.621 77.0353 525.072C77.0353 526.501 77.3766 527.6 78.0593 528.368C78.7633 529.136 79.6379 529.52 80.6833 529.52ZM97.4423 519.12C98.0823 518.139 98.8823 517.371 99.8423 516.816C100.802 516.24 101.869 515.952 103.042 515.952V521.744H101.538C100.173 521.744 99.1489 522.043 98.4663 522.64C97.7836 523.216 97.4423 524.24 97.4423 525.712V534H91.9703V516.144H97.4423V519.12ZM115.578 515.952C117.668 515.952 119.332 516.635 120.57 518C121.828 519.344 122.458 521.2 122.458 523.568V534H117.018V524.304C117.018 523.109 116.708 522.181 116.09 521.52C115.471 520.859 114.639 520.528 113.594 520.528C112.548 520.528 111.716 520.859 111.098 521.52C110.479 522.181 110.17 523.109 110.17 524.304V534H104.698V516.144H110.17V518.512C110.724 517.723 111.471 517.104 112.41 516.656C113.348 516.187 114.404 515.952 115.578 515.952ZM142.132 524.784C142.132 525.296 142.1 525.829 142.036 526.384H129.652C129.738 527.493 130.09 528.347 130.708 528.944C131.348 529.52 132.127 529.808 133.044 529.808C134.41 529.808 135.359 529.232 135.892 528.08H141.716C141.418 529.253 140.874 530.309 140.084 531.248C139.316 532.187 138.346 532.923 137.172 533.456C135.999 533.989 134.687 534.256 133.236 534.256C131.487 534.256 129.93 533.883 128.564 533.136C127.199 532.389 126.132 531.323 125.364 529.936C124.596 528.549 124.212 526.928 124.212 525.072C124.212 523.216 124.586 521.595 125.332 520.208C126.1 518.821 127.167 517.755 128.532 517.008C129.898 516.261 131.466 515.888 133.236 515.888C134.964 515.888 136.5 516.251 137.844 516.976C139.188 517.701 140.234 518.736 140.98 520.08C141.748 521.424 142.132 522.992 142.132 524.784ZM136.532 523.344C136.532 522.405 136.212 521.659 135.572 521.104C134.932 520.549 134.132 520.272 133.172 520.272C132.255 520.272 131.476 520.539 130.836 521.072C130.218 521.605 129.834 522.363 129.684 523.344H136.532ZM142.971 525.072C142.971 523.216 143.344 521.595 144.091 520.208C144.859 518.821 145.915 517.755 147.259 517.008C148.624 516.261 150.182 515.888 151.931 515.888C154.171 515.888 156.038 516.475 157.531 517.648C159.046 518.821 160.038 520.475 160.507 522.608H154.683C154.192 521.243 153.243 520.56 151.835 520.56C150.832 520.56 150.032 520.955 149.435 521.744C148.838 522.512 148.539 523.621 148.539 525.072C148.539 526.523 148.838 527.643 149.435 528.432C150.032 529.2 150.832 529.584 151.835 529.584C153.243 529.584 154.192 528.901 154.683 527.536H160.507C160.038 529.627 159.046 531.269 157.531 532.464C156.016 533.659 154.15 534.256 151.931 534.256C150.182 534.256 148.624 533.883 147.259 533.136C145.915 532.389 144.859 531.323 144.091 529.936C143.344 528.549 142.971 526.928 142.971 525.072ZM179.306 524.784C179.306 525.296 179.274 525.829 179.21 526.384H166.826C166.911 527.493 167.263 528.347 167.882 528.944C168.522 529.52 169.301 529.808 170.218 529.808C171.583 529.808 172.533 529.232 173.066 528.08H178.89C178.591 529.253 178.047 530.309 177.258 531.248C176.49 532.187 175.519 532.923 174.346 533.456C173.173 533.989 171.861 534.256 170.41 534.256C168.661 534.256 167.103 533.883 165.738 533.136C164.373 532.389 163.306 531.323 162.538 529.936C161.77 528.549 161.386 526.928 161.386 525.072C161.386 523.216 161.759 521.595 162.506 520.208C163.274 518.821 164.341 517.755 165.706 517.008C167.071 516.261 168.639 515.888 170.41 515.888C172.138 515.888 173.674 516.251 175.018 516.976C176.362 517.701 177.407 518.736 178.154 520.08C178.922 521.424 179.306 522.992 179.306 524.784ZM173.706 523.344C173.706 522.405 173.386 521.659 172.746 521.104C172.106 520.549 171.306 520.272 170.346 520.272C169.429 520.272 168.65 520.539 168.01 521.072C167.391 521.605 167.007 522.363 166.858 523.344H173.706ZM180.145 525.04C180.145 523.205 180.486 521.595 181.169 520.208C181.873 518.821 182.822 517.755 184.017 517.008C185.211 516.261 186.545 515.888 188.017 515.888C189.19 515.888 190.257 516.133 191.217 516.624C192.198 517.115 192.966 517.776 193.521 518.608V510.32H198.993V534H193.521V531.44C193.009 532.293 192.273 532.976 191.313 533.488C190.374 534 189.275 534.256 188.017 534.256C186.545 534.256 185.211 533.883 184.017 533.136C182.822 532.368 181.873 531.291 181.169 529.904C180.486 528.496 180.145 526.875 180.145 525.04ZM193.521 525.072C193.521 523.707 193.137 522.629 192.369 521.84C191.622 521.051 190.705 520.656 189.617 520.656C188.529 520.656 187.601 521.051 186.833 521.84C186.086 522.608 185.713 523.675 185.713 525.04C185.713 526.405 186.086 527.493 186.833 528.304C187.601 529.093 188.529 529.488 189.617 529.488C190.705 529.488 191.622 529.093 192.369 528.304C193.137 527.515 193.521 526.437 193.521 525.072ZM210.12 534.256C208.37 534.256 206.792 533.883 205.384 533.136C203.997 532.389 202.898 531.323 202.088 529.936C201.298 528.549 200.904 526.928 200.904 525.072C200.904 523.237 201.309 521.627 202.12 520.24C202.93 518.832 204.04 517.755 205.448 517.008C206.856 516.261 208.434 515.888 210.184 515.888C211.933 515.888 213.512 516.261 214.92 517.008C216.328 517.755 217.437 518.832 218.248 520.24C219.058 521.627 219.464 523.237 219.464 525.072C219.464 526.907 219.048 528.528 218.216 529.936C217.405 531.323 216.285 532.389 214.856 533.136C213.448 533.883 211.869 534.256 210.12 534.256ZM210.12 529.52C211.165 529.52 212.05 529.136 212.776 528.368C213.522 527.6 213.896 526.501 213.896 525.072C213.896 523.643 213.533 522.544 212.808 521.776C212.104 521.008 211.229 520.624 210.184 520.624C209.117 520.624 208.232 521.008 207.528 521.776C206.824 522.523 206.472 523.621 206.472 525.072C206.472 526.501 206.813 527.6 207.496 528.368C208.2 529.136 209.074 529.52 210.12 529.52ZM226.879 519.12C227.519 518.139 228.319 517.371 229.279 516.816C230.239 516.24 231.305 515.952 232.479 515.952V521.744H230.975C229.609 521.744 228.585 522.043 227.903 522.64C227.22 523.216 226.879 524.24 226.879 525.712V534H221.407V516.144H226.879V519.12ZM250.966 524.784C250.966 525.296 250.934 525.829 250.87 526.384H238.486C238.571 527.493 238.923 528.347 239.542 528.944C240.182 529.52 240.961 529.808 241.878 529.808C243.243 529.808 244.193 529.232 244.726 528.08H250.55C250.251 529.253 249.707 530.309 248.918 531.248C248.15 532.187 247.179 532.923 246.006 533.456C244.833 533.989 243.521 534.256 242.07 534.256C240.321 534.256 238.763 533.883 237.398 533.136C236.033 532.389 234.966 531.323 234.198 529.936C233.43 528.549 233.046 526.928 233.046 525.072C233.046 523.216 233.419 521.595 234.166 520.208C234.934 518.821 236.001 517.755 237.366 517.008C238.731 516.261 240.299 515.888 242.07 515.888C243.798 515.888 245.334 516.251 246.678 516.976C248.022 517.701 249.067 518.736 249.814 520.08C250.582 521.424 250.966 522.992 250.966 524.784ZM245.366 523.344C245.366 522.405 245.046 521.659 244.406 521.104C243.766 520.549 242.966 520.272 242.006 520.272C241.089 520.272 240.31 520.539 239.67 521.072C239.051 521.605 238.667 522.363 238.518 523.344H245.366ZM260.157 534.256C258.599 534.256 257.213 533.989 255.997 533.456C254.781 532.923 253.821 532.197 253.117 531.28C252.413 530.341 252.018 529.296 251.933 528.144H257.341C257.405 528.763 257.693 529.264 258.205 529.648C258.717 530.032 259.346 530.224 260.093 530.224C260.775 530.224 261.298 530.096 261.661 529.84C262.045 529.563 262.237 529.211 262.237 528.784C262.237 528.272 261.97 527.899 261.437 527.664C260.903 527.408 260.039 527.131 258.845 526.832C257.565 526.533 256.498 526.224 255.645 525.904C254.791 525.563 254.055 525.04 253.437 524.336C252.818 523.611 252.509 522.64 252.509 521.424C252.509 520.4 252.786 519.472 253.341 518.64C253.917 517.787 254.749 517.115 255.837 516.624C256.946 516.133 258.258 515.888 259.773 515.888C262.013 515.888 263.773 516.443 265.053 517.552C266.354 518.661 267.101 520.133 267.293 521.968H262.237C262.151 521.349 261.874 520.859 261.405 520.496C260.957 520.133 260.359 519.952 259.613 519.952C258.973 519.952 258.482 520.08 258.141 520.336C257.799 520.571 257.629 520.901 257.629 521.328C257.629 521.84 257.895 522.224 258.429 522.48C258.983 522.736 259.837 522.992 260.989 523.248C262.311 523.589 263.389 523.931 264.221 524.272C265.053 524.592 265.778 525.125 266.397 525.872C267.037 526.597 267.367 527.579 267.389 528.816C267.389 529.861 267.09 530.8 266.493 531.632C265.917 532.443 265.074 533.083 263.965 533.552C262.877 534.021 261.607 534.256 260.157 534.256ZM276.976 510.736L276.336 526.064H271.696L271.056 510.736H276.976ZM274.096 534.256C273.136 534.256 272.347 533.979 271.728 533.424C271.131 532.848 270.832 532.144 270.832 531.312C270.832 530.459 271.131 529.744 271.728 529.168C272.347 528.592 273.136 528.304 274.096 528.304C275.035 528.304 275.803 528.592 276.4 529.168C277.019 529.744 277.328 530.459 277.328 531.312C277.328 532.144 277.019 532.848 276.4 533.424C275.803 533.979 275.035 534.256 274.096 534.256Z" fill="#00A991"/>
</svg>
