<svg width="13" height="15" viewBox="0 0 13 15" fill="none" xmlns="http://www.w3.org/2000/svg">
<path d="M12.35 2.83333H10.335C10.1841 2.17499 9.78498 1.58345 9.20481 1.15842C8.62464 0.733386 7.89893 0.500848 7.15 0.5L5.85 0.5C5.10107 0.500848 4.37536 0.733386 3.79519 1.15842C3.21502 1.58345 2.81586 2.17499 2.665 2.83333H0.65C0.477609 2.83333 0.312279 2.89479 0.190381 3.00419C0.0684819 3.11358 0 3.26196 0 3.41667C0 3.57138 0.0684819 3.71975 0.190381 3.82915C0.312279 3.93854 0.477609 4 0.65 4H1.3V11.5833C1.30103 12.3566 1.64377 13.0979 2.25304 13.6447C2.86231 14.1915 3.68836 14.4991 4.55 14.5H8.45C9.31164 14.4991 10.1377 14.1915 10.747 13.6447C11.3562 13.0979 11.699 12.3566 11.7 11.5833V4H12.35C12.5224 4 12.6877 3.93854 12.8096 3.82915C12.9315 3.71975 13 3.57138 13 3.41667C13 3.26196 12.9315 3.11358 12.8096 3.00419C12.6877 2.89479 12.5224 2.83333 12.35 2.83333ZM5.85 1.66667H7.15C7.55318 1.66711 7.94633 1.77947 8.27555 1.98834C8.60476 2.19721 8.85392 2.49237 8.98885 2.83333H4.01115C4.14608 2.49237 4.39524 2.19721 4.72445 1.98834C5.05367 1.77947 5.44682 1.66711 5.85 1.66667ZM10.4 11.5833C10.4 12.0475 10.1946 12.4926 9.82886 12.8208C9.46316 13.149 8.96717 13.3333 8.45 13.3333H4.55C4.03283 13.3333 3.53684 13.149 3.17114 12.8208C2.80545 12.4926 2.6 12.0475 2.6 11.5833V4H10.4V11.5833Z" fill="#F6F6F6"/>
</svg>
