<svg width="16" height="15" viewBox="0 0 16 15" fill="none" xmlns="http://www.w3.org/2000/svg">
<path d="M12.2581 6.33309C12.4512 6.33309 12.6338 6.24968 12.7519 6.10735C12.87 5.96502 12.9112 5.77953 12.8637 5.60512C12.6694 4.89523 12.2731 4.24659 11.7181 3.72862L9.54 1.69578C8.71375 0.924649 7.615 0.5 6.44625 0.5H3.62438C1.90188 0.5 0.5 1.80836 0.5 3.41655V11.5829C0.5 13.1911 1.90187 14.4994 3.625 14.4994H5.5C5.845 14.4994 6.125 14.2381 6.125 13.9161C6.125 13.5941 5.845 13.3328 5.5 13.3328H3.625C2.59125 13.3328 1.75 12.5477 1.75 11.5829V3.41655C1.75 2.45175 2.59125 1.66662 3.625 1.66662H6.44688C6.54875 1.66662 6.65 1.67128 6.75 1.68003V4.58316C6.75 5.54796 7.59125 6.33309 8.625 6.33309H12.2581ZM8 4.58316V2.05102C8.23688 2.17818 8.4575 2.33567 8.65625 2.52117L10.8344 4.554C11.0306 4.73716 11.1987 4.94365 11.3362 5.16647H8.625C8.28063 5.16647 8 4.90457 8 4.58316ZM14.9513 7.42913C14.2425 6.76766 13.0075 6.76766 12.2994 7.42913L8.1075 11.3414C7.63563 11.7818 7.375 12.368 7.375 12.9916V13.9167C7.375 14.2387 7.655 14.5 8 14.5H8.99125C9.65938 14.5 10.2869 14.2568 10.7588 13.8164L14.9506 9.90411C15.305 9.57337 15.5 9.13414 15.5 8.66633C15.5 8.19851 15.305 7.75928 14.9513 7.42913ZM14.0669 9.07873L9.87438 12.991C9.63875 13.2115 9.325 13.3328 8.99063 13.3328H8.62437V12.991C8.62437 12.6795 8.75438 12.3867 8.99063 12.1662L13.1831 8.25393C13.4187 8.03344 13.8306 8.03344 14.0669 8.25393C14.185 8.36359 14.25 8.51 14.25 8.66633C14.25 8.82265 14.185 8.96848 14.0669 9.07873Z" fill="#F6F6F6"/>
</svg>
