<svg width="63" height="54" viewBox="0 0 63 54" fill="none" xmlns="http://www.w3.org/2000/svg">
<path d="M28.9277 30.8076V15.4038C28.9277 13.9918 30.083 12.8365 31.495 12.8365C32.907 12.8365 34.0623 13.9918 34.0623 15.4038V30.8076C34.0623 32.2196 32.907 33.3749 31.495 33.3749C30.083 33.3749 28.9277 32.2196 28.9277 30.8076ZM31.495 35.9422C29.3641 35.9422 27.644 37.6622 27.644 39.7931C27.644 41.924 29.3641 43.644 31.495 43.644C33.6258 43.644 35.3459 41.924 35.3459 39.7931C35.3459 37.6622 33.6258 35.9422 31.495 35.9422ZM61.2243 48.4706C59.4272 51.9364 55.6533 53.9132 50.9294 53.9132H12.0862C7.33673 53.9132 3.58847 51.9364 1.79137 48.4706C-0.0314151 44.979 0.482044 40.5119 3.07501 36.7637L23.7161 4.10767C25.5389 1.48903 28.4142 0 31.495 0C34.5757 0 37.4511 1.48903 39.1969 4.03066L59.9406 36.815C62.5336 40.5633 63.0214 45.0047 61.1986 48.4706H61.2243ZM55.7046 39.6904C55.7046 39.6904 55.6533 39.6391 55.6533 39.5877L34.9352 6.85468C34.1907 5.80209 32.907 5.13459 31.495 5.13459C30.083 5.13459 28.7993 5.80209 28.0035 6.95737L7.33673 39.5877C5.745 41.8469 5.38558 44.3115 6.30981 46.083C7.20836 47.8287 9.2622 48.7786 12.0606 48.7786H50.8781C53.6764 48.7786 55.7303 47.8287 56.6288 46.083C57.5531 44.3115 57.1936 41.8469 55.6789 39.6904H55.7046Z" fill="#13293D"/>
</svg>
