<svg width="1228" height="203" viewBox="0 0 1228 203" fill="none" xmlns="http://www.w3.org/2000/svg">
<g clip-path="url(#clip0_11_146)">
<path d="M167.515 158.896L69.1108 136.266C59.425 134.039 53.2922 124.6 55.4494 115.22L72.6566 40.3964C76.5392 23.5135 65.5047 6.52329 48.0661 2.51291C42.2392 1.17289 36.4716 4.65928 35.1764 10.2914C33.8812 15.9236 37.5463 21.5792 43.3732 22.9192C49.2001 24.2593 52.8637 29.9217 51.5701 35.5471L34.3628 110.37C31.0262 124.879 36.7098 139.457 47.7875 148.536L46.0636 156.032C43.9033 165.426 50.0182 174.846 59.725 177.079C69.4318 179.311 79.0476 173.508 81.2079 164.114L81.99 160.713L117.134 168.796L116.352 172.197C114.192 181.59 120.307 191.011 130.013 193.243C139.72 195.475 149.336 189.673 151.496 180.279L152.278 176.878L162.822 179.302C168.649 180.642 174.416 177.156 175.711 171.524C177.007 165.892 173.342 160.236 167.515 158.896Z" fill="#13293D"/>
</g>
<path d="M202.785 137.091C199.09 137.091 196.192 136.083 194.093 134.067C192.078 131.968 191.07 128.987 191.07 125.124V59.1168C191.07 55.2538 192.078 52.3146 194.093 50.2991C196.192 48.1996 199.216 47.1499 203.163 47.1499H245.11C248.133 47.1499 250.4 47.9057 251.912 49.4173C253.424 50.9289 254.179 53.1124 254.179 55.9676C254.179 58.9069 253.424 61.1743 251.912 62.7699C250.4 64.2815 248.133 65.0373 245.11 65.0373H214.248V82.9246H242.339C245.278 82.9246 247.503 83.6804 249.015 85.192C250.61 86.7036 251.408 88.8871 251.408 91.7423C251.408 94.6816 250.61 96.907 249.015 98.4186C247.503 99.9302 245.278 100.686 242.339 100.686H214.248V125.124C214.248 133.102 210.427 137.091 202.785 137.091Z" fill="#00A991"/>
<path d="M305.862 137.342C296.877 137.342 288.983 135.453 282.181 131.674C275.378 127.811 270.088 122.436 266.309 115.55C262.614 108.664 260.766 100.644 260.766 91.4904C260.766 84.6042 261.816 78.3478 263.915 72.7213C266.099 67.0947 269.164 62.266 273.111 58.235C277.142 54.2041 281.929 51.1389 287.471 49.0394C293.014 46.856 299.144 45.7643 305.862 45.7643C314.848 45.7643 322.7 47.6538 329.418 51.4328C336.221 55.2118 341.511 60.5444 345.29 67.4307C349.069 74.2329 350.959 82.2528 350.959 91.4904C350.959 98.3766 349.867 104.633 347.684 110.26C345.584 115.886 342.519 120.757 338.488 124.872C334.541 128.903 329.796 132.01 324.254 134.193C318.711 136.293 312.581 137.342 305.862 137.342ZM305.862 117.944C310.313 117.944 314.092 116.894 317.199 114.794C320.307 112.695 322.7 109.672 324.38 105.725C326.059 101.778 326.899 97.033 326.899 91.4904C326.899 83.1766 325.051 76.7102 321.356 72.0914C317.661 67.4726 312.497 65.1632 305.862 65.1632C301.496 65.1632 297.717 66.213 294.525 68.3124C291.418 70.3279 289.025 73.3091 287.345 77.2561C285.666 81.1191 284.826 85.8639 284.826 91.4904C284.826 99.8042 286.673 106.313 290.368 111.015C294.063 115.634 299.228 117.944 305.862 117.944Z" fill="#00A991"/>
<path d="M376.233 137.091C372.538 137.091 369.683 136.083 367.667 134.067C365.652 131.968 364.644 129.071 364.644 125.376V58.8649C364.644 55.0859 365.652 52.1886 367.667 50.1731C369.767 48.1577 372.664 47.1499 376.359 47.1499H407.347C417.424 47.1499 425.192 49.6273 430.651 54.582C436.193 59.4527 438.965 66.255 438.965 74.9887C438.965 80.6152 437.705 85.528 435.186 89.7269C432.75 93.8418 429.181 97.033 424.478 99.3004C419.86 101.484 414.149 102.576 407.347 102.576L408.355 100.308H414.401C418.012 100.308 421.203 101.19 423.974 102.953C426.746 104.633 429.055 107.236 430.903 110.763L437.201 122.1C438.545 124.536 439.175 126.929 439.091 129.281C439.007 131.548 438.083 133.438 436.319 134.949C434.64 136.377 432.162 137.091 428.887 137.091C425.612 137.091 422.925 136.419 420.825 135.075C418.81 133.731 417.004 131.632 415.409 128.777L403.946 107.74C402.938 105.893 401.636 104.633 400.041 103.961C398.529 103.205 396.766 102.827 394.75 102.827H387.822V125.376C387.822 129.071 386.856 131.968 384.925 134.067C382.993 136.083 380.096 137.091 376.233 137.091ZM387.822 86.4517H403.19C407.641 86.4517 411.042 85.5699 413.393 83.8064C415.745 82.0429 416.92 79.3136 416.92 75.6185C416.92 72.0914 415.745 69.4461 413.393 67.6826C411.042 65.8351 407.641 64.9113 403.19 64.9113H387.822V86.4517Z" fill="#00A991"/>
<path d="M464.417 137.091C460.89 137.091 458.202 136.167 456.355 134.319C454.507 132.472 453.584 129.742 453.584 126.131V57.4792C453.584 53.7842 454.507 50.9709 456.355 49.0394C458.202 47.0239 460.638 46.0162 463.661 46.0162C466.348 46.0162 468.448 46.5201 469.959 47.5278C471.471 48.5356 473.151 50.2151 474.998 52.5665L514.93 102.45H511.403V56.8494C511.403 53.3223 512.284 50.635 514.048 48.7875C515.895 46.94 518.583 46.0162 522.11 46.0162C525.637 46.0162 528.282 46.94 530.046 48.7875C531.893 50.635 532.817 53.3223 532.817 56.8494V126.635C532.817 129.826 531.977 132.388 530.298 134.319C528.618 136.167 526.351 137.091 523.495 137.091C520.64 137.091 518.373 136.587 516.693 135.579C515.098 134.487 513.376 132.808 511.529 130.54L471.597 80.5312H475.124V126.131C475.124 129.742 474.2 132.472 472.353 134.319C470.589 136.167 467.944 137.091 464.417 137.091Z" fill="#00A991"/>
<path d="M561.136 135.957C557.189 135.957 554.166 134.949 552.066 132.934C550.051 130.834 549.043 127.853 549.043 123.99V59.1168C549.043 55.2538 550.051 52.3146 552.066 50.2991C554.166 48.1996 557.189 47.1499 561.136 47.1499H603.839C606.862 47.1499 609.13 47.9057 610.641 49.4173C612.153 50.9289 612.909 53.1124 612.909 55.9676C612.909 58.9069 612.153 61.1743 610.641 62.7699C609.13 64.2815 606.862 65.0373 603.839 65.0373H571.213V81.9169H601.068C604.007 81.9169 606.232 82.6727 607.744 84.1843C609.34 85.6959 610.137 87.9213 610.137 90.8606C610.137 93.7998 609.34 96.0252 607.744 97.5368C606.232 99.0484 604.007 99.8042 601.068 99.8042H571.213V118.069H603.839C606.862 118.069 609.13 118.867 610.641 120.463C612.153 121.974 612.909 124.158 612.909 127.013C612.909 129.952 612.153 132.178 610.641 133.689C609.13 135.201 606.862 135.957 603.839 135.957H561.136Z" fill="#00A991"/>
<path d="M671.51 137.342C661.685 137.342 653.245 135.453 646.191 131.674C639.136 127.895 633.72 122.562 629.941 115.676C626.246 108.79 624.398 100.728 624.398 91.4904C624.398 84.6042 625.448 78.3478 627.547 72.7213C629.731 67.0947 632.838 62.266 636.869 58.235C640.984 54.2041 645.939 51.1389 651.733 49.0394C657.612 46.856 664.204 45.7643 671.51 45.7643C675.373 45.7643 679.362 46.2262 683.477 47.1499C687.676 47.9897 691.371 49.2914 694.562 51.0549C696.913 52.3146 698.551 53.9102 699.475 55.8417C700.398 57.7732 700.692 59.7466 700.357 61.7621C700.105 63.7776 699.391 65.5831 698.215 67.1787C697.039 68.7743 695.528 69.866 693.68 70.4539C691.833 70.9577 689.817 70.6638 687.634 69.5721C685.114 68.3964 682.595 67.5146 680.076 66.9268C677.64 66.255 675.079 65.919 672.392 65.919C667.185 65.919 662.818 66.9268 659.291 68.9423C655.848 70.8738 653.245 73.729 651.481 77.508C649.718 81.2871 648.836 85.9478 648.836 91.4904C648.836 97.033 649.718 101.736 651.481 105.599C653.245 109.378 655.848 112.275 659.291 114.29C662.818 116.222 667.185 117.188 672.392 117.188C674.575 117.188 676.927 116.936 679.446 116.432C681.965 115.844 684.443 114.962 686.878 113.787C689.397 112.695 691.623 112.401 693.554 112.905C695.57 113.409 697.165 114.416 698.341 115.928C699.601 117.44 700.398 119.203 700.734 121.219C701.07 123.15 700.776 125.082 699.853 127.013C699.013 128.945 697.501 130.498 695.318 131.674C692.379 133.438 688.726 134.823 684.359 135.831C680.076 136.839 675.793 137.342 671.51 137.342Z" fill="#00A991"/>
<path d="M725.484 135.957C721.537 135.957 718.514 134.949 716.414 132.934C714.399 130.834 713.391 127.853 713.391 123.99V59.1168C713.391 55.2538 714.399 52.3146 716.414 50.2991C718.514 48.1996 721.537 47.1499 725.484 47.1499H768.187C771.21 47.1499 773.478 47.9057 774.989 49.4173C776.501 50.9289 777.257 53.1124 777.257 55.9676C777.257 58.9069 776.501 61.1743 774.989 62.7699C773.478 64.2815 771.21 65.0373 768.187 65.0373H735.561V81.9169H765.416C768.355 81.9169 770.58 82.6727 772.092 84.1843C773.688 85.6959 774.485 87.9213 774.485 90.8606C774.485 93.7998 773.688 96.0252 772.092 97.5368C770.58 99.0484 768.355 99.8042 765.416 99.8042H735.561V118.069H768.187C771.21 118.069 773.478 118.867 774.989 120.463C776.501 121.974 777.257 124.158 777.257 127.013C777.257 129.952 776.501 132.178 774.989 133.689C773.478 135.201 771.21 135.957 768.187 135.957H725.484Z" fill="#00A991"/>
<path d="M802.86 135.957C798.913 135.957 795.89 134.949 793.791 132.934C791.775 130.834 790.768 127.853 790.768 123.99V59.1168C790.768 55.2538 791.775 52.3146 793.791 50.2991C795.89 48.1996 798.913 47.1499 802.86 47.1499H827.55C843.002 47.1499 854.927 51.0129 863.325 58.7389C871.806 66.4649 876.047 77.3821 876.047 91.4904C876.047 98.5446 874.956 104.843 872.772 110.385C870.589 115.844 867.44 120.505 863.325 124.368C859.21 128.147 854.129 131.044 848.083 133.06C842.12 134.991 835.276 135.957 827.55 135.957H802.86ZM813.945 117.188H826.038C830.489 117.188 834.31 116.642 837.501 115.55C840.777 114.458 843.464 112.863 845.563 110.763C847.747 108.664 849.342 106.019 850.35 102.827C851.442 99.6363 851.988 95.8573 851.988 91.4904C851.988 82.7567 849.846 76.3323 845.563 72.2174C841.28 68.0185 834.772 65.919 826.038 65.919H813.945V117.188Z" fill="#00A991"/>
<path d="M932.623 137.342C923.638 137.342 915.744 135.453 908.942 131.674C902.139 127.811 896.849 122.436 893.07 115.55C889.375 108.664 887.527 100.644 887.527 91.4904C887.527 84.6042 888.577 78.3478 890.676 72.7213C892.86 67.0947 895.925 62.266 899.872 58.235C903.903 54.2041 908.69 51.1389 914.232 49.0394C919.775 46.856 925.905 45.7643 932.623 45.7643C941.609 45.7643 949.461 47.6538 956.179 51.4328C962.982 55.2118 968.272 60.5444 972.051 67.4307C975.83 74.2329 977.72 82.2528 977.72 91.4904C977.72 98.3766 976.628 104.633 974.445 110.26C972.345 115.886 969.28 120.757 965.249 124.872C961.302 128.903 956.557 132.01 951.015 134.193C945.472 136.293 939.342 137.342 932.623 137.342ZM932.623 117.944C937.074 117.944 940.853 116.894 943.961 114.794C947.068 112.695 949.461 109.672 951.141 105.725C952.82 101.778 953.66 97.033 953.66 91.4904C953.66 83.1766 951.812 76.7102 948.117 72.0914C944.422 67.4726 939.258 65.1632 932.623 65.1632C928.257 65.1632 924.478 66.213 921.286 68.3124C918.179 70.3279 915.786 73.3091 914.106 77.2561C912.427 81.1191 911.587 85.8639 911.587 91.4904C911.587 99.8042 913.434 106.313 917.129 111.015C920.824 115.634 925.989 117.944 932.623 117.944Z" fill="#00A991"/>
<path d="M1002.99 137.091C999.299 137.091 996.444 136.083 994.428 134.067C992.413 131.968 991.405 129.071 991.405 125.376V58.8649C991.405 55.0859 992.413 52.1886 994.428 50.1731C996.528 48.1577 999.425 47.1499 1003.12 47.1499H1034.11C1044.19 47.1499 1051.95 49.6273 1057.41 54.582C1062.95 59.4527 1065.73 66.255 1065.73 74.9887C1065.73 80.6152 1064.47 85.528 1061.95 89.7269C1059.51 93.8418 1055.94 97.033 1051.24 99.3004C1046.62 101.484 1040.91 102.576 1034.11 102.576L1035.12 100.308H1041.16C1044.77 100.308 1047.96 101.19 1050.74 102.953C1053.51 104.633 1055.82 107.236 1057.66 110.763L1063.96 122.1C1065.31 124.536 1065.94 126.929 1065.85 129.281C1065.77 131.548 1064.84 133.438 1063.08 134.949C1061.4 136.377 1058.92 137.091 1055.65 137.091C1052.37 137.091 1049.69 136.419 1047.59 135.075C1045.57 133.731 1043.77 131.632 1042.17 128.777L1030.71 107.74C1029.7 105.893 1028.4 104.633 1026.8 103.961C1025.29 103.205 1023.53 102.827 1021.51 102.827H1014.58V125.376C1014.58 129.071 1013.62 131.968 1011.69 134.067C1009.75 136.083 1006.86 137.091 1002.99 137.091ZM1014.58 86.4517H1029.95C1034.4 86.4517 1037.8 85.5699 1040.15 83.8064C1042.51 82.0429 1043.68 79.3136 1043.68 75.6185C1043.68 72.0914 1042.51 69.4461 1040.15 67.6826C1037.8 65.8351 1034.4 64.9113 1029.95 64.9113H1014.58V86.4517Z" fill="#00A991"/>
<path d="M1092.44 135.957C1088.49 135.957 1085.47 134.949 1083.37 132.934C1081.35 130.834 1080.34 127.853 1080.34 123.99V59.1168C1080.34 55.2538 1081.35 52.3146 1083.37 50.2991C1085.47 48.1996 1088.49 47.1499 1092.44 47.1499H1135.14C1138.16 47.1499 1140.43 47.9057 1141.94 49.4173C1143.45 50.9289 1144.21 53.1124 1144.21 55.9676C1144.21 58.9069 1143.45 61.1743 1141.94 62.7699C1140.43 64.2815 1138.16 65.0373 1135.14 65.0373H1102.51V81.9169H1132.37C1135.31 81.9169 1137.53 82.6727 1139.05 84.1843C1140.64 85.6959 1141.44 87.9213 1141.44 90.8606C1141.44 93.7998 1140.64 96.0252 1139.05 97.5368C1137.53 99.0484 1135.31 99.8042 1132.37 99.8042H1102.51V118.069H1135.14C1138.16 118.069 1140.43 118.867 1141.94 120.463C1143.45 121.974 1144.21 124.158 1144.21 127.013C1144.21 129.952 1143.45 132.178 1141.94 133.689C1140.43 135.201 1138.16 135.957 1135.14 135.957H1092.44Z" fill="#00A991"/>
<path d="M1189.49 137.342C1186.14 137.342 1182.61 137.091 1178.91 136.587C1175.3 136.167 1171.86 135.495 1168.58 134.571C1165.31 133.647 1162.37 132.556 1159.77 131.296C1157.5 130.204 1155.9 128.777 1154.98 127.013C1154.06 125.166 1153.72 123.234 1153.97 121.219C1154.22 119.203 1154.94 117.44 1156.11 115.928C1157.29 114.332 1158.84 113.283 1160.77 112.779C1162.71 112.191 1164.89 112.443 1167.32 113.535C1170.52 115.046 1174.13 116.222 1178.16 117.062C1182.19 117.902 1185.97 118.321 1189.49 118.321C1195.04 118.321 1198.9 117.608 1201.08 116.18C1203.35 114.668 1204.48 112.821 1204.48 110.637C1204.48 108.706 1203.69 107.152 1202.09 105.977C1200.58 104.801 1197.85 103.793 1193.9 102.953L1179.16 99.8042C1171.1 98.1247 1165.1 95.1854 1161.15 90.9865C1157.2 86.7876 1155.23 81.371 1155.23 74.7368C1155.23 70.3699 1156.11 66.4229 1157.88 62.8958C1159.72 59.2848 1162.29 56.2196 1165.56 53.7002C1168.92 51.1809 1172.87 49.2494 1177.4 47.9057C1182.02 46.4781 1187.14 45.7643 1192.77 45.7643C1197.14 45.7643 1201.55 46.2681 1206 47.2759C1210.53 48.1996 1214.44 49.6273 1217.71 51.5588C1219.64 52.5665 1221.03 53.9522 1221.87 55.7157C1222.71 57.4792 1223.04 59.3268 1222.88 61.2583C1222.71 63.1058 1222.04 64.7433 1220.86 66.171C1219.77 67.5986 1218.26 68.5644 1216.33 69.0682C1214.48 69.4881 1212.25 69.1522 1209.65 68.0605C1207.21 66.9688 1204.44 66.171 1201.34 65.6671C1198.31 65.0793 1195.37 64.7853 1192.52 64.7853C1189.41 64.7853 1186.77 65.1632 1184.58 65.919C1182.4 66.5909 1180.72 67.5986 1179.54 68.9423C1178.45 70.2859 1177.91 71.8395 1177.91 73.603C1177.91 75.3666 1178.62 76.8782 1180.05 78.1379C1181.56 79.3136 1184.29 80.3213 1188.23 81.1611L1202.85 84.3103C1210.99 86.0738 1217.08 88.9711 1221.11 93.002C1225.14 97.033 1227.16 102.282 1227.16 108.748C1227.16 113.115 1226.28 117.062 1224.51 120.589C1222.75 124.116 1220.23 127.139 1216.96 129.658C1213.68 132.094 1209.73 133.983 1205.11 135.327C1200.5 136.671 1195.29 137.342 1189.49 137.342Z" fill="#00A991"/>
<path d="M74.1672 69.5955L93.8427 69.5316L93.9761 110.606L115.231 110.537L115.132 79.803L134.233 79.741L134.332 110.475L175.12 110.343L175.2 134.901L74.3802 135.229L74.1672 69.5955Z" fill="#009883"/>
<path d="M175.215 110.405L155.54 110.563L155.211 69.4897L133.956 69.6601L134.203 100.393L115.102 100.546L114.856 69.8132L74.0696 70.1401L73.8728 45.5822L174.689 44.7742L175.215 110.405Z" fill="#13293D"/>
<defs>
<clipPath id="clip0_11_146">
<rect width="173.096" height="167.512" fill="white" transform="translate(37.5431) rotate(12.9512)"/>
</clipPath>
</defs>
</svg>
