<svg width="12" height="11" viewBox="0 0 12 11" fill="none" xmlns="http://www.w3.org/2000/svg">
<path d="M11.285 4.81828H6.41245V0.554797C6.41245 0.441722 6.36111 0.333279 6.26973 0.253323C6.17835 0.173367 6.05442 0.128448 5.92519 0.128448C5.79596 0.128448 5.67203 0.173367 5.58065 0.253323C5.48927 0.333279 5.43793 0.441722 5.43793 0.554797V4.81828H0.56538C0.436152 4.81828 0.312217 4.8632 0.220839 4.94316C0.129461 5.02311 0.078125 5.13156 0.078125 5.24463C0.078125 5.3577 0.129461 5.46615 0.220839 5.5461C0.312217 5.62606 0.436152 5.67098 0.56538 5.67098H5.43793V9.93446C5.43793 10.0475 5.48927 10.156 5.58065 10.2359C5.67203 10.3159 5.79596 10.3608 5.92519 10.3608C6.05442 10.3608 6.17835 10.3159 6.26973 10.2359C6.36111 10.156 6.41245 10.0475 6.41245 9.93446V5.67098H11.285C11.4142 5.67098 11.5382 5.62606 11.6295 5.5461C11.7209 5.46615 11.7723 5.3577 11.7723 5.24463C11.7723 5.13156 11.7209 5.02311 11.6295 4.94316C11.5382 4.8632 11.4142 4.81828 11.285 4.81828Z" fill="white"/>
</svg>
