<svg width="81" height="81" viewBox="0 0 81 81" fill="none" xmlns="http://www.w3.org/2000/svg">
<path d="M61.4723 30.7057C62.7784 32.0355 62.7581 34.1719 61.425 35.478L46.4873 50.1424C43.8446 52.7344 40.4426 54.027 37.0373 54.027C33.669 54.027 30.3008 52.758 27.6683 50.2166L21.2591 43.9155C19.9294 42.6094 19.9125 40.473 21.2186 39.1432C22.5214 37.8101 24.6645 37.7933 25.9909 39.1028L32.3797 45.3836C34.9987 47.9149 39.1331 47.9014 41.7656 45.3229L56.7 30.6619C58.0264 29.3524 60.156 29.376 61.4723 30.7057ZM81 40.5C81 62.8324 62.8324 81 40.5 81C18.1676 81 0 62.8324 0 40.5C0 18.1676 18.1676 0 40.5 0C62.8324 0 81 18.1676 81 40.5ZM74.25 40.5C74.25 21.8902 59.1097 6.75 40.5 6.75C21.8902 6.75 6.75 21.8902 6.75 40.5C6.75 59.1097 21.8902 74.25 40.5 74.25C59.1097 74.25 74.25 59.1097 74.25 40.5Z" fill="#2BCF59"/>
</svg>
