<svg width="75" height="72" viewBox="0 0 75 72" fill="none" xmlns="http://www.w3.org/2000/svg">
<path d="M58.7906 29.9988C59.7562 29.9988 60.6688 29.5698 61.2594 28.8378C61.85 28.1058 62.0562 27.1519 61.8187 26.2549C60.8469 22.6041 58.8656 19.2682 56.0906 16.6043L45.2 6.14974C41.0688 2.18391 35.575 0 29.7312 0H15.6219C7.00938 0 0 6.72872 0 14.9994V56.9976C0 65.2683 7.00937 71.997 15.625 71.997H25C26.725 71.997 28.125 70.6531 28.125 68.9971C28.125 67.3412 26.725 65.9973 25 65.9973H15.625C10.4562 65.9973 6.25 61.9594 6.25 56.9976V14.9994C6.25 10.0376 10.4562 5.99975 15.625 5.99975H29.7344C30.2438 5.99975 30.75 6.02375 31.25 6.06875V20.9991C31.25 25.9609 35.4562 29.9988 40.625 29.9988H58.7906ZM37.5 20.9991V7.97667C38.6844 8.63064 39.7875 9.44061 40.7813 10.3946L51.6719 20.8491C52.6531 21.7911 53.4937 22.8531 54.1812 23.999H40.625C38.9031 23.999 37.5 22.6521 37.5 20.9991ZM72.2562 35.6355C68.7125 32.2337 62.5375 32.2337 58.9969 35.6355L38.0375 55.7557C35.6781 58.0206 34.375 61.0355 34.375 64.2423V69.0001C34.375 70.6561 35.775 72 37.5 72H42.4563C45.7969 72 48.9344 70.7491 51.2938 68.4842L72.2531 48.364C74.025 46.6631 75 44.4041 75 41.9982C75 39.5923 74.025 37.3334 72.2562 35.6355ZM67.8344 44.1192L46.8719 64.2393C45.6938 65.3733 44.125 65.9973 42.4531 65.9973H40.6219V64.2393C40.6219 62.6374 41.2719 61.1315 42.4531 59.9975L63.4156 39.8773C64.5937 38.7434 66.6531 38.7434 67.8344 39.8773C68.425 40.4413 68.75 41.1943 68.75 41.9982C68.75 42.8022 68.425 43.5522 67.8344 44.1192Z" fill="#2BCF59"/>
</svg>
