<svg width="11" height="11" viewBox="0 0 11 11" fill="none" xmlns="http://www.w3.org/2000/svg">
<path d="M2.32146 5.7001C2.83352 6.21216 3.4553 6.46819 4.18682 6.46819C4.91833 6.46819 5.54012 6.21216 6.05218 5.7001C6.56424 5.18804 6.82027 4.56625 6.82027 3.83473C6.82027 3.10322 6.56424 2.48143 6.05218 1.96937C5.54012 1.45731 4.91833 1.20128 4.18682 1.20128C3.4553 1.20128 2.83352 1.45731 2.32146 1.96937C1.8094 2.48143 1.55337 3.10322 1.55337 3.83473C1.55337 4.56625 1.8094 5.18804 2.32146 5.7001ZM7.69809 6.46819L10.6059 9.37596L9.72804 10.2538L6.82027 7.346V6.87966L6.65568 6.71507C5.96074 7.31857 5.13779 7.62032 4.18682 7.62032C3.12612 7.62032 2.22087 7.25456 1.47107 6.52305C0.739556 5.79153 0.373799 4.89543 0.373799 3.83473C0.373799 2.77404 0.739556 1.87793 1.47107 1.14642C2.22087 0.396616 3.12612 0.0217146 4.18682 0.0217146C5.24751 0.0217146 6.14362 0.396616 6.87513 1.14642C7.60665 1.87793 7.97241 2.77404 7.97241 3.83473C7.97241 4.21878 7.88097 4.65769 7.69809 5.15146C7.51521 5.62694 7.3049 6.01099 7.06716 6.30359L7.23175 6.46819H7.69809Z" fill="#BEC4C9"/>
</svg>
