<svg width="204" height="204" viewBox="0 0 204 204" fill="none" xmlns="http://www.w3.org/2000/svg">
<g filter="url(#filter0_d_245_167)">
<circle cx="102" cy="98" r="98" fill="#E7EAEC"/>
<circle cx="102" cy="98" r="94.5" stroke="#B0E4DD" stroke-width="7"/>
</g>
<path d="M142.312 147.062C142.312 149.516 140.324 151.5 137.875 151.5C135.425 151.5 133.437 149.516 133.437 147.062C133.437 137.273 125.477 129.312 115.687 129.312H89.0625C79.2734 129.312 71.3125 137.273 71.3125 147.062C71.3125 149.516 69.3245 151.5 66.875 151.5C64.4255 151.5 62.4375 149.516 62.4375 147.062C62.4375 132.379 74.3788 120.437 89.0625 120.437H115.687C130.371 120.437 142.312 132.379 142.312 147.062ZM146.75 78.2812V87.1562C146.75 90.8261 143.764 93.8125 140.094 93.8125H137.875C137.875 103.602 129.914 111.562 120.125 111.562H84.625C74.8359 111.562 66.875 103.602 66.875 93.8125H64.6562C60.9864 93.8125 58 90.8261 58 87.1562V78.2812C58 74.6114 60.9864 71.625 64.6562 71.625H66.875C66.875 61.8359 74.8359 53.875 84.625 53.875H97.9375V49.4375C97.9375 46.9836 99.9255 45 102.375 45C104.824 45 106.812 46.9836 106.812 49.4375V53.875H120.125C129.914 53.875 137.875 61.8359 137.875 71.625H140.094C143.764 71.625 146.75 74.6114 146.75 78.2812ZM129 71.625C129 66.7304 125.02 62.75 120.125 62.75H84.625C79.7304 62.75 75.75 66.7304 75.75 71.625V93.8125C75.75 98.7071 79.7304 102.687 84.625 102.687H120.125C125.02 102.687 129 98.7071 129 93.8125V71.625ZM91.2812 76.0625C87.607 76.0625 84.625 79.0445 84.625 82.7187C84.625 86.393 87.607 89.375 91.2812 89.375C94.9555 89.375 97.9375 86.393 97.9375 82.7187C97.9375 79.0445 94.9555 76.0625 91.2812 76.0625ZM113.469 76.0625C109.794 76.0625 106.812 79.0445 106.812 82.7187C106.812 86.393 109.794 89.375 113.469 89.375C117.143 89.375 120.125 86.393 120.125 82.7187C120.125 79.0445 117.143 76.0625 113.469 76.0625Z" fill="#00A991"/>
<defs>
<filter id="filter0_d_245_167" x="0" y="0" width="204" height="204" filterUnits="userSpaceOnUse" color-interpolation-filters="sRGB">
<feFlood flood-opacity="0" result="BackgroundImageFix"/>
<feColorMatrix in="SourceAlpha" type="matrix" values="0 0 0 0 0 0 0 0 0 0 0 0 0 0 0 0 0 0 127 0" result="hardAlpha"/>
<feOffset dy="4"/>
<feGaussianBlur stdDeviation="2"/>
<feComposite in2="hardAlpha" operator="out"/>
<feColorMatrix type="matrix" values="0 0 0 0 0 0 0 0 0 0 0 0 0 0 0 0 0 0 0.13 0"/>
<feBlend mode="normal" in2="BackgroundImageFix" result="effect1_dropShadow_245_167"/>
<feBlend mode="normal" in="SourceGraphic" in2="effect1_dropShadow_245_167" result="shape"/>
</filter>
</defs>
</svg>
